<svg width="24" height="25" viewBox="0 0 24 25" fill="none" xmlns="http://www.w3.org/2000/svg">
<path fill-rule="evenodd" clip-rule="evenodd" d="M19 2.91699C17.7574 2.91699 16.75 3.92435 16.75 5.16699C16.75 6.40963 17.7574 7.41699 19 7.41699C20.2426 7.41699 21.25 6.40963 21.25 5.16699C21.25 3.92435 20.2426 2.91699 19 2.91699ZM15.25 5.16699C15.25 3.09592 16.9289 1.41699 19 1.41699C21.0711 1.41699 22.75 3.09592 22.75 5.16699C22.75 7.23806 21.0711 8.91699 19 8.91699C16.9289 8.91699 15.25 7.23806 15.25 5.16699ZM9.94359 3.41699L13 3.41699C13.4142 3.41699 13.75 3.75278 13.75 4.16699C13.75 4.58121 13.4142 4.91699 13 4.91699H10C8.09318 4.91699 6.73851 4.91859 5.71085 5.05675C4.70476 5.19202 4.12511 5.44569 3.7019 5.8689C3.27869 6.2921 3.02502 6.87175 2.88976 7.87784C2.75159 8.90551 2.75 10.2602 2.75 12.167C2.75 14.0738 2.75159 15.4285 2.88976 16.4561C3.02502 17.4622 3.27869 18.0419 3.7019 18.4651C4.12511 18.8883 4.70476 19.142 5.71085 19.2772C6.73851 19.4154 8.09318 19.417 10 19.417H14C15.9068 19.417 17.2615 19.4154 18.2892 19.2772C19.2952 19.142 19.8749 18.8883 20.2981 18.4651C20.7213 18.0419 20.975 17.4622 21.1102 16.4561C21.2484 15.4285 21.25 14.0738 21.25 12.167C21.25 11.7941 21.2527 11.5216 21.255 11.2874C21.2587 10.9082 21.2615 10.6292 21.2502 10.186C21.2397 9.77197 21.5669 9.42776 21.9809 9.41723C22.395 9.40671 22.7392 9.73386 22.7498 10.1479C22.7616 10.614 22.7586 10.9322 22.7547 11.3342C22.7525 11.5682 22.75 11.8305 22.75 12.167V12.2234C22.75 14.0612 22.75 15.5168 22.5969 16.656C22.4392 17.8284 22.1071 18.7774 21.3588 19.5257C20.6104 20.2741 19.6614 20.6062 18.489 20.7639C17.3498 20.917 15.8942 20.917 14.0564 20.917H9.94359C8.10583 20.917 6.65019 20.917 5.51098 20.7639C4.33856 20.6062 3.38961 20.2741 2.64124 19.5257C1.89288 18.7774 1.56076 17.8284 1.40314 16.656C1.24997 15.5168 1.24998 14.0612 1.25 12.2234V12.1106C1.24998 10.2728 1.24997 8.81718 1.40314 7.67797C1.56076 6.50555 1.89288 5.5566 2.64124 4.80823C3.38961 4.05987 4.33856 3.72775 5.51098 3.57013C6.65019 3.41696 8.10582 3.41698 9.94359 3.41699ZM5.42383 7.68685C5.68901 7.36865 6.16193 7.32565 6.48014 7.59083L8.63903 9.38991C9.57199 10.1674 10.2197 10.7054 10.7666 11.0571C11.2959 11.3976 11.6549 11.5119 12 11.5119C12.3451 11.5119 12.7041 11.3976 13.2334 11.0571C13.7803 10.7054 14.428 10.1674 15.361 9.3899C15.6792 9.12473 16.1521 9.16772 16.4173 9.48593C16.6824 9.80414 16.6395 10.2771 16.3212 10.5422L16.2837 10.5736C15.3973 11.3122 14.6789 11.9109 14.0448 12.3187C13.3843 12.7435 12.7411 13.0119 12 13.0119C11.2589 13.0119 10.6157 12.7435 9.95518 12.3187C9.32112 11.9109 8.60272 11.3122 7.71637 10.5736L5.51986 8.74316C5.20165 8.47798 5.15866 8.00506 5.42383 7.68685Z" fill="#F5F5F5"/>
</svg>
