<svg width="24" height="25" viewBox="0 0 24 25" fill="none" xmlns="http://www.w3.org/2000/svg">
<path fill-rule="evenodd" clip-rule="evenodd" d="M3.25 10.3103C3.25 5.41126 7.15501 1.41699 12 1.41699C16.845 1.41699 20.75 5.41126 20.75 10.3103C20.75 12.6754 20.076 15.2149 18.8844 17.4089C17.6944 19.6001 15.9556 21.5042 13.7805 22.5209C12.6506 23.049 11.3494 23.049 10.2195 22.5209C8.04437 21.5042 6.30562 19.6001 5.11556 17.4089C3.92403 15.2149 3.25 12.6754 3.25 10.3103ZM12 2.91699C8.00843 2.91699 4.75 6.21447 4.75 10.3103C4.75 12.4074 5.35263 14.7024 6.4337 16.693C7.51624 18.6862 9.04602 20.3166 10.8546 21.162C11.5821 21.502 12.4179 21.502 13.1454 21.162C14.954 20.3166 16.4838 18.6862 17.5663 16.693C18.6474 14.7024 19.25 12.4074 19.25 10.3103C19.25 6.21447 15.9916 2.91699 12 2.91699ZM12 7.91699C10.7574 7.91699 9.75 8.92435 9.75 10.167C9.75 11.4096 10.7574 12.417 12 12.417C13.2426 12.417 14.25 11.4096 14.25 10.167C14.25 8.92435 13.2426 7.91699 12 7.91699ZM8.25 10.167C8.25 8.09592 9.92893 6.41699 12 6.41699C14.0711 6.41699 15.75 8.09592 15.75 10.167C15.75 12.2381 14.0711 13.917 12 13.917C9.92893 13.917 8.25 12.2381 8.25 10.167Z" fill="#F5F5F5"/>
</svg>
