<svg width="25" height="26" viewBox="0 0 25 26" fill="none" xmlns="http://www.w3.org/2000/svg">
<path d="M24.9406 10.1386C24.7342 8.34811 23.9748 6.63271 22.7366 5.15942C21.4983 3.68613 19.8234 2.50516 17.8748 1.7315C15.9262 0.957837 13.7704 0.61786 11.6173 0.744671C9.46418 0.871483 7.38718 1.46076 5.58854 2.45512C4.0433 3.31616 2.74609 4.45171 1.79009 5.78019C0.834086 7.10867 0.243025 8.5971 0.059364 10.1386C-0.120801 11.6699 0.110353 13.2155 0.736056 14.6632C1.36176 16.1109 2.36632 17.4243 3.67685 18.5082L11.4706 25.0153C11.6073 25.1301 11.77 25.2213 11.9492 25.2835C12.1284 25.3457 12.3206 25.3778 12.5147 25.3778C12.7088 25.3778 12.901 25.3457 13.0802 25.2835C13.2594 25.2213 13.4221 25.1301 13.5588 25.0153L21.3231 18.5082C22.6337 17.4243 23.6382 16.1109 24.2639 14.6632C24.8897 13.2155 25.1208 11.6699 24.9406 10.1386ZM19.2644 16.7804L12.5 22.4174L5.73559 16.7804C4.7387 15.9496 3.97508 14.9451 3.49961 13.8391C3.02414 12.733 2.84863 11.5529 2.98571 10.3837C3.12367 9.19634 3.57651 8.0494 4.31149 7.02578C5.04647 6.00216 6.04522 5.12742 7.23552 4.46483C8.79567 3.60119 10.627 3.1405 12.5 3.1405C14.373 3.1405 16.2043 3.60119 17.7645 4.46483C18.9512 5.12486 19.9477 5.99573 20.6825 7.01487C21.4173 8.03401 21.8721 9.17612 22.0143 10.3591C22.1558 11.5324 21.9825 12.7172 21.5069 13.8278C21.0313 14.9384 20.2653 15.9469 19.2644 16.7804ZM12.5 5.69026C11.1912 5.69026 9.91181 6.01367 8.82359 6.61961C7.73537 7.22554 6.88721 8.08678 6.38636 9.09441C5.88551 10.102 5.75446 11.2108 6.00979 12.2805C6.26512 13.3502 6.89537 14.3328 7.82082 15.104C8.74628 15.8752 9.92538 16.4004 11.209 16.6132C12.4927 16.8259 13.8232 16.7167 15.0324 16.2994C16.2415 15.882 17.275 15.1752 18.0021 14.2683C18.7293 13.3615 19.1174 12.2953 19.1174 11.2047C19.1135 9.74317 18.415 8.34243 17.1749 7.30897C15.9347 6.27552 14.2538 5.69349 12.5 5.69026ZM12.5 14.2683C11.7729 14.2683 11.0621 14.0886 10.4576 13.752C9.85299 13.4153 9.38178 12.9369 9.10353 12.3771C8.82528 11.8173 8.75248 11.2013 8.89433 10.607C9.03618 10.0127 9.38632 9.46686 9.90046 9.03841C10.4146 8.60997 11.0697 8.31819 11.7828 8.19998C12.4959 8.08177 13.2351 8.14244 13.9069 8.37432C14.5786 8.60619 15.1528 8.99886 15.5567 9.50266C15.9607 10.0065 16.1763 10.5988 16.1763 11.2047C16.1763 12.0172 15.789 12.7964 15.0995 13.371C14.4101 13.9455 13.475 14.2683 12.5 14.2683Z" fill="white"/>
</svg>
