<svg width="24" height="25" viewBox="0 0 24 25" fill="none" xmlns="http://www.w3.org/2000/svg">
<path fill-rule="evenodd" clip-rule="evenodd" d="M10.6925 5.11811C9.52269 3.02199 6.68754 2.89427 5.00747 4.57434C4.10881 5.473 3.31032 6.66792 3.25709 8.07211C3.1782 10.153 3.71559 13.6083 7.13737 17.0301C10.5592 20.4518 14.0144 20.9892 16.0953 20.9103C17.4995 20.8571 18.6944 20.0586 19.5931 19.16C21.2732 17.4799 21.1454 14.6447 19.0493 13.4749L17.8864 12.8259C16.5176 12.062 14.7905 12.3875 13.6585 13.5058C13.6381 13.5207 13.5231 13.5997 13.3221 13.6095C13.0657 13.622 12.473 13.5307 11.5548 12.6126C10.6364 11.6942 10.5454 11.1014 10.5579 10.8451C10.5678 10.6442 10.6467 10.5293 10.6616 10.5089C11.7799 9.37694 12.1054 7.64986 11.3415 6.28104L10.6925 5.11811ZM6.06813 5.635C7.17396 4.52917 8.78366 4.77576 9.38267 5.84911L10.0317 7.01204C10.4354 7.73545 10.2977 8.75159 9.58438 9.46491C9.51473 9.53456 9.09848 9.98019 9.05972 10.7717C9.02005 11.582 9.38397 12.563 10.4942 13.6733C11.604 14.7831 12.5848 15.1471 13.395 15.1077C14.1864 15.0692 14.6323 14.6533 14.7023 14.5833C15.4156 13.87 16.432 13.732 17.1554 14.1357L18.3183 14.7848C19.3917 15.3838 19.6383 16.9935 18.5324 18.0993C17.7571 18.8746 16.9013 19.3787 16.0385 19.4114C14.3032 19.4772 11.2774 19.0488 8.19803 15.9694C5.11866 12.89 4.69022 9.86428 4.75601 8.12894C4.78872 7.26616 5.29279 6.41035 6.06813 5.635Z" fill="#F5F5F5"/>
<path d="M16 4.41744C15.5858 4.41744 15.25 4.75322 15.25 5.16744C15.25 5.58165 15.5858 5.91744 16 5.91744H17.1893L14.4697 8.63711C14.1768 8.93 14.1768 9.40488 14.4697 9.69777C14.7626 9.99066 15.2374 9.99066 15.5303 9.69777L18.25 6.9781V8.16744C18.25 8.58165 18.5858 8.91744 19 8.91744C19.4142 8.91744 19.75 8.58165 19.75 8.16744V5.16744C19.75 4.75322 19.4142 4.41744 19 4.41744H16Z" fill="#F5F5F5"/>
</svg>
