<svg width="527" height="81" viewBox="0 0 527 81" fill="none" xmlns="http://www.w3.org/2000/svg">
<path fill-rule="evenodd" clip-rule="evenodd" d="M37.4436 79.389H42.0271C42.947 79.3936 43.8307 79.0304 44.4812 78.3802C45.1317 77.7301 45.4952 76.847 45.4905 75.9276V48.374L45.3872 47.7024L33.4459 2.46283C33.0072 0.98781 31.6427 -0.0173958 30.103 0.000228107H15.3875C13.8479 -0.0173958 12.4834 0.98781 12.0447 2.46283L0.103388 47.7024L0 48.374V75.9276C0 77.8297 1.54294 79.3717 3.44625 79.3717H8.06423C9.92705 79.3159 11.4079 77.7901 11.4071 75.9276V54.4185H34.1007V75.9448C34.0998 77.8073 35.5807 79.3331 37.4436 79.389ZM21.3843 11.2967H24.0724L32.3262 43.1727H13.1306L21.3843 11.2967Z" fill="#00B9FF"/>
<path d="M78.7298 80.611H76.2829C65.6311 80.5446 57.0473 71.8657 57.1045 61.2201V40.7099C57.1045 30.1243 65.691 21.543 76.2829 21.543H78.7298C83.8162 21.543 88.6943 23.5623 92.291 27.1568C95.8876 30.7513 97.9082 35.6265 97.9082 40.7099C97.909 42.5725 96.4281 44.0982 94.5653 44.1541H89.999C89.0912 44.1644 88.2191 43.8013 87.5869 43.15C86.9548 42.4988 86.6183 41.6165 86.6562 40.7099C86.6372 36.3456 83.0968 32.8149 78.7298 32.8055H76.2829C71.9198 32.8243 68.3848 36.3495 68.3566 40.7099V61.2201C68.3747 65.6046 71.8965 69.1702 76.2829 69.2451H78.7298C83.1201 69.1793 86.6473 65.6083 86.6562 61.2201C86.6553 59.3576 88.1362 57.8318 89.999 57.7759H94.5653C96.4281 57.8318 97.909 59.3576 97.9082 61.2201C97.9655 71.8657 89.3817 80.5446 78.7298 80.611Z" fill="#00B9FF"/>
<path d="M134.249 80.6114C129.115 80.6023 124.196 78.5531 120.576 74.9156C116.956 71.2782 114.931 66.3511 114.95 61.2206V36.2674H109.16C107.297 36.2115 105.816 34.6857 105.817 32.8232V28.363C105.816 26.5004 107.297 24.9746 109.16 24.9188H114.95V3.27198C114.963 2.3811 115.337 1.5336 115.986 0.923366C116.636 0.313127 117.505 -0.00764215 118.396 0.0344359H122.962C124.788 0.0311493 126.299 1.45095 126.409 3.27198V24.8843H145.587C147.49 24.8843 149.033 26.4263 149.033 28.3285V32.7887C149.033 34.6909 147.49 36.2329 145.587 36.2329H126.34V61.2206C126.34 64.0446 127.847 66.654 130.294 68.066C132.741 69.478 135.756 69.478 138.203 68.066C140.65 66.654 142.158 64.0446 142.158 61.2206V58.9991C142.158 57.0969 143.701 55.5549 145.604 55.5549H150.17C152.074 55.5549 153.617 57.0969 153.617 58.9991V61.2206C153.621 66.3588 151.583 71.2884 147.951 74.9249C144.319 78.5613 139.39 80.6069 134.249 80.6114Z" fill="#00B9FF"/>
<path d="M238.722 77.1494C238.211 78.4417 236.992 79.3168 235.603 79.3881H227.797C226.41 79.3125 225.193 78.4389 224.679 77.1494L207.068 27.2085C206.646 26.1615 206.784 24.9718 207.435 24.0495C208.087 23.1271 209.162 22.5982 210.29 22.645H216.321C217.723 22.7348 218.962 23.5887 219.544 24.8665L231.709 64.4747L245.08 24.8665C245.639 23.5621 246.901 22.6969 248.32 22.645H253.11C254.238 22.6012 255.313 23.1298 255.966 24.0502C256.619 24.9707 256.764 26.1586 256.35 27.2085L238.722 77.1494Z" fill="#00B9FF"/>
<path fill-rule="evenodd" clip-rule="evenodd" d="M282.403 80.611H284.867C295.519 80.5446 304.103 71.8657 304.046 61.2201V40.7099C304.046 30.1243 295.459 21.543 284.867 21.543H282.403C271.815 21.5525 263.234 30.1282 263.225 40.7099V61.2201C263.177 71.8618 271.755 80.5351 282.403 80.611ZM284.867 32.805C289.228 32.8239 292.758 36.3518 292.776 40.7095V61.2196C292.768 65.6013 289.251 69.1696 284.867 69.2446H282.403C278.02 69.1696 274.503 65.6013 274.494 61.2196V40.7095C274.513 36.3518 278.043 32.8239 282.403 32.805H284.867Z" fill="#00B9FF"/>
<path fill-rule="evenodd" clip-rule="evenodd" d="M410.776 79.3884H413.12C414.996 79.3416 416.49 77.8028 416.48 75.927V71.4668C416.48 69.6042 415 68.0785 413.137 68.0226C412.496 68.0334 411.959 67.5418 411.913 66.9032V39.7113C411.913 28.4316 402.66 21.5432 392.735 21.5432H391.512C386.407 21.5203 381.503 23.5284 377.882 27.1244C374.262 30.7204 372.222 35.6086 372.213 40.7101C372.213 42.6123 373.756 44.1543 375.659 44.1543H380.122C382.025 44.1543 383.568 42.6123 383.568 40.7101C383.587 36.3458 387.127 32.8151 391.494 32.8057H392.718C397.732 32.8057 400.627 35.0444 400.627 39.1602C400.627 42.6105 392.72 44.3423 389.046 45.1469C388.337 45.3022 387.786 45.4229 387.479 45.5148C380.001 47.7363 371.093 51.1977 371.093 62.3397V64.6817C371.093 73.7227 378.554 80.6111 388.031 80.6111H390.271C394.987 80.5 399.564 78.9894 403.418 76.2714C405.354 78.2541 408.005 79.3771 410.776 79.3884ZM392.958 54.135C395.304 53.4993 397.765 52.8325 400.627 51.4213L400.61 61.2028C400.61 65.9902 395.837 69.2278 390.271 69.2278H388.031C386.583 69.3318 385.155 68.8382 384.081 67.862C383.006 66.8859 382.379 65.5123 382.345 64.0615V62.3394C382.572 59.401 384.553 56.8909 387.359 55.9848C389.251 55.1394 391.067 54.6473 392.958 54.135Z" fill="black"/>
<path d="M464.952 79.3895H460.489C458.585 79.3895 457.042 77.8475 457.042 75.9453V40.7112C457.056 38.6015 456.221 36.5749 454.723 35.088C453.225 33.6011 451.192 32.7789 449.082 32.8067H446.841C442.457 32.8155 438.887 36.3302 438.812 40.7112V75.9281C438.85 76.8346 438.513 77.7169 437.881 78.3682C437.249 79.0194 436.377 79.3825 435.469 79.3723H430.903C428.999 79.3723 427.456 77.8302 427.456 75.9281V25.9872C427.555 24.1446 429.057 22.6887 430.903 22.6463H435.469C436.391 22.6364 437.278 22.9962 437.933 23.6452C440.678 22.2037 443.741 21.4753 446.841 21.527H449.082C459.694 21.5174 468.316 30.0877 468.363 40.6939V75.9108C468.402 76.8326 468.057 77.7292 467.411 78.388C466.764 79.0468 465.874 79.4093 464.952 79.3895V79.3895Z" fill="black"/>
<path d="M523.176 79.3892H517.265C516.276 79.2626 515.365 78.7861 514.698 78.046L496.191 54.9871L493.176 57.8802V75.9278C493.214 76.8343 492.877 77.7166 492.245 78.3679C491.613 79.0192 490.741 79.3822 489.833 79.372H485.267C483.404 79.3161 481.923 77.7903 481.924 75.9278V3.27245C481.98 1.46782 483.46 0.0340457 485.267 0.0349094H489.833C490.707 0.0164649 491.553 0.348306 492.18 0.956473C492.808 1.56464 493.167 2.39859 493.176 3.27245V41.8302L511.475 23.6621C512.145 23.0466 513.013 22.6921 513.922 22.6633H520.281C521.726 22.5113 523.097 23.3351 523.641 24.6821C524.185 26.0292 523.77 27.5734 522.624 28.4668L504.221 46.8415L525.846 73.8096C526.777 74.8093 527.002 76.2764 526.412 77.5083C525.822 78.7402 524.539 79.4863 523.176 79.3892Z" fill="black"/>
<path fill-rule="evenodd" clip-rule="evenodd" d="M177.706 15.8434H186.753C188.616 15.7875 190.097 14.2618 190.096 12.3992V3.25488C190.087 2.38101 189.728 1.54706 189.1 0.938895C188.472 0.330728 187.627 -0.00111319 186.753 0.0173313H177.706C175.881 0.0140448 174.37 1.43385 174.26 3.25488V12.3992C174.26 14.3014 175.803 15.8434 177.706 15.8434ZM165.386 79.3884H201.572V79.3712C203.435 79.3153 204.916 77.7896 204.915 75.927V71.4668C204.916 69.6042 203.435 68.0784 201.572 68.0226H189.096V26.0034C188.998 24.1608 187.496 22.7049 185.65 22.6625H169.935C168.072 22.6617 166.545 24.1417 166.489 26.0034V30.5841C166.489 32.4863 168.032 34.0283 169.935 34.0283H177.741V68.0398H165.386C163.483 68.0398 161.94 69.5818 161.94 71.484V75.9442C161.94 77.8464 163.483 79.3884 165.386 79.3884Z" fill="#00B9FF"/>
<path fill-rule="evenodd" clip-rule="evenodd" d="M340.524 79.3896H321.036C319.173 79.3337 317.692 77.8079 317.693 75.9454V3.27284C317.74 1.46424 319.225 0.0253162 321.036 0.0352969H339.215C344.325 -0.00608417 349.239 1.99611 352.864 5.59611C356.489 9.19611 358.523 14.0951 358.514 19.2023V26.0045C358.544 30.8341 356.746 35.4967 353.482 39.058C357.443 42.7475 359.706 47.906 359.737 53.317V60.2054C359.634 70.7644 351.09 79.2962 340.524 79.3896ZM347.21 19.1158C347.224 17.0152 346.395 14.9966 344.909 13.5112C343.423 12.0258 341.403 11.1975 339.301 11.2113H329.152V33.9431H339.301C341.415 33.9294 343.438 33.0757 344.921 31.5702C346.405 30.0647 347.229 28.0311 347.21 25.9181V19.1158ZM346.12 47.6581C347.608 49.1318 348.446 51.137 348.451 53.2303V60.0842C348.46 62.188 347.628 64.2082 346.139 65.6958C344.651 67.1834 342.629 68.0151 340.524 68.0059H329.152V45.3775H340.524C342.619 45.3637 344.633 46.1845 346.12 47.6581Z" fill="black"/>
</svg>
