<svg width="330" height="975" viewBox="0 0 330 975" fill="none" xmlns="http://www.w3.org/2000/svg">
<g filter="url(#filter0_f_982_5049)">
<path d="M775.313 534.62C743.284 777.02 556.907 951.784 359.537 925.705C162.167 899.626 27.5774 682.452 59.6061 440.052C91.6348 197.653 278.012 22.8885 475.382 48.9674C672.752 75.0463 807.341 292.22 775.313 534.62Z" stroke="#0F65B2" stroke-opacity="0.3" stroke-width="3"/>
<path d="M748.499 530.995C718.86 755.305 546.401 916.988 363.809 892.862C181.217 868.736 56.6696 667.809 86.3082 443.498C115.947 219.188 288.406 57.5049 470.998 81.6312C653.59 105.757 778.137 306.684 748.499 530.995Z" stroke="#196DB8" stroke-opacity="0.3" stroke-width="3"/>
<path d="M721.685 527.368C694.437 733.59 535.895 882.191 368.081 860.018C200.267 837.844 85.7622 653.164 113.011 446.943C140.259 240.722 298.801 92.1204 466.615 114.294C634.429 136.468 748.934 321.147 721.685 527.368Z" stroke="#2274BE" stroke-opacity="0.3" stroke-width="3"/>
<path d="M694.871 523.743C670.013 711.875 525.389 847.395 372.353 827.174C219.317 806.954 114.855 638.521 139.713 450.389C164.571 262.257 309.195 126.737 462.231 146.958C615.267 167.179 719.73 335.611 694.871 523.743Z" stroke="#2C7CC3" stroke-opacity="0.3" stroke-width="3"/>
<path d="M668.058 520.117C645.59 690.16 514.883 812.599 376.625 794.331C238.367 776.062 143.947 623.877 166.415 453.834C188.883 283.792 319.59 161.353 457.848 179.621C596.106 197.889 690.526 350.075 668.058 520.117Z" stroke="#3683C9" stroke-opacity="0.3" stroke-width="3"/>
<path d="M641.244 516.492C621.166 668.445 504.377 777.803 380.897 761.487C257.418 745.172 173.04 609.233 193.118 457.28C213.195 305.327 329.985 195.969 453.465 212.284C576.944 228.6 661.322 364.538 641.244 516.492Z" stroke="#3F8BCF" stroke-opacity="0.3" stroke-width="3"/>
<path d="M614.431 512.866C596.743 646.73 493.871 743.006 385.17 728.643C276.468 714.28 202.132 594.589 219.82 460.725C237.508 326.861 340.379 230.585 449.081 244.948C557.783 259.311 632.119 379.002 614.431 512.866Z" stroke="#4993D5" stroke-opacity="0.3" stroke-width="3"/>
<path d="M587.617 509.241C572.319 625.016 483.365 708.211 389.441 695.8C295.518 683.39 231.224 579.946 246.522 464.171C261.82 348.396 350.774 265.201 444.698 277.612C538.621 290.022 602.914 393.466 587.617 509.241Z" stroke="#529ADB" stroke-opacity="0.3" stroke-width="3"/>
<path d="M560.803 505.614C547.896 603.3 472.859 673.414 393.714 662.956C314.568 652.498 260.317 565.302 273.224 467.616C286.132 369.931 361.168 299.817 440.314 310.274C519.46 320.732 573.711 407.929 560.803 505.614Z" stroke="#5CA2E0" stroke-opacity="0.3" stroke-width="3"/>
<path d="M533.99 501.989C523.473 581.586 462.354 638.618 397.986 630.113C333.618 621.608 289.41 550.658 299.927 471.062C310.444 391.466 371.563 334.433 435.931 342.938C500.299 351.443 544.507 422.393 533.99 501.989Z" stroke="#66AAE6" stroke-opacity="0.3" stroke-width="3"/>
<path d="M507.176 498.363C499.049 559.87 451.848 603.821 402.258 597.269C352.668 590.716 318.502 536.014 326.629 474.507C334.756 413 381.958 369.049 431.548 375.601C481.137 382.153 515.303 436.856 507.176 498.363Z" stroke="#6FB1EC" stroke-opacity="0.3" stroke-width="3"/>
</g>
<defs>
<filter id="filter0_f_982_5049" x="-4" y="-4" width="842.919" height="982.672" filterUnits="userSpaceOnUse" color-interpolation-filters="sRGB">
<feFlood flood-opacity="0" result="BackgroundImageFix"/>
<feBlend mode="normal" in="SourceGraphic" in2="BackgroundImageFix" result="shape"/>
<feGaussianBlur stdDeviation="2" result="effect1_foregroundBlur_982_5049"/>
</filter>
</defs>
</svg>
