<svg width="417" height="912" viewBox="0 0 417 912" fill="none" xmlns="http://www.w3.org/2000/svg">
<path d="M-113.59 908.821C-404.771 908.821 -641.5 706.404 -641.5 455.934C-641.5 205.464 -404.771 3.04688 -113.59 3.04688C177.592 3.04688 414.32 205.464 414.32 455.934C414.32 706.404 177.592 908.821 -113.59 908.821Z" stroke="#79B9F2" stroke-width="5"/>
<path d="M-122.117 897.273C-406.54 897.273 -637.79 699.552 -637.79 454.876C-637.79 210.199 -406.54 12.4785 -122.117 12.4785C162.306 12.4785 393.556 210.199 393.556 454.876C393.556 699.552 162.306 897.273 -122.117 897.273Z" stroke="#7AB5F2" stroke-width="5"/>
<path d="M-130.645 885.721C-408.31 885.721 -634.081 692.697 -634.081 453.813C-634.081 214.93 -408.31 21.9063 -130.645 21.9063C147.02 21.9063 372.791 214.93 372.791 453.813C372.791 692.697 147.02 885.721 -130.645 885.721Z" stroke="#7BB1F3" stroke-width="5"/>
<path d="M-139.173 874.172C-410.079 874.172 -630.371 685.844 -630.371 452.754C-630.371 219.664 -410.079 31.3369 -139.173 31.3369C131.734 31.3369 352.026 219.664 352.026 452.754C352.026 685.844 131.734 874.172 -139.173 874.172Z" stroke="#7CAEF3" stroke-width="5"/>
<path d="M-147.7 862.623C-411.848 862.623 -626.662 678.992 -626.662 451.695C-626.662 224.399 -411.848 40.7676 -147.7 40.7676C116.448 40.7676 331.261 224.399 331.261 451.695C331.261 678.992 116.448 862.623 -147.7 862.623Z" stroke="#7DAAF4" stroke-width="5"/>
<path d="M-156.228 851.072C-413.617 851.072 -622.952 672.137 -622.952 450.634C-622.952 229.131 -413.617 50.1963 -156.228 50.1963C101.162 50.1963 310.496 229.131 310.496 450.634C310.496 672.137 101.162 851.072 -156.228 851.072Z" stroke="#7EA6F4" stroke-width="5"/>
<path d="M-164.756 839.522C-415.387 839.522 -619.243 665.283 -619.243 449.574C-619.243 233.864 -415.387 59.626 -164.756 59.626C85.8752 59.626 289.731 233.864 289.731 449.574C289.731 665.283 85.8752 839.522 -164.756 839.522Z" stroke="#7FA3F4" stroke-width="5"/>
<path d="M-173.283 827.973C-417.156 827.973 -615.533 658.431 -615.533 448.515C-615.533 238.598 -417.156 69.0566 -173.283 69.0566C70.5892 69.0566 268.966 238.598 268.966 448.515C268.966 658.431 70.5892 827.973 -173.283 827.973Z" stroke="#809FF5" stroke-width="5"/>
<path d="M-181.811 816.422C-418.925 816.422 -611.824 651.577 -611.824 447.454C-611.824 243.331 -418.925 78.4854 -181.811 78.4854C55.3032 78.4854 248.202 243.331 248.202 447.454C248.202 651.577 55.3032 816.422 -181.811 816.422Z" stroke="#819BF5" stroke-width="5"/>
<path d="M-190.339 804.874C-420.694 804.874 -608.114 644.725 -608.114 446.395C-608.114 248.066 -420.694 87.917 -190.339 87.917C40.0173 87.917 227.437 248.066 227.437 446.395C227.437 644.725 40.0173 804.874 -190.339 804.874Z" stroke="#8298F6" stroke-width="5"/>
<path d="M-198.866 793.324C-422.464 793.324 -604.404 637.871 -604.404 445.335C-604.404 252.799 -422.464 97.3467 -198.866 97.3467C24.7312 97.3467 206.672 252.799 206.672 445.335C206.672 637.871 24.7312 793.324 -198.866 793.324Z" stroke="#8394F6" stroke-width="5"/>
<path d="M-207.394 781.774C-424.233 781.774 -600.695 631.018 -600.695 444.275C-600.695 257.532 -424.233 106.776 -207.394 106.776C9.44527 106.776 185.907 257.532 185.907 444.275C185.907 631.018 9.44527 781.774 -207.394 781.774Z" stroke="#8490F7" stroke-width="5"/>
<path d="M-215.922 770.224C-426.002 770.224 -596.986 624.164 -596.986 443.215C-596.986 262.265 -426.002 116.206 -215.922 116.206C-5.84116 116.206 165.142 262.265 165.142 443.215C165.142 624.164 -5.84116 770.224 -215.922 770.224Z" stroke="#858DF7" stroke-width="5"/>
<path d="M-224.449 758.674C-427.771 758.674 -593.276 617.311 -593.276 442.155C-593.276 266.999 -427.771 125.636 -224.449 125.636C-21.1272 125.636 144.377 266.999 144.377 442.155C144.377 617.311 -21.1272 758.674 -224.449 758.674Z" stroke="#8689F7" stroke-width="5"/>
<path d="M-232.977 747.125C-429.54 747.125 -589.566 610.458 -589.566 441.095C-589.566 271.733 -429.54 135.066 -232.977 135.066C-36.4128 135.066 123.613 271.733 123.613 441.095C123.613 610.458 -36.4128 747.125 -232.977 747.125Z" stroke="#8685F8" stroke-width="5"/>
<path d="M-241.505 735.574C-431.31 735.574 -585.857 603.604 -585.857 440.034C-585.857 276.465 -431.31 144.495 -241.505 144.495C-51.6995 144.495 102.848 276.465 102.848 440.034C102.848 603.604 -51.6995 735.574 -241.505 735.574Z" stroke="#8782F8" stroke-width="5"/>
<path d="M-250.032 724.025C-433.079 724.025 -582.147 596.751 -582.147 438.975C-582.147 281.199 -433.079 153.926 -250.032 153.926C-66.9849 153.926 82.0834 281.199 82.0834 438.975C82.0834 596.751 -66.9849 724.025 -250.032 724.025Z" stroke="#887EF9" stroke-width="5"/>
<path d="M-258.56 712.474C-434.849 712.474 -578.438 589.897 -578.438 437.914C-578.438 285.932 -434.849 163.354 -258.56 163.354C-82.2717 163.354 61.3178 285.932 61.3178 437.914C61.3178 589.897 -82.2717 712.474 -258.56 712.474Z" stroke="#897AF9" stroke-width="5"/>
<path d="M-267.088 700.925C-436.618 700.925 -574.728 583.044 -574.728 436.855C-574.728 290.666 -436.618 172.785 -267.088 172.785C-97.5574 172.785 40.5533 290.666 40.5533 436.855C40.5533 583.044 -97.5574 700.925 -267.088 700.925Z" stroke="#8A77F9" stroke-width="5"/>
<path d="M-275.616 689.374C-438.387 689.374 -571.019 576.19 -571.019 435.794C-571.019 295.398 -438.387 182.214 -275.616 182.214C-112.844 182.214 19.7878 295.398 19.7878 435.794C19.7878 576.19 -112.844 689.374 -275.616 689.374Z" stroke="#8B73FA" stroke-width="5"/>
<path d="M-284.143 677.825C-440.156 677.825 -567.309 569.337 -567.309 434.735C-567.309 300.132 -440.156 191.645 -284.143 191.645C-128.13 191.645 -0.976562 300.132 -0.976562 434.735C-0.976562 569.337 -128.13 677.825 -284.143 677.825Z" stroke="#8C6FFA" stroke-width="5"/>
</svg>
