<svg width="789" height="964" viewBox="0 0 789 964" fill="none" xmlns="http://www.w3.org/2000/svg">
<path fill-rule="evenodd" clip-rule="evenodd" d="M187.375 225.89C229.38 177.345 232.866 105.801 288.872 69.0804C350.111 28.9295 430.996 15.1499 514.706 11.2759C614.96 6.63633 737.588 -24.2262 819.101 44.5422C904.476 116.568 861.083 225 878.132 317.879C889.284 378.631 887.251 434.971 901.939 495.825C924.57 589.585 1012.26 686.33 987.507 771.033C960.231 864.383 879.969 950.231 765.65 962.264C651.352 974.294 535.07 882.274 419.766 830.789C314.47 783.773 196.44 753.596 119.191 673.611C41.9282 593.61 -10.4576 488.361 3.09675 399.357C16.005 314.596 131.726 290.204 187.375 225.89Z" fill="#CBE5FD"/>
</svg>
