<svg width="255" height="137" viewBox="0 0 255 137" fill="none" xmlns="http://www.w3.org/2000/svg">
<path d="M4.11384 0.804708C4.30992 0.288407 4.8874 0.0287853 5.40372 0.224846L13.8175 3.4198C14.3338 3.61586 14.5935 4.19335 14.3974 4.70966C14.2013 5.22598 13.6239 5.4856 13.1075 5.28954L5.62859 2.44957L2.78864 9.92852C2.59256 10.4448 2.01507 10.7044 1.49876 10.5084C0.98244 10.3123 0.722826 9.73484 0.918882 9.21852L4.11384 0.804708ZM254.031 133.997C253.359 134.049 252.688 134.1 252.02 134.15L251.871 132.155C252.538 132.105 253.207 132.055 253.877 132.003L254.031 133.997ZM248.032 134.439C246.711 134.533 245.397 134.622 244.09 134.708L243.959 132.713C245.262 132.627 246.573 132.537 247.892 132.444L248.032 134.439ZM240.156 134.959C238.814 135.041 237.48 135.119 236.154 135.194L236.041 133.197C237.364 133.122 238.695 133.044 240.034 132.962L240.156 134.959ZM232.198 135.405C230.882 135.472 229.574 135.535 228.274 135.594L228.184 133.596C229.48 133.537 230.784 133.474 232.097 133.408L232.198 135.405ZM224.261 135.763C222.932 135.815 221.611 135.863 220.298 135.907L220.232 133.908C221.541 133.864 222.858 133.817 224.183 133.765L224.261 135.763ZM216.372 136.024C215.024 136.059 213.686 136.09 212.356 136.116L212.317 134.116C213.642 134.091 214.976 134.06 216.318 134.024L216.372 136.024ZM208.392 136.179C207.07 136.195 205.756 136.206 204.452 136.212L204.443 134.212C205.742 134.206 207.05 134.195 208.367 134.179L208.392 136.179ZM200.44 136.214C199.112 136.209 197.793 136.198 196.483 136.182L196.508 134.182C197.812 134.198 199.125 134.209 200.448 134.214L200.44 136.214ZM192.521 136.116C191.179 136.087 189.847 136.052 188.524 136.011L188.586 134.012C189.902 134.053 191.228 134.088 192.564 134.116L192.521 136.116ZM184.582 135.869C183.243 135.814 181.913 135.752 180.593 135.684L180.697 133.686C182.01 133.754 183.332 133.816 184.664 133.871L184.582 135.869ZM176.619 135.455C175.299 135.371 173.988 135.281 172.688 135.183L172.837 133.189C174.13 133.286 175.433 133.376 176.745 133.459L176.619 135.455ZM168.687 134.857C167.364 134.741 166.051 134.617 164.748 134.485L164.949 132.495C166.244 132.626 167.548 132.749 168.863 132.865L168.687 134.857ZM160.785 134.055C159.456 133.902 158.138 133.74 156.83 133.57L157.089 131.586C158.387 131.756 159.695 131.916 161.014 132.069L160.785 134.055ZM152.912 133.028C151.581 132.833 150.262 132.629 148.952 132.416L149.274 130.442C150.572 130.654 151.881 130.856 153.201 131.049L152.912 133.028ZM145.057 131.747C143.734 131.508 142.422 131.259 141.121 131L141.512 129.038C142.801 129.295 144.101 129.542 145.412 129.779L145.057 131.747ZM137.234 130.187C135.927 129.901 134.632 129.603 133.347 129.295L133.814 127.35C135.085 127.655 136.368 127.95 137.662 128.233L137.234 130.187ZM129.482 128.325C128.191 127.987 126.912 127.638 125.644 127.276L126.193 125.353C127.447 125.71 128.712 126.056 129.989 126.391L129.482 128.325ZM121.816 126.138C120.544 125.744 119.283 125.338 118.033 124.919L118.669 123.023C119.904 123.437 121.15 123.838 122.407 124.228L121.816 126.138ZM114.257 123.602C113.006 123.148 111.766 122.682 110.537 122.201L111.265 120.339C112.479 120.813 113.703 121.274 114.938 121.722L114.257 123.602ZM106.83 120.697C105.604 120.182 104.388 119.652 103.184 119.107L104.007 117.285C105.196 117.822 106.395 118.345 107.605 118.854L106.83 120.697ZM99.5614 117.411C98.3643 116.831 97.1777 116.236 96.0015 115.626L96.9224 113.851C98.0825 114.452 99.2528 115.039 100.434 115.612L99.5614 117.411ZM92.4798 113.737C91.3161 113.092 90.1626 112.431 89.0189 111.755L90.0368 110.034C91.1645 110.7 92.3019 111.352 93.4494 111.988L92.4798 113.737ZM85.6116 109.676C84.4855 108.967 83.3691 108.242 82.2621 107.501L83.3745 105.839C84.4661 106.57 85.5668 107.284 86.6771 107.983L85.6116 109.676ZM78.9805 105.239C77.8958 104.468 76.8201 103.682 75.7531 102.879L76.9556 101.281C78.008 102.073 79.0688 102.848 80.1385 103.608L78.9805 105.239ZM72.605 100.443C71.5644 99.6148 70.5321 98.7706 69.5079 97.91L70.7944 96.3787C71.8052 97.228 72.8237 98.0609 73.8502 98.8777L72.605 100.443ZM66.4972 95.3128C65.5025 94.432 64.5154 93.5351 63.5356 92.622L64.8991 91.1589C65.8667 92.0605 66.8412 92.946 67.8231 93.8154L66.4972 95.3128ZM60.6623 89.8772C59.7144 88.9492 58.7732 88.0054 57.8386 87.0456L59.2715 85.6503C60.1951 86.5988 61.125 87.5313 62.0614 88.448L60.6623 89.8772ZM55.0988 84.1662C54.1976 83.1972 53.3023 82.2126 52.4128 81.2125L53.9072 79.8833C54.787 80.8726 55.6723 81.8461 56.5634 82.8042L55.0988 84.1662ZM49.7993 78.21C48.9439 77.206 48.0937 76.187 47.2485 75.153L48.797 73.8873C49.6337 74.9109 50.4752 75.9194 51.3217 76.9129L49.7993 78.21ZM44.7518 72.0363C43.9407 71.0034 43.1341 69.9562 42.3318 68.8945L43.9275 67.6888C44.7224 68.7407 45.5214 69.7781 46.3247 70.8011L44.7518 72.0363ZM39.9406 65.67C39.1719 64.6139 38.4071 63.5442 37.646 62.4607L39.2825 61.3111C40.0373 62.3856 40.7956 63.4462 41.5576 64.493L39.9406 65.67ZM35.3732 59.1687C34.6364 58.0828 33.9028 56.9836 33.1724 55.871L34.8443 54.7734C35.5692 55.8777 36.2971 56.9684 37.0282 58.0457L35.3732 59.1687ZM31.015 52.5317C30.3045 51.4143 29.5968 50.284 28.8919 49.1405L30.5943 48.0909C31.2945 49.2266 31.9972 50.3491 32.7027 51.4585L31.015 52.5317ZM26.8432 45.7681C26.1627 44.6315 25.4846 43.4824 24.8087 42.3208L26.5375 41.315C27.2092 42.4696 27.883 43.6115 28.5591 44.7408L26.8432 45.7681ZM22.8384 38.8874C22.1914 37.7446 21.5463 36.5901 20.9031 35.4238L22.6544 34.4579C23.2941 35.6179 23.9356 36.7659 24.5788 37.902L22.8384 38.8874ZM18.9821 31.8955C18.3664 30.7501 17.7522 29.5936 17.1394 28.426L18.9104 27.4966C19.5201 28.6585 20.1312 29.8091 20.7437 30.9485L18.9821 31.8955ZM15.3052 24.8897C14.7024 23.7138 14.1008 22.527 13.5004 21.3291L15.2884 20.4329C15.8861 21.6255 16.485 22.8069 17.085 23.9773L15.3052 24.8897ZM11.7504 17.7999C11.1681 16.613 10.5868 15.4155 10.0064 14.2075L11.8091 13.3413C12.3872 14.5445 12.9662 15.7371 13.546 16.919L11.7504 17.7999ZM8.29849 10.6172C7.74198 9.43565 7.1862 8.24426 6.63104 7.04294L8.44656 6.20394C8.99972 7.40094 9.55345 8.58793 10.1078 9.76498L8.29849 10.6172ZM4.96731 3.40913C4.6903 2.7985 4.41341 2.18537 4.13664 1.56974L5.9608 0.749683C6.23663 1.36326 6.51258 1.97432 6.78865 2.58286L4.96731 3.40913ZM4.11384 0.804708C4.30992 0.288407 4.8874 0.0287853 5.40372 0.224846L13.8175 3.4198C14.3338 3.61586 14.5935 4.19335 14.3974 4.70966C14.2013 5.22598 13.6239 5.4856 13.1075 5.28954L5.62859 2.44957L2.78864 9.92852C2.59256 10.4448 2.01507 10.7044 1.49876 10.5084C0.98244 10.3123 0.722826 9.73484 0.918882 9.21852L4.11384 0.804708ZM254.031 133.997C253.359 134.049 252.688 134.1 252.02 134.15L251.871 132.155C252.538 132.105 253.207 132.055 253.877 132.003L254.031 133.997ZM248.032 134.439C246.711 134.533 245.397 134.622 244.09 134.708L243.959 132.713C245.262 132.627 246.573 132.537 247.892 132.444L248.032 134.439ZM240.156 134.959C238.814 135.041 237.48 135.119 236.154 135.194L236.041 133.197C237.364 133.122 238.695 133.044 240.034 132.962L240.156 134.959ZM232.198 135.405C230.882 135.472 229.574 135.535 228.274 135.594L228.184 133.596C229.48 133.537 230.784 133.474 232.097 133.408L232.198 135.405ZM224.261 135.763C222.932 135.815 221.611 135.863 220.298 135.907L220.232 133.908C221.541 133.864 222.858 133.817 224.183 133.765L224.261 135.763ZM216.372 136.024C215.024 136.059 213.686 136.09 212.356 136.116L212.317 134.116C213.642 134.091 214.976 134.06 216.318 134.024L216.372 136.024ZM208.392 136.179C207.07 136.195 205.756 136.206 204.452 136.212L204.443 134.212C205.742 134.206 207.05 134.195 208.367 134.179L208.392 136.179ZM200.44 136.214C199.112 136.209 197.793 136.198 196.483 136.182L196.508 134.182C197.812 134.198 199.125 134.209 200.448 134.214L200.44 136.214ZM192.521 136.116C191.179 136.087 189.847 136.052 188.524 136.011L188.586 134.012C189.902 134.053 191.228 134.088 192.564 134.116L192.521 136.116ZM184.582 135.869C183.243 135.814 181.913 135.752 180.593 135.684L180.697 133.686C182.01 133.754 183.332 133.816 184.664 133.871L184.582 135.869ZM176.619 135.455C175.299 135.371 173.988 135.281 172.688 135.183L172.837 133.189C174.13 133.286 175.433 133.376 176.745 133.459L176.619 135.455ZM168.687 134.857C167.364 134.741 166.051 134.617 164.748 134.485L164.949 132.495C166.244 132.626 167.548 132.749 168.863 132.865L168.687 134.857ZM160.785 134.055C159.456 133.902 158.138 133.74 156.83 133.57L157.089 131.586C158.387 131.756 159.695 131.916 161.014 132.069L160.785 134.055ZM152.912 133.028C151.581 132.833 150.262 132.629 148.952 132.416L149.274 130.442C150.572 130.654 151.881 130.856 153.201 131.049L152.912 133.028ZM145.057 131.747C143.734 131.508 142.422 131.259 141.121 131L141.512 129.038C142.801 129.295 144.101 129.542 145.412 129.779L145.057 131.747ZM137.234 130.187C135.927 129.901 134.632 129.603 133.347 129.295L133.814 127.35C135.085 127.655 136.368 127.95 137.662 128.233L137.234 130.187ZM129.482 128.325C128.191 127.987 126.912 127.638 125.644 127.276L126.193 125.353C127.447 125.71 128.712 126.056 129.989 126.391L129.482 128.325ZM121.816 126.138C120.544 125.744 119.283 125.338 118.033 124.919L118.669 123.023C119.904 123.437 121.15 123.838 122.407 124.228L121.816 126.138ZM114.257 123.602C113.006 123.148 111.766 122.682 110.537 122.201L111.265 120.339C112.479 120.813 113.703 121.274 114.938 121.722L114.257 123.602ZM106.83 120.697C105.604 120.182 104.388 119.652 103.184 119.107L104.007 117.285C105.196 117.822 106.395 118.345 107.605 118.854L106.83 120.697ZM99.5614 117.411C98.3643 116.831 97.1777 116.236 96.0015 115.626L96.9224 113.851C98.0825 114.452 99.2528 115.039 100.434 115.612L99.5614 117.411ZM92.4798 113.737C91.3161 113.092 90.1626 112.431 89.0189 111.755L90.0368 110.034C91.1645 110.7 92.3019 111.352 93.4494 111.988L92.4798 113.737ZM85.6116 109.676C84.4855 108.967 83.3691 108.242 82.2621 107.501L83.3745 105.839C84.4661 106.57 85.5668 107.284 86.6771 107.983L85.6116 109.676ZM78.9805 105.239C77.8958 104.468 76.8201 103.682 75.7531 102.879L76.9556 101.281C78.008 102.073 79.0688 102.848 80.1385 103.608L78.9805 105.239ZM72.605 100.443C71.5644 99.6148 70.5321 98.7706 69.5079 97.91L70.7944 96.3787C71.8052 97.228 72.8237 98.0609 73.8502 98.8777L72.605 100.443ZM66.4972 95.3128C65.5025 94.432 64.5154 93.5351 63.5356 92.622L64.8991 91.1589C65.8667 92.0605 66.8412 92.946 67.8231 93.8154L66.4972 95.3128ZM60.6623 89.8772C59.7144 88.9492 58.7732 88.0054 57.8386 87.0456L59.2715 85.6503C60.1951 86.5988 61.125 87.5313 62.0614 88.448L60.6623 89.8772ZM55.0988 84.1662C54.1976 83.1972 53.3023 82.2126 52.4128 81.2125L53.9072 79.8833C54.787 80.8726 55.6723 81.8461 56.5634 82.8042L55.0988 84.1662ZM49.7993 78.21C48.9439 77.206 48.0937 76.187 47.2485 75.153L48.797 73.8873C49.6337 74.9109 50.4752 75.9194 51.3217 76.9129L49.7993 78.21ZM44.7518 72.0363C43.9407 71.0034 43.1341 69.9562 42.3318 68.8945L43.9275 67.6888C44.7224 68.7407 45.5214 69.7781 46.3247 70.8011L44.7518 72.0363ZM39.9406 65.67C39.1719 64.6139 38.4071 63.5442 37.646 62.4607L39.2825 61.3111C40.0373 62.3856 40.7956 63.4462 41.5576 64.493L39.9406 65.67ZM35.3732 59.1687C34.6364 58.0828 33.9028 56.9836 33.1724 55.871L34.8443 54.7734C35.5692 55.8777 36.2971 56.9684 37.0282 58.0457L35.3732 59.1687ZM31.015 52.5317C30.3045 51.4143 29.5968 50.284 28.8919 49.1405L30.5943 48.0909C31.2945 49.2266 31.9972 50.3491 32.7027 51.4585L31.015 52.5317ZM26.8432 45.7681C26.1627 44.6315 25.4846 43.4824 24.8087 42.3208L26.5375 41.315C27.2092 42.4696 27.883 43.6115 28.5591 44.7408L26.8432 45.7681ZM22.8384 38.8874C22.1914 37.7446 21.5463 36.5901 20.9031 35.4238L22.6544 34.4579C23.2941 35.6179 23.9356 36.7659 24.5788 37.902L22.8384 38.8874ZM18.9821 31.8955C18.3664 30.7501 17.7522 29.5936 17.1394 28.426L18.9104 27.4966C19.5201 28.6585 20.1312 29.8091 20.7437 30.9485L18.9821 31.8955ZM15.3052 24.8897C14.7024 23.7138 14.1008 22.527 13.5004 21.3291L15.2884 20.4329C15.8861 21.6255 16.485 22.8069 17.085 23.9773L15.3052 24.8897ZM11.7504 17.7999C11.1681 16.613 10.5868 15.4155 10.0064 14.2075L11.8091 13.3413C12.3872 14.5445 12.9662 15.7371 13.546 16.919L11.7504 17.7999ZM8.29849 10.6172C7.74198 9.43565 7.1862 8.24426 6.63104 7.04294L8.44656 6.20394C8.99972 7.40094 9.55345 8.58793 10.1078 9.76498L8.29849 10.6172ZM4.96731 3.40913C4.6903 2.7985 4.41341 2.18537 4.13664 1.56974L5.9608 0.749683C6.23663 1.36326 6.51258 1.97432 6.78865 2.58286L4.96731 3.40913Z" fill="#666666"/>
</svg>
