<svg width="173" height="100" viewBox="0 0 173 100" fill="none" xmlns="http://www.w3.org/2000/svg">
<path d="M167.989 0.500893C167.714 0.0223605 167.102 -0.142042 166.624 0.133684L158.826 4.62696C158.347 4.90269 158.183 5.51414 158.458 5.99267C158.734 6.4712 159.346 6.63561 159.824 6.35987L166.756 2.36585L170.75 9.2975C171.025 9.77603 171.637 9.94044 172.115 9.6647C172.594 9.38898 172.758 8.77753 172.483 8.29899L167.989 0.500893ZM0.771517 89.9657C1.42722 90.1196 2.08031 90.2718 2.7308 90.4224L3.18177 88.4739C2.53331 88.3238 1.88222 88.1721 1.22848 88.0186L0.771517 89.9657ZM6.60262 91.3056C7.88607 91.594 9.15917 91.8755 10.422 92.1502L10.8471 90.1959C9.58884 89.9222 8.32019 89.6416 7.04106 89.3542L6.60262 91.3056ZM14.3364 92.9864C15.6301 93.2575 16.9129 93.5212 18.1848 93.7771L18.5794 91.8164C17.3128 91.5616 16.0353 91.299 14.7467 91.0289L14.3364 92.9864ZM22.0896 94.5453C23.3958 94.7963 24.6904 95.0388 25.9733 95.2727L26.332 93.3051C25.0555 93.0724 23.7671 92.831 22.4669 92.5813L22.0896 94.5453ZM29.8704 95.9628C31.1877 96.189 32.4926 96.4058 33.7851 96.6129L34.1015 94.6381C32.8166 94.4322 31.5191 94.2167 30.2089 93.9917L29.8704 95.9628ZM37.6852 97.214C39.0118 97.4102 40.325 97.5957 41.6251 97.7704L41.8915 95.7882C40.6004 95.6147 39.2959 95.4305 37.9778 95.2356L37.6852 97.214ZM45.5383 98.2682C46.8716 98.428 48.1907 98.5758 49.4958 98.7114L49.7026 96.7222C48.4082 96.5876 47.0995 96.441 45.7763 96.2824L45.5383 98.2682ZM53.43 99.087C54.7668 99.2029 56.0885 99.3054 57.3955 99.3942L57.531 97.3988C56.2369 97.3109 54.9276 97.2094 53.6029 97.0945L53.43 99.087ZM61.3557 99.6232C62.692 99.6866 64.0123 99.7348 65.317 99.7676L65.3673 97.7683C64.0779 97.7359 62.7724 97.6882 61.4505 97.6255L61.3557 99.6232ZM69.3036 99.8197C70.6342 99.8205 71.9482 99.8042 73.2457 99.7705L73.1938 97.7712C71.9145 97.8044 70.6183 97.8205 69.3048 97.8197L69.3036 99.8197ZM77.2523 99.6083C78.5902 99.534 79.9102 99.44 81.2125 99.3259L81.0379 97.3335C79.7575 97.4457 78.4588 97.5382 77.1414 97.6113L77.2523 99.6083ZM85.1691 98.9106C86.5083 98.746 87.8282 98.5586 89.1292 98.3481L88.8097 96.3738C87.5345 96.5801 86.2399 96.7639 84.9252 96.9255L85.1691 98.9106ZM93.0421 97.6332C94.3593 97.3641 95.6564 97.0695 96.934 96.7488L96.447 94.809C95.1989 95.1223 93.9307 95.4104 92.6418 95.6737L93.0421 97.6332ZM100.794 95.6824C102.079 95.2939 103.343 94.877 104.586 94.4312L103.912 92.5485C102.7 92.9827 101.468 93.3891 100.215 93.768L100.794 95.6824ZM108.308 92.9857C109.547 92.4661 110.765 91.9154 111.963 91.3332L111.088 89.5344C109.924 90.1003 108.74 90.6359 107.535 91.1414L108.308 92.9857ZM115.512 89.4822C116.678 88.8314 117.824 88.1482 118.95 87.4321L117.877 85.7443C116.783 86.4399 115.67 87.1035 114.537 87.7358L115.512 89.4822ZM122.269 85.1863C123.348 84.4108 124.408 83.6027 125.449 82.7617L124.193 81.2056C123.18 82.0235 122.15 82.8089 121.102 83.5624L122.269 85.1863ZM128.491 80.1652C129.476 79.277 130.445 78.3568 131.397 77.4043L129.982 75.9904C129.055 76.9188 128.111 77.815 127.152 78.6796L128.491 80.1652ZM134.149 74.511C135.032 73.5363 135.9 72.5315 136.755 71.4964L135.212 70.2233C134.377 71.2353 133.529 72.2169 132.667 73.1683L134.149 74.511ZM139.234 68.3553C140.026 67.3071 140.805 66.2308 141.573 65.1261L139.93 63.9849C139.178 65.0685 138.414 66.1233 137.638 67.1498L139.234 68.3553ZM143.778 61.823C144.49 60.7137 145.192 59.5783 145.884 58.4164L144.165 57.3935C143.485 58.5366 142.795 59.6528 142.095 60.7425L143.778 61.823ZM147.856 54.9822C148.491 53.8374 149.117 52.6688 149.734 51.4762L147.959 50.5562C147.349 51.7327 146.732 52.8847 146.107 54.0125L147.856 54.9822ZM151.522 47.9116C152.09 46.7416 152.651 45.55 153.206 44.3366L151.386 43.5054C150.838 44.705 150.284 45.8825 149.723 47.0379L151.522 47.9116ZM154.83 40.6736C155.342 39.4852 155.848 38.2771 156.349 37.0492L154.497 36.2941C154.001 37.5103 153.5 38.7063 152.994 39.8823L154.83 40.6736ZM157.828 33.3242C158.294 32.1184 158.755 30.8945 159.211 29.6523L157.334 28.9621C156.881 30.1943 156.424 31.408 155.962 32.6032L157.828 33.3242ZM160.564 25.8816C160.991 24.6621 161.414 23.4258 161.834 22.1726L159.937 21.5379C159.521 22.7826 159.101 24.0101 158.677 25.2206L160.564 25.8816ZM163.081 18.3622C163.474 17.133 163.864 15.8883 164.252 14.6279L162.34 14.0408C161.955 15.2938 161.567 16.531 161.176 17.7525L163.081 18.3622ZM165.402 10.8042C165.769 9.56054 166.133 8.30221 166.495 7.02919L164.571 6.48284C164.211 7.74955 163.849 9.00137 163.484 10.2384L165.402 10.8042ZM167.561 3.2046C167.737 2.55997 167.913 1.9117 168.089 1.2598L166.157 0.740489C165.983 1.38952 165.808 2.03486 165.632 2.67653L167.561 3.2046ZM167.989 0.500893C167.714 0.0223605 167.102 -0.142042 166.624 0.133684L158.826 4.62696C158.347 4.90269 158.183 5.51414 158.458 5.99267C158.734 6.4712 159.346 6.63561 159.824 6.35987L166.756 2.36585L170.75 9.2975C171.025 9.77603 171.637 9.94044 172.115 9.6647C172.594 9.38898 172.758 8.77753 172.483 8.29899L167.989 0.500893ZM0.771517 89.9657C1.42722 90.1196 2.08031 90.2718 2.7308 90.4224L3.18177 88.4739C2.53331 88.3238 1.88222 88.1721 1.22848 88.0186L0.771517 89.9657ZM6.60262 91.3056C7.88607 91.594 9.15917 91.8755 10.422 92.1502L10.8471 90.1959C9.58884 89.9222 8.32019 89.6416 7.04106 89.3542L6.60262 91.3056ZM14.3364 92.9864C15.6301 93.2575 16.9129 93.5212 18.1848 93.7771L18.5794 91.8164C17.3128 91.5616 16.0353 91.299 14.7467 91.0289L14.3364 92.9864ZM22.0896 94.5453C23.3958 94.7963 24.6904 95.0388 25.9733 95.2727L26.332 93.3051C25.0555 93.0724 23.7671 92.831 22.4669 92.5813L22.0896 94.5453ZM29.8704 95.9628C31.1877 96.189 32.4926 96.4058 33.7851 96.6129L34.1015 94.6381C32.8166 94.4322 31.5191 94.2167 30.2089 93.9917L29.8704 95.9628ZM37.6852 97.214C39.0118 97.4102 40.325 97.5957 41.6251 97.7704L41.8915 95.7882C40.6004 95.6147 39.2959 95.4305 37.9778 95.2356L37.6852 97.214ZM45.5383 98.2682C46.8716 98.428 48.1907 98.5758 49.4958 98.7114L49.7026 96.7222C48.4082 96.5876 47.0995 96.441 45.7763 96.2824L45.5383 98.2682ZM53.43 99.087C54.7668 99.2029 56.0885 99.3054 57.3955 99.3942L57.531 97.3988C56.2369 97.3109 54.9276 97.2094 53.6029 97.0945L53.43 99.087ZM61.3557 99.6232C62.692 99.6866 64.0123 99.7348 65.317 99.7676L65.3673 97.7683C64.0779 97.7359 62.7724 97.6882 61.4505 97.6255L61.3557 99.6232ZM69.3036 99.8197C70.6342 99.8205 71.9482 99.8042 73.2457 99.7705L73.1938 97.7712C71.9145 97.8044 70.6183 97.8205 69.3048 97.8197L69.3036 99.8197ZM77.2523 99.6083C78.5902 99.534 79.9102 99.44 81.2125 99.3259L81.0379 97.3335C79.7575 97.4457 78.4588 97.5382 77.1414 97.6113L77.2523 99.6083ZM85.1691 98.9106C86.5083 98.746 87.8282 98.5586 89.1292 98.3481L88.8097 96.3738C87.5345 96.5801 86.2399 96.7639 84.9252 96.9255L85.1691 98.9106ZM93.0421 97.6332C94.3593 97.3641 95.6564 97.0695 96.934 96.7488L96.447 94.809C95.1989 95.1223 93.9307 95.4104 92.6418 95.6737L93.0421 97.6332ZM100.794 95.6824C102.079 95.2939 103.343 94.877 104.586 94.4312L103.912 92.5485C102.7 92.9827 101.468 93.3891 100.215 93.768L100.794 95.6824ZM108.308 92.9857C109.547 92.4661 110.765 91.9154 111.963 91.3332L111.088 89.5344C109.924 90.1003 108.74 90.6359 107.535 91.1414L108.308 92.9857ZM115.512 89.4822C116.678 88.8314 117.824 88.1482 118.95 87.4321L117.877 85.7443C116.783 86.4399 115.67 87.1035 114.537 87.7358L115.512 89.4822ZM122.269 85.1863C123.348 84.4108 124.408 83.6027 125.449 82.7617L124.193 81.2056C123.18 82.0235 122.15 82.8089 121.102 83.5624L122.269 85.1863ZM128.491 80.1652C129.476 79.277 130.445 78.3568 131.397 77.4043L129.982 75.9904C129.055 76.9188 128.111 77.815 127.152 78.6796L128.491 80.1652ZM134.149 74.511C135.032 73.5363 135.9 72.5315 136.755 71.4964L135.212 70.2233C134.377 71.2353 133.529 72.2169 132.667 73.1683L134.149 74.511ZM139.234 68.3553C140.026 67.3071 140.805 66.2308 141.573 65.1261L139.93 63.9849C139.178 65.0685 138.414 66.1233 137.638 67.1498L139.234 68.3553ZM143.778 61.823C144.49 60.7137 145.192 59.5783 145.884 58.4164L144.165 57.3935C143.485 58.5366 142.795 59.6528 142.095 60.7425L143.778 61.823ZM147.856 54.9822C148.491 53.8374 149.117 52.6688 149.734 51.4762L147.959 50.5562C147.349 51.7327 146.732 52.8847 146.107 54.0125L147.856 54.9822ZM151.522 47.9116C152.09 46.7416 152.651 45.55 153.206 44.3366L151.386 43.5054C150.838 44.705 150.284 45.8825 149.723 47.0379L151.522 47.9116ZM154.83 40.6736C155.342 39.4852 155.848 38.2771 156.349 37.0492L154.497 36.2941C154.001 37.5103 153.5 38.7063 152.994 39.8823L154.83 40.6736ZM157.828 33.3242C158.294 32.1184 158.755 30.8945 159.211 29.6523L157.334 28.9621C156.881 30.1943 156.424 31.408 155.962 32.6032L157.828 33.3242ZM160.564 25.8816C160.991 24.6621 161.414 23.4258 161.834 22.1726L159.937 21.5379C159.521 22.7826 159.101 24.0101 158.677 25.2206L160.564 25.8816ZM163.081 18.3622C163.474 17.133 163.864 15.8883 164.252 14.6279L162.34 14.0408C161.955 15.2938 161.567 16.531 161.176 17.7525L163.081 18.3622ZM165.402 10.8042C165.769 9.56054 166.133 8.30221 166.495 7.02919L164.571 6.48284C164.211 7.74955 163.849 9.00137 163.484 10.2384L165.402 10.8042ZM167.561 3.2046C167.737 2.55997 167.913 1.9117 168.089 1.2598L166.157 0.740489C165.983 1.38952 165.808 2.03486 165.632 2.67653L167.561 3.2046Z" fill="#666666"/>
</svg>
