<svg width="254" height="137" viewBox="0 0 254 137" fill="none" xmlns="http://www.w3.org/2000/svg">
<path d="M4.01936 0.644552C4.21544 0.128251 4.79292 -0.131371 5.30924 0.0646895L13.723 3.25964C14.2394 3.4557 14.499 4.03319 14.3029 4.54951C14.1069 5.06582 13.5294 5.32544 13.0131 5.12938L5.53411 2.28942L2.69416 9.76837C2.49807 10.2847 1.92059 10.5443 1.40427 10.3482C0.887957 10.1522 0.628343 9.57468 0.824399 9.05836L4.01936 0.644552ZM253.936 133.837C253.264 133.889 252.594 133.939 251.925 133.989L251.776 131.995C252.443 131.945 253.112 131.894 253.783 131.843L253.936 133.837ZM247.938 134.279C246.616 134.372 245.302 134.462 243.996 134.548L243.864 132.553C245.168 132.467 246.479 132.377 247.797 132.284L247.938 134.279ZM240.062 134.798C238.72 134.881 237.385 134.959 236.059 135.033L235.947 133.037C237.27 132.962 238.601 132.884 239.94 132.802L240.062 134.798ZM232.104 135.245C230.788 135.312 229.48 135.375 228.179 135.433L228.089 133.435C229.386 133.377 230.69 133.314 232.002 133.247L232.104 135.245ZM224.167 135.603C222.838 135.655 221.517 135.703 220.204 135.746L220.138 133.747C221.446 133.704 222.763 133.657 224.088 133.605L224.167 135.603ZM216.277 135.863C214.93 135.899 213.591 135.93 212.261 135.956L212.222 133.956C213.547 133.93 214.881 133.9 216.224 133.864L216.277 135.863ZM208.297 136.019C206.975 136.035 205.662 136.046 204.357 136.052L204.348 134.052C205.648 134.046 206.956 134.035 208.273 134.019L208.297 136.019ZM200.346 136.054C199.018 136.049 197.699 136.038 196.389 136.022L196.413 134.022C197.718 134.038 199.031 134.049 200.353 134.054L200.346 136.054ZM192.427 135.955C191.085 135.927 189.752 135.892 188.429 135.851L188.491 133.852C189.808 133.893 191.134 133.927 192.47 133.956L192.427 135.955ZM184.487 135.709C183.148 135.654 181.819 135.592 180.499 135.523L180.603 133.526C181.915 133.594 183.237 133.656 184.57 133.71L184.487 135.709ZM176.525 135.295C175.204 135.211 173.894 135.121 172.593 135.023L172.743 133.028C174.036 133.126 175.338 133.216 176.651 133.299L176.525 135.295ZM168.593 134.697C167.27 134.581 165.957 134.456 164.653 134.324L164.855 132.335C166.149 132.466 167.453 132.589 168.768 132.705L168.593 134.697ZM160.69 133.895C159.362 133.742 158.043 133.58 156.736 133.409L156.994 131.426C158.292 131.595 159.601 131.756 160.92 131.908L160.69 133.895ZM152.818 132.868C151.487 132.673 150.167 132.469 148.858 132.256L149.18 130.282C150.478 130.494 151.787 130.696 153.107 130.889L152.818 132.868ZM144.962 131.587C143.64 131.348 142.328 131.099 141.027 130.84L141.418 128.878C142.707 129.135 144.007 129.382 145.318 129.619L144.962 131.587ZM137.14 130.027C135.833 129.74 134.537 129.443 133.252 129.135L133.719 127.19C134.991 127.495 136.274 127.79 137.568 128.073L137.14 130.027ZM129.387 128.165C128.097 127.827 126.818 127.478 125.55 127.116L126.098 125.193C127.352 125.55 128.618 125.896 129.894 126.231L129.387 128.165ZM121.721 125.978C120.449 125.584 119.188 125.178 117.939 124.759L118.574 122.862C119.809 123.276 121.055 123.678 122.313 124.067L121.721 125.978ZM114.162 123.442C112.912 122.988 111.672 122.522 110.443 122.041L111.171 120.178C112.384 120.653 113.608 121.114 114.844 121.561L114.162 123.442ZM106.735 120.537C105.509 120.021 104.294 119.491 103.089 118.947L103.913 117.124C105.102 117.662 106.301 118.185 107.511 118.694L106.735 120.537ZM99.467 117.251C98.2698 116.671 97.0833 116.076 95.907 115.466L96.8279 113.69C97.988 114.292 99.1584 114.879 100.339 115.451L99.467 117.251ZM92.3853 113.577C91.2216 112.932 90.0681 112.271 88.9244 111.595L89.9423 109.874C91.07 110.54 92.2074 111.192 93.3549 111.828L92.3853 113.577ZM85.5171 109.516C84.3911 108.807 83.2747 108.082 82.1676 107.341L83.28 105.679C84.3716 106.41 85.4724 107.124 86.5827 107.823L85.5171 109.516ZM78.886 105.078C77.8013 104.308 76.7256 103.522 75.6586 102.719L76.8611 101.121C77.9135 101.912 78.9743 102.688 80.044 103.448L78.886 105.078ZM72.5105 100.283C71.4699 99.4546 70.4376 98.6104 69.4134 97.7499L70.7 96.2186C71.7107 97.0678 72.7292 97.9007 73.7558 98.7175L72.5105 100.283ZM66.4027 95.1526C65.408 94.2718 64.4209 93.375 63.4411 92.4618L64.8047 90.9987C65.7722 91.9004 66.7468 92.7858 67.7286 93.6552L66.4027 95.1526ZM60.5678 89.717C59.6199 88.7891 58.6788 87.8453 57.7441 86.8854L59.177 85.4901C60.1006 86.4387 61.0305 87.3712 61.9669 88.2878L60.5678 89.717ZM55.0043 84.0061C54.1031 83.037 53.2078 82.0525 52.3183 81.0524L53.8127 79.7232C54.6925 80.7124 55.5778 81.686 56.4689 82.644L55.0043 84.0061ZM49.7049 78.0498C48.8494 77.0458 47.9992 76.0269 47.154 74.9929L48.7025 73.7271C49.5392 74.7508 50.3807 75.7593 51.2272 76.7528L49.7049 78.0498ZM44.6573 71.8762C43.8462 70.8433 43.0396 69.7961 42.2373 68.7344L43.833 67.5286C44.6279 68.5806 45.427 69.618 46.2303 70.641L44.6573 71.8762ZM39.8461 65.5098C39.0774 64.4538 38.3126 63.3841 37.5515 62.3006L39.188 61.1509C39.9429 62.2254 40.7012 63.286 41.4631 64.3328L39.8461 65.5098ZM35.2787 59.0086C34.5419 57.9227 33.8083 56.8235 33.0779 55.7109L34.7498 54.6133C35.4747 55.7175 36.2027 56.8082 36.9337 57.8856L35.2787 59.0086ZM30.9205 52.3715C30.21 51.2542 29.5023 50.1238 28.7974 48.9803L30.4998 47.9307C31.2 49.0665 31.9028 50.189 32.6082 51.2983L30.9205 52.3715ZM26.7487 45.6079C26.0682 44.4714 25.3901 43.3223 24.7143 42.1606L26.443 41.1548C27.1147 42.3094 27.7885 43.4513 28.4647 44.5806L26.7487 45.6079ZM22.7439 38.7272C22.0969 37.5845 21.4519 36.43 20.8086 35.2636L22.5599 34.2977C23.1997 35.4577 23.8411 36.6057 24.4843 37.7419L22.7439 38.7272ZM18.8876 31.7353C18.2719 30.5899 17.6577 29.4335 17.0449 28.2659L18.8159 27.3365C19.4256 28.4983 20.0367 29.6489 20.6492 30.7883L18.8876 31.7353ZM15.2108 24.7296C14.6079 23.5537 14.0064 22.3668 13.4059 21.1689L15.1939 20.2727C15.7917 21.4653 16.3905 22.6468 16.9905 23.8172L15.2108 24.7296ZM11.656 17.6397C11.0737 16.4528 10.4923 15.2554 9.91189 14.0473L11.7146 13.1811C12.2927 14.3844 12.8717 15.5769 13.4515 16.7588L11.656 17.6397ZM8.20401 10.457C7.6475 9.27549 7.09172 8.0841 6.53656 6.88278L8.35208 6.04379C8.90524 7.24078 9.45896 8.42777 10.0134 9.60483L8.20401 10.457ZM4.87283 3.24897C4.59582 2.63835 4.31893 2.02522 4.04215 1.40958L5.86632 0.589526C6.14214 1.2031 6.4181 1.81416 6.69417 2.42271L4.87283 3.24897ZM4.01936 0.644552C4.21544 0.128251 4.79292 -0.131371 5.30924 0.0646895L13.723 3.25964C14.2394 3.4557 14.499 4.03319 14.3029 4.54951C14.1069 5.06582 13.5294 5.32544 13.0131 5.12938L5.53411 2.28942L2.69416 9.76837C2.49807 10.2847 1.92059 10.5443 1.40427 10.3482C0.887957 10.1522 0.628343 9.57468 0.824399 9.05836L4.01936 0.644552ZM253.936 133.837C253.264 133.889 252.594 133.939 251.925 133.989L251.776 131.995C252.443 131.945 253.112 131.894 253.783 131.843L253.936 133.837ZM247.938 134.279C246.616 134.372 245.302 134.462 243.996 134.548L243.864 132.553C245.168 132.467 246.479 132.377 247.797 132.284L247.938 134.279ZM240.062 134.798C238.72 134.881 237.385 134.959 236.059 135.033L235.947 133.037C237.27 132.962 238.601 132.884 239.94 132.802L240.062 134.798ZM232.104 135.245C230.788 135.312 229.48 135.375 228.179 135.433L228.089 133.435C229.386 133.377 230.69 133.314 232.002 133.247L232.104 135.245ZM224.167 135.603C222.838 135.655 221.517 135.703 220.204 135.746L220.138 133.747C221.446 133.704 222.763 133.657 224.088 133.605L224.167 135.603ZM216.277 135.863C214.93 135.899 213.591 135.93 212.261 135.956L212.222 133.956C213.547 133.93 214.881 133.9 216.224 133.864L216.277 135.863ZM208.297 136.019C206.975 136.035 205.662 136.046 204.357 136.052L204.348 134.052C205.648 134.046 206.956 134.035 208.273 134.019L208.297 136.019ZM200.346 136.054C199.018 136.049 197.699 136.038 196.389 136.022L196.413 134.022C197.718 134.038 199.031 134.049 200.353 134.054L200.346 136.054ZM192.427 135.955C191.085 135.927 189.752 135.892 188.429 135.851L188.491 133.852C189.808 133.893 191.134 133.927 192.47 133.956L192.427 135.955ZM184.487 135.709C183.148 135.654 181.819 135.592 180.499 135.523L180.603 133.526C181.915 133.594 183.237 133.656 184.57 133.71L184.487 135.709ZM176.525 135.295C175.204 135.211 173.894 135.121 172.593 135.023L172.743 133.028C174.036 133.126 175.338 133.216 176.651 133.299L176.525 135.295ZM168.593 134.697C167.27 134.581 165.957 134.456 164.653 134.324L164.855 132.335C166.149 132.466 167.453 132.589 168.768 132.705L168.593 134.697ZM160.69 133.895C159.362 133.742 158.043 133.58 156.736 133.409L156.994 131.426C158.292 131.595 159.601 131.756 160.92 131.908L160.69 133.895ZM152.818 132.868C151.487 132.673 150.167 132.469 148.858 132.256L149.18 130.282C150.478 130.494 151.787 130.696 153.107 130.889L152.818 132.868ZM144.962 131.587C143.64 131.348 142.328 131.099 141.027 130.84L141.418 128.878C142.707 129.135 144.007 129.382 145.318 129.619L144.962 131.587ZM137.14 130.027C135.833 129.74 134.537 129.443 133.252 129.135L133.719 127.19C134.991 127.495 136.274 127.79 137.568 128.073L137.14 130.027ZM129.387 128.165C128.097 127.827 126.818 127.478 125.55 127.116L126.098 125.193C127.352 125.55 128.618 125.896 129.894 126.231L129.387 128.165ZM121.721 125.978C120.449 125.584 119.188 125.178 117.939 124.759L118.574 122.862C119.809 123.276 121.055 123.678 122.313 124.067L121.721 125.978ZM114.162 123.442C112.912 122.988 111.672 122.522 110.443 122.041L111.171 120.178C112.384 120.653 113.608 121.114 114.844 121.561L114.162 123.442ZM106.735 120.537C105.509 120.021 104.294 119.491 103.089 118.947L103.913 117.124C105.102 117.662 106.301 118.185 107.511 118.694L106.735 120.537ZM99.467 117.251C98.2698 116.671 97.0833 116.076 95.907 115.466L96.8279 113.69C97.988 114.292 99.1584 114.879 100.339 115.451L99.467 117.251ZM92.3853 113.577C91.2216 112.932 90.0681 112.271 88.9244 111.595L89.9423 109.874C91.07 110.54 92.2074 111.192 93.3549 111.828L92.3853 113.577ZM85.5171 109.516C84.3911 108.807 83.2747 108.082 82.1676 107.341L83.28 105.679C84.3716 106.41 85.4724 107.124 86.5827 107.823L85.5171 109.516ZM78.886 105.078C77.8013 104.308 76.7256 103.522 75.6586 102.719L76.8611 101.121C77.9135 101.912 78.9743 102.688 80.044 103.448L78.886 105.078ZM72.5105 100.283C71.4699 99.4546 70.4376 98.6104 69.4134 97.7499L70.7 96.2186C71.7107 97.0678 72.7292 97.9007 73.7558 98.7175L72.5105 100.283ZM66.4027 95.1526C65.408 94.2718 64.4209 93.375 63.4411 92.4618L64.8047 90.9987C65.7722 91.9004 66.7468 92.7858 67.7286 93.6552L66.4027 95.1526ZM60.5678 89.717C59.6199 88.7891 58.6788 87.8453 57.7441 86.8854L59.177 85.4901C60.1006 86.4387 61.0305 87.3712 61.9669 88.2878L60.5678 89.717ZM55.0043 84.0061C54.1031 83.037 53.2078 82.0525 52.3183 81.0524L53.8127 79.7232C54.6925 80.7124 55.5778 81.686 56.4689 82.644L55.0043 84.0061ZM49.7049 78.0498C48.8494 77.0458 47.9992 76.0269 47.154 74.9929L48.7025 73.7271C49.5392 74.7508 50.3807 75.7593 51.2272 76.7528L49.7049 78.0498ZM44.6573 71.8762C43.8462 70.8433 43.0396 69.7961 42.2373 68.7344L43.833 67.5286C44.6279 68.5806 45.427 69.618 46.2303 70.641L44.6573 71.8762ZM39.8461 65.5098C39.0774 64.4538 38.3126 63.3841 37.5515 62.3006L39.188 61.1509C39.9429 62.2254 40.7012 63.286 41.4631 64.3328L39.8461 65.5098ZM35.2787 59.0086C34.5419 57.9227 33.8083 56.8235 33.0779 55.7109L34.7498 54.6133C35.4747 55.7175 36.2027 56.8082 36.9337 57.8856L35.2787 59.0086ZM30.9205 52.3715C30.21 51.2542 29.5023 50.1238 28.7974 48.9803L30.4998 47.9307C31.2 49.0665 31.9028 50.189 32.6082 51.2983L30.9205 52.3715ZM26.7487 45.6079C26.0682 44.4714 25.3901 43.3223 24.7143 42.1606L26.443 41.1548C27.1147 42.3094 27.7885 43.4513 28.4647 44.5806L26.7487 45.6079ZM22.7439 38.7272C22.0969 37.5845 21.4519 36.43 20.8086 35.2636L22.5599 34.2977C23.1997 35.4577 23.8411 36.6057 24.4843 37.7419L22.7439 38.7272ZM18.8876 31.7353C18.2719 30.5899 17.6577 29.4335 17.0449 28.2659L18.8159 27.3365C19.4256 28.4983 20.0367 29.6489 20.6492 30.7883L18.8876 31.7353ZM15.2108 24.7296C14.6079 23.5537 14.0064 22.3668 13.4059 21.1689L15.1939 20.2727C15.7917 21.4653 16.3905 22.6468 16.9905 23.8172L15.2108 24.7296ZM11.656 17.6397C11.0737 16.4528 10.4923 15.2554 9.91189 14.0473L11.7146 13.1811C12.2927 14.3844 12.8717 15.5769 13.4515 16.7588L11.656 17.6397ZM8.20401 10.457C7.6475 9.27549 7.09172 8.0841 6.53656 6.88278L8.35208 6.04379C8.90524 7.24078 9.45896 8.42777 10.0134 9.60483L8.20401 10.457ZM4.87283 3.24897C4.59582 2.63835 4.31893 2.02522 4.04215 1.40958L5.86632 0.589526C6.14214 1.2031 6.4181 1.81416 6.69417 2.42271L4.87283 3.24897Z" fill="#666666"/>
</svg>
