<svg width="225" height="124" viewBox="0 0 225 124" fill="none" xmlns="http://www.w3.org/2000/svg">
<path d="M220.911 0.586986C220.683 0.0840071 220.09 -0.138819 219.587 0.089282L211.39 3.80646C210.888 4.03456 210.665 4.62722 210.893 5.1302C211.121 5.63318 211.714 5.85601 212.217 5.6279L219.502 2.32375L222.806 9.60953C223.035 10.1125 223.627 10.3353 224.13 10.1072C224.633 9.87913 224.856 9.28647 224.628 8.78349L220.911 0.586986ZM0.86434 117.991C1.53552 118.083 2.20456 118.173 2.87147 118.263L3.13801 116.281C2.47271 116.192 1.80526 116.101 1.13566 116.009L0.86434 117.991ZM6.8475 118.788C8.16439 118.958 9.47285 119.124 10.773 119.285L11.0192 117.301C9.72263 117.14 8.41763 116.974 7.10413 116.804L6.8475 118.788ZM14.7323 119.765C16.0684 119.924 17.3955 120.077 18.7137 120.225L18.9369 118.237C17.6227 118.09 16.2996 117.937 14.9674 117.779L14.7323 119.765ZM22.642 120.654C23.9791 120.795 25.3069 120.932 26.6256 121.062L26.8229 119.072C25.5088 118.942 24.1855 118.806 22.8527 118.665L22.642 120.654ZM30.6054 121.443C31.9227 121.564 33.2307 121.679 34.5295 121.789L34.6976 119.796C33.4039 119.687 32.1009 119.572 30.7885 119.451L30.6054 121.443ZM38.5483 122.111C39.8815 122.213 41.2048 122.308 42.5184 122.396L42.6531 120.401C41.3454 120.313 40.0277 120.218 38.7001 120.117L38.5483 122.111ZM46.4796 122.646C47.8276 122.725 49.1652 122.796 50.4925 122.86L50.5894 120.863C49.2688 120.799 47.9377 120.728 46.5961 120.649L46.4796 122.646ZM54.4435 123.032C55.7927 123.083 57.1311 123.127 58.4587 123.163L58.5127 121.163C57.1926 121.128 55.8617 121.084 54.5198 121.033L54.4435 123.032ZM62.4443 123.247C63.7813 123.267 65.1073 123.279 66.4224 123.283L66.4277 121.283C65.1212 121.279 63.8035 121.267 62.4746 121.247L62.4443 123.247ZM70.4361 123.267C71.7642 123.252 73.0809 123.229 74.3865 123.196L74.3365 121.197C73.0406 121.229 71.7333 121.252 70.4144 121.267L70.4361 123.267ZM78.4202 123.065C79.7528 123.011 81.0736 122.947 82.3827 122.873L82.2697 120.876C80.9716 120.949 79.6615 121.013 78.3394 121.066L78.4202 123.065ZM86.3941 122.611C87.7295 122.512 89.0525 122.402 90.3632 122.28L90.1788 120.289C88.8805 120.409 87.5697 120.518 86.2463 120.616L86.3941 122.611ZM94.3508 121.872C95.6847 121.722 97.0058 121.559 98.3143 121.384L98.0492 119.402C96.7549 119.575 95.4476 119.736 94.1271 119.884L94.3508 121.872ZM102.277 120.81C103.605 120.602 104.919 120.381 106.221 120.146L105.865 118.178C104.58 118.41 103.281 118.629 101.968 118.834L102.277 120.81ZM110.154 119.386C111.47 119.114 112.772 118.828 114.061 118.526L113.605 116.579C112.334 116.876 111.048 117.159 109.749 117.427L110.154 119.386ZM117.953 117.559C119.251 117.217 120.535 116.859 121.806 116.485L121.24 114.566C119.989 114.935 118.723 115.288 117.444 115.625L117.953 117.559ZM125.641 115.291C126.914 114.873 128.173 114.438 129.419 113.985L128.736 112.106C127.51 112.551 126.271 112.979 125.017 113.391L125.641 115.291ZM133.177 112.549C134.419 112.051 135.648 111.533 136.864 110.997L136.057 109.167C134.862 109.694 133.654 110.203 132.432 110.693L133.177 112.549ZM140.515 109.311C141.721 108.728 142.914 108.125 144.093 107.503L143.16 105.734C142.001 106.345 140.83 106.937 139.645 107.51L140.515 109.311ZM147.611 105.565C148.771 104.898 149.918 104.211 151.053 103.503L149.995 101.806C148.88 102.501 147.754 103.176 146.614 103.831L147.611 105.565ZM154.421 101.317C155.528 100.57 156.622 99.8028 157.704 99.0143L156.527 97.3978C155.464 98.1723 154.389 98.9261 153.302 99.6594L154.421 101.317ZM160.912 96.5894C161.958 95.7687 162.994 94.9274 164.018 94.0651L162.731 92.5349C161.724 93.3824 160.706 94.2092 159.678 95.0155L160.912 96.5894ZM167.051 91.4232C168.037 90.535 169.012 89.6264 169.978 88.6972L168.591 87.256C167.641 88.1703 166.681 89.064 165.712 89.9375L167.051 91.4232ZM172.828 85.8662C173.754 84.9173 174.67 83.9485 175.578 82.9595L174.105 81.6068C173.21 82.5812 172.308 83.5354 171.396 84.4696L172.828 85.8662ZM178.247 79.966C179.115 78.9645 179.974 77.9437 180.826 76.9034L179.279 75.6363C178.438 76.6625 177.591 77.6693 176.735 78.6567L178.247 79.966ZM183.322 73.7719C184.134 72.726 184.938 71.6617 185.736 70.5787L184.126 69.3921C183.338 70.462 182.543 71.5132 181.742 72.5458L183.322 73.7719ZM188.072 67.3295C188.831 66.2474 189.584 65.1476 190.332 64.0301L188.669 62.9182C187.93 64.0237 187.185 65.1112 186.435 66.1811L188.072 67.3295ZM192.523 60.6789C193.233 59.5679 193.937 58.4403 194.638 57.296L192.931 56.2523C192.238 57.3857 191.54 58.5022 190.837 59.6019L192.523 60.6789ZM196.7 53.853C197.364 52.7201 198.025 51.5716 198.681 50.4073L196.939 49.4252C196.288 50.5797 195.633 51.7183 194.975 52.841L196.7 53.853ZM200.632 46.8782C201.255 45.7294 201.874 44.5659 202.49 43.3876L200.717 42.4611C200.106 43.6307 199.491 44.7852 198.874 45.925L200.632 46.8782ZM204.328 39.8081C204.918 38.6376 205.506 37.4531 206.09 36.2544L204.293 35.3777C203.712 36.5685 203.128 37.745 202.542 38.9074L204.328 39.8081ZM207.819 32.6512C208.384 31.4542 208.947 30.2437 209.507 29.0195L207.688 28.1874C207.131 29.4045 206.572 30.6078 206.01 31.7974L207.819 32.6512ZM211.136 25.4055C211.677 24.1878 212.215 22.9571 212.752 21.7133L210.916 20.9209C210.382 22.1584 209.846 23.3826 209.308 24.5936L211.136 25.4055ZM214.3 18.076C214.811 16.8591 215.32 15.6301 215.828 14.3888L213.977 13.6318C213.471 14.8674 212.965 16.0907 212.456 17.3017L214.3 18.076ZM217.332 10.6647C217.816 9.45139 218.298 8.22679 218.779 6.99081L216.915 6.26529C216.436 7.49631 215.956 8.71584 215.474 9.92395L217.332 10.6647ZM220.219 3.24865C220.458 2.61928 220.697 1.98705 220.936 1.35194L219.064 0.648079C218.826 1.28085 218.588 1.91074 218.349 2.53772L220.219 3.24865ZM220.911 0.586986C220.683 0.0840071 220.09 -0.138819 219.587 0.089282L211.39 3.80646C210.888 4.03456 210.665 4.62722 210.893 5.1302C211.121 5.63318 211.714 5.85601 212.217 5.6279L219.502 2.32375L222.806 9.60953C223.035 10.1125 223.627 10.3353 224.13 10.1072C224.633 9.87913 224.856 9.28647 224.628 8.78349L220.911 0.586986ZM0.86434 117.991C1.53552 118.083 2.20456 118.173 2.87147 118.263L3.13801 116.281C2.47271 116.192 1.80526 116.101 1.13566 116.009L0.86434 117.991ZM6.8475 118.788C8.16439 118.958 9.47285 119.124 10.773 119.285L11.0192 117.301C9.72263 117.14 8.41763 116.974 7.10413 116.804L6.8475 118.788ZM14.7323 119.765C16.0684 119.924 17.3955 120.077 18.7137 120.225L18.9369 118.237C17.6227 118.09 16.2996 117.937 14.9674 117.779L14.7323 119.765ZM22.642 120.654C23.9791 120.795 25.3069 120.932 26.6256 121.062L26.8229 119.072C25.5088 118.942 24.1855 118.806 22.8527 118.665L22.642 120.654ZM30.6054 121.443C31.9227 121.564 33.2307 121.679 34.5295 121.789L34.6976 119.796C33.4039 119.687 32.1009 119.572 30.7885 119.451L30.6054 121.443ZM38.5483 122.111C39.8815 122.213 41.2048 122.308 42.5184 122.396L42.6531 120.401C41.3454 120.313 40.0277 120.218 38.7001 120.117L38.5483 122.111ZM46.4796 122.646C47.8276 122.725 49.1652 122.796 50.4925 122.86L50.5894 120.863C49.2688 120.799 47.9377 120.728 46.5961 120.649L46.4796 122.646ZM54.4435 123.032C55.7927 123.083 57.1311 123.127 58.4587 123.163L58.5127 121.163C57.1926 121.128 55.8617 121.084 54.5198 121.033L54.4435 123.032ZM62.4443 123.247C63.7813 123.267 65.1073 123.279 66.4224 123.283L66.4277 121.283C65.1212 121.279 63.8035 121.267 62.4746 121.247L62.4443 123.247ZM70.4361 123.267C71.7642 123.252 73.0809 123.229 74.3865 123.196L74.3365 121.197C73.0406 121.229 71.7333 121.252 70.4144 121.267L70.4361 123.267ZM78.4202 123.065C79.7528 123.011 81.0736 122.947 82.3827 122.873L82.2697 120.876C80.9716 120.949 79.6615 121.013 78.3394 121.066L78.4202 123.065ZM86.3941 122.611C87.7295 122.512 89.0525 122.402 90.3632 122.28L90.1788 120.289C88.8805 120.409 87.5697 120.518 86.2463 120.616L86.3941 122.611ZM94.3508 121.872C95.6847 121.722 97.0058 121.559 98.3143 121.384L98.0492 119.402C96.7549 119.575 95.4476 119.736 94.1271 119.884L94.3508 121.872ZM102.277 120.81C103.605 120.602 104.919 120.381 106.221 120.146L105.865 118.178C104.58 118.41 103.281 118.629 101.968 118.834L102.277 120.81ZM110.154 119.386C111.47 119.114 112.772 118.828 114.061 118.526L113.605 116.579C112.334 116.876 111.048 117.159 109.749 117.427L110.154 119.386ZM117.953 117.559C119.251 117.217 120.535 116.859 121.806 116.485L121.24 114.566C119.989 114.935 118.723 115.288 117.444 115.625L117.953 117.559ZM125.641 115.291C126.914 114.873 128.173 114.438 129.419 113.985L128.736 112.106C127.51 112.551 126.271 112.979 125.017 113.391L125.641 115.291ZM133.177 112.549C134.419 112.051 135.648 111.533 136.864 110.997L136.057 109.167C134.862 109.694 133.654 110.203 132.432 110.693L133.177 112.549ZM140.515 109.311C141.721 108.728 142.914 108.125 144.093 107.503L143.16 105.734C142.001 106.345 140.83 106.937 139.645 107.51L140.515 109.311ZM147.611 105.565C148.771 104.898 149.918 104.211 151.053 103.503L149.995 101.806C148.88 102.501 147.754 103.176 146.614 103.831L147.611 105.565ZM154.421 101.317C155.528 100.57 156.622 99.8028 157.704 99.0143L156.527 97.3978C155.464 98.1723 154.389 98.9261 153.302 99.6594L154.421 101.317ZM160.912 96.5894C161.958 95.7687 162.994 94.9274 164.018 94.0651L162.731 92.5349C161.724 93.3824 160.706 94.2092 159.678 95.0155L160.912 96.5894ZM167.051 91.4232C168.037 90.535 169.012 89.6264 169.978 88.6972L168.591 87.256C167.641 88.1703 166.681 89.064 165.712 89.9375L167.051 91.4232ZM172.828 85.8662C173.754 84.9173 174.67 83.9485 175.578 82.9595L174.105 81.6068C173.21 82.5812 172.308 83.5354 171.396 84.4696L172.828 85.8662ZM178.247 79.966C179.115 78.9645 179.974 77.9437 180.826 76.9034L179.279 75.6363C178.438 76.6625 177.591 77.6693 176.735 78.6567L178.247 79.966ZM183.322 73.7719C184.134 72.726 184.938 71.6617 185.736 70.5787L184.126 69.3921C183.338 70.462 182.543 71.5132 181.742 72.5458L183.322 73.7719ZM188.072 67.3295C188.831 66.2474 189.584 65.1476 190.332 64.0301L188.669 62.9182C187.93 64.0237 187.185 65.1112 186.435 66.1811L188.072 67.3295ZM192.523 60.6789C193.233 59.5679 193.937 58.4403 194.638 57.296L192.931 56.2523C192.238 57.3857 191.54 58.5022 190.837 59.6019L192.523 60.6789ZM196.7 53.853C197.364 52.7201 198.025 51.5716 198.681 50.4073L196.939 49.4252C196.288 50.5797 195.633 51.7183 194.975 52.841L196.7 53.853ZM200.632 46.8782C201.255 45.7294 201.874 44.5659 202.49 43.3876L200.717 42.4611C200.106 43.6307 199.491 44.7852 198.874 45.925L200.632 46.8782ZM204.328 39.8081C204.918 38.6376 205.506 37.4531 206.09 36.2544L204.293 35.3777C203.712 36.5685 203.128 37.745 202.542 38.9074L204.328 39.8081ZM207.819 32.6512C208.384 31.4542 208.947 30.2437 209.507 29.0195L207.688 28.1874C207.131 29.4045 206.572 30.6078 206.01 31.7974L207.819 32.6512ZM211.136 25.4055C211.677 24.1878 212.215 22.9571 212.752 21.7133L210.916 20.9209C210.382 22.1584 209.846 23.3826 209.308 24.5936L211.136 25.4055ZM214.3 18.076C214.811 16.8591 215.32 15.6301 215.828 14.3888L213.977 13.6318C213.471 14.8674 212.965 16.0907 212.456 17.3017L214.3 18.076ZM217.332 10.6647C217.816 9.45139 218.298 8.22679 218.779 6.99081L216.915 6.26529C216.436 7.49631 215.956 8.71584 215.474 9.92395L217.332 10.6647ZM220.219 3.24865C220.458 2.61928 220.697 1.98705 220.936 1.35194L219.064 0.648079C218.826 1.28085 218.588 1.91074 218.349 2.53772L220.219 3.24865Z" fill="#666666"/>
</svg>
