<svg width="225" height="124" viewBox="0 0 225 124" fill="none" xmlns="http://www.w3.org/2000/svg">
<path d="M4.04338 0.73933C4.27148 0.236351 4.86415 0.0135248 5.36712 0.241626L13.5636 3.9588C14.0666 4.1869 14.2894 4.77957 14.0613 5.28254C13.8332 5.78552 13.2406 6.00835 12.7376 5.78024L5.45181 2.47609L2.14766 9.76187C1.91955 10.2648 1.3269 10.4877 0.823916 10.2596C0.320944 10.0315 0.0981153 9.43881 0.326218 8.93583L4.04338 0.73933ZM224.09 118.143C223.419 118.235 222.75 118.326 222.083 118.415L221.816 116.433C222.481 116.344 223.149 116.253 223.818 116.162L224.09 118.143ZM218.107 118.94C216.79 119.11 215.481 119.276 214.181 119.438L213.935 117.453C215.231 117.292 216.536 117.127 217.85 116.957L218.107 118.94ZM210.222 119.918C208.886 120.076 207.559 120.229 206.24 120.377L206.017 118.39C207.331 118.242 208.655 118.089 209.987 117.932L210.222 119.918ZM202.312 120.806C200.975 120.948 199.647 121.084 198.329 121.215L198.131 119.224C199.445 119.094 200.769 118.958 202.101 118.817L202.312 120.806ZM194.349 121.595C193.031 121.716 191.723 121.831 190.425 121.941L190.257 119.948C191.55 119.839 192.853 119.724 194.166 119.603L194.349 121.595ZM186.406 122.264C185.073 122.365 183.749 122.46 182.436 122.549L182.301 120.553C183.609 120.465 184.926 120.37 186.254 120.269L186.406 122.264ZM178.474 122.798C177.126 122.877 175.789 122.948 174.462 123.013L174.365 121.015C175.685 120.951 177.016 120.88 178.358 120.802L178.474 122.798ZM170.511 123.184C169.161 123.236 167.823 123.279 166.495 123.315L166.441 121.316C167.761 121.28 169.092 121.237 170.434 121.186L170.511 123.184ZM162.51 123.399C161.173 123.42 159.847 123.432 158.532 123.435L158.526 121.435C159.833 121.432 161.151 121.42 162.479 121.4L162.51 123.399ZM154.518 123.419C153.19 123.405 151.873 123.381 150.568 123.348L150.618 121.349C151.914 121.382 153.221 121.405 154.54 121.419L154.518 123.419ZM146.534 123.217C145.201 123.163 143.88 123.099 142.571 123.025L142.684 121.028C143.983 121.102 145.293 121.165 146.615 121.218L146.534 123.217ZM138.56 122.763C137.225 122.664 135.902 122.554 134.591 122.433L134.775 120.441C136.074 120.561 137.384 120.671 138.708 120.769L138.56 122.763ZM130.603 122.024C129.269 121.874 127.948 121.712 126.64 121.537L126.905 119.554C128.199 119.727 129.507 119.888 130.827 120.037L130.603 122.024ZM122.677 120.962C121.349 120.755 120.035 120.534 118.733 120.299L119.089 118.33C120.374 118.563 121.673 118.781 122.986 118.986L122.677 120.962ZM114.8 119.538C113.485 119.267 112.182 118.98 110.893 118.679L111.349 116.731C112.621 117.029 113.906 117.311 115.205 117.579L114.8 119.538ZM107.001 117.711C105.703 117.369 104.419 117.011 103.149 116.637L103.714 114.719C104.966 115.087 106.231 115.44 107.51 115.777L107.001 117.711ZM99.3131 115.443C98.0399 115.026 96.7806 114.59 95.5348 114.138L96.218 112.258C97.4438 112.703 98.6832 113.132 99.9366 113.543L99.3131 115.443ZM91.7775 112.702C90.5349 112.203 89.306 111.686 88.0904 111.15L88.8975 109.32C90.0922 109.847 91.3004 110.355 92.5223 110.846L91.7775 112.702ZM84.439 109.463C83.2331 108.88 82.0405 108.278 80.8611 107.655L81.7946 105.886C82.953 106.498 84.1245 107.09 85.3094 107.662L84.439 109.463ZM77.3433 105.717C76.1832 105.05 75.0359 104.363 73.9012 103.656L74.9595 101.959C76.0738 102.654 77.2004 103.328 78.3397 103.983L77.3433 105.717ZM70.5327 101.469C69.4264 100.723 68.3322 99.9552 67.2497 99.1667L68.4273 97.5501C69.4905 98.3246 70.5652 99.0784 71.6516 99.8118L70.5327 101.469ZM64.0421 96.7417C62.9956 95.9211 61.9603 95.0797 60.9357 94.2174L62.2235 92.6872C63.2306 93.5348 64.248 94.3616 65.2763 95.1679L64.0421 96.7417ZM57.9029 91.5755C56.9173 90.6873 55.9419 89.7787 54.9762 88.8495L56.3629 87.4083C57.3131 88.3226 58.2726 89.2164 59.2418 90.0898L57.9029 91.5755ZM52.1263 86.0186C51.2006 85.0696 50.2838 84.1008 49.3758 83.1118L50.849 81.7592C51.7436 82.7335 52.6465 83.6877 53.5579 84.622L52.1263 86.0186ZM46.7069 80.1184C45.8395 79.1168 44.98 78.096 44.1281 77.0558L45.6755 75.7886C46.5159 76.8149 47.3636 77.8216 48.2188 78.809L46.7069 80.1184ZM41.6322 73.9243C40.8205 72.8784 40.0158 71.814 39.2176 70.731L40.8276 69.5445C41.6161 70.6144 42.4109 71.6655 43.2122 72.6981L41.6322 73.9243ZM36.8819 67.4819C36.1229 66.3997 35.3698 65.2999 34.6223 64.1825L36.2847 63.0705C37.0241 64.176 37.7689 65.2636 38.5193 66.3334L36.8819 67.4819ZM32.4315 60.8312C31.7216 59.7203 31.0167 58.5927 30.3166 57.4484L32.0226 56.4046C32.716 57.538 33.414 58.6545 34.1168 59.7542L32.4315 60.8312ZM28.2542 54.0053C27.5896 52.8725 26.9293 51.7239 26.273 50.5596L28.0153 49.5776C28.666 50.7321 29.3206 51.8706 29.9793 52.9934L28.2542 54.0053ZM24.3224 47.0306C23.6995 45.8818 23.0802 44.7183 22.4643 43.54L24.2367 42.6134C24.8481 43.783 25.4626 44.9376 26.0806 46.0773L24.3224 47.0306ZM20.6264 39.9605C20.036 38.7899 19.4485 37.6054 18.8639 36.4068L20.6615 35.5301C21.2423 36.7209 21.8258 37.8974 22.4121 39.0597L20.6264 39.9605ZM17.1352 32.8036C16.5701 31.6066 16.0076 30.396 15.4474 29.1719L17.2661 28.3397C17.823 29.5568 18.3822 30.7601 18.9438 31.9498L17.1352 32.8036ZM13.8184 25.5578C13.2775 24.3401 12.7388 23.1094 12.2021 21.8656L14.0385 21.0733C14.5724 22.3107 15.1083 23.5349 15.6462 24.746L13.8184 25.5578ZM10.654 18.2283C10.143 17.0115 9.63377 15.7824 9.12612 14.5412L10.9773 13.7841C11.4826 15.0197 11.9895 16.243 12.498 17.454L10.654 18.2283ZM7.62233 10.817C7.13858 9.60374 6.65618 8.37914 6.17504 7.14316L8.0388 6.41763C8.51801 7.64865 8.99842 8.86818 9.48011 10.0763L7.62233 10.817ZM4.73529 3.401C4.49594 2.77163 4.25688 2.13939 4.01808 1.50428L5.89014 0.800422C6.12805 1.4332 6.36623 2.06308 6.60467 2.69007L4.73529 3.401ZM4.04338 0.73933C4.27148 0.236351 4.86415 0.0135248 5.36712 0.241626L13.5636 3.9588C14.0666 4.1869 14.2894 4.77957 14.0613 5.28254C13.8332 5.78552 13.2406 6.00835 12.7376 5.78024L5.45181 2.47609L2.14766 9.76187C1.91955 10.2648 1.3269 10.4877 0.823916 10.2596C0.320944 10.0315 0.0981153 9.43881 0.326218 8.93583L4.04338 0.73933ZM224.09 118.143C223.419 118.235 222.75 118.326 222.083 118.415L221.816 116.433C222.481 116.344 223.149 116.253 223.818 116.162L224.09 118.143ZM218.107 118.94C216.79 119.11 215.481 119.276 214.181 119.438L213.935 117.453C215.231 117.292 216.536 117.127 217.85 116.957L218.107 118.94ZM210.222 119.918C208.886 120.076 207.559 120.229 206.24 120.377L206.017 118.39C207.331 118.242 208.655 118.089 209.987 117.932L210.222 119.918ZM202.312 120.806C200.975 120.948 199.647 121.084 198.329 121.215L198.131 119.224C199.445 119.094 200.769 118.958 202.101 118.817L202.312 120.806ZM194.349 121.595C193.031 121.716 191.723 121.831 190.425 121.941L190.257 119.948C191.55 119.839 192.853 119.724 194.166 119.603L194.349 121.595ZM186.406 122.264C185.073 122.365 183.749 122.46 182.436 122.549L182.301 120.553C183.609 120.465 184.926 120.37 186.254 120.269L186.406 122.264ZM178.474 122.798C177.126 122.877 175.789 122.948 174.462 123.013L174.365 121.015C175.685 120.951 177.016 120.88 178.358 120.802L178.474 122.798ZM170.511 123.184C169.161 123.236 167.823 123.279 166.495 123.315L166.441 121.316C167.761 121.28 169.092 121.237 170.434 121.186L170.511 123.184ZM162.51 123.399C161.173 123.42 159.847 123.432 158.532 123.435L158.526 121.435C159.833 121.432 161.151 121.42 162.479 121.4L162.51 123.399ZM154.518 123.419C153.19 123.405 151.873 123.381 150.568 123.348L150.618 121.349C151.914 121.382 153.221 121.405 154.54 121.419L154.518 123.419ZM146.534 123.217C145.201 123.163 143.88 123.099 142.571 123.025L142.684 121.028C143.983 121.102 145.293 121.165 146.615 121.218L146.534 123.217ZM138.56 122.763C137.225 122.664 135.902 122.554 134.591 122.433L134.775 120.441C136.074 120.561 137.384 120.671 138.708 120.769L138.56 122.763ZM130.603 122.024C129.269 121.874 127.948 121.712 126.64 121.537L126.905 119.554C128.199 119.727 129.507 119.888 130.827 120.037L130.603 122.024ZM122.677 120.962C121.349 120.755 120.035 120.534 118.733 120.299L119.089 118.33C120.374 118.563 121.673 118.781 122.986 118.986L122.677 120.962ZM114.8 119.538C113.485 119.267 112.182 118.98 110.893 118.679L111.349 116.731C112.621 117.029 113.906 117.311 115.205 117.579L114.8 119.538ZM107.001 117.711C105.703 117.369 104.419 117.011 103.149 116.637L103.714 114.719C104.966 115.087 106.231 115.44 107.51 115.777L107.001 117.711ZM99.3131 115.443C98.0399 115.026 96.7806 114.59 95.5348 114.138L96.218 112.258C97.4438 112.703 98.6832 113.132 99.9366 113.543L99.3131 115.443ZM91.7775 112.702C90.5349 112.203 89.306 111.686 88.0904 111.15L88.8975 109.32C90.0922 109.847 91.3004 110.355 92.5223 110.846L91.7775 112.702ZM84.439 109.463C83.2331 108.88 82.0405 108.278 80.8611 107.655L81.7946 105.886C82.953 106.498 84.1245 107.09 85.3094 107.662L84.439 109.463ZM77.3433 105.717C76.1832 105.05 75.0359 104.363 73.9012 103.656L74.9595 101.959C76.0738 102.654 77.2004 103.328 78.3397 103.983L77.3433 105.717ZM70.5327 101.469C69.4264 100.723 68.3322 99.9552 67.2497 99.1667L68.4273 97.5501C69.4905 98.3246 70.5652 99.0784 71.6516 99.8118L70.5327 101.469ZM64.0421 96.7417C62.9956 95.9211 61.9603 95.0797 60.9357 94.2174L62.2235 92.6872C63.2306 93.5348 64.248 94.3616 65.2763 95.1679L64.0421 96.7417ZM57.9029 91.5755C56.9173 90.6873 55.9419 89.7787 54.9762 88.8495L56.3629 87.4083C57.3131 88.3226 58.2726 89.2164 59.2418 90.0898L57.9029 91.5755ZM52.1263 86.0186C51.2006 85.0696 50.2838 84.1008 49.3758 83.1118L50.849 81.7592C51.7436 82.7335 52.6465 83.6877 53.5579 84.622L52.1263 86.0186ZM46.7069 80.1184C45.8395 79.1168 44.98 78.096 44.1281 77.0558L45.6755 75.7886C46.5159 76.8149 47.3636 77.8216 48.2188 78.809L46.7069 80.1184ZM41.6322 73.9243C40.8205 72.8784 40.0158 71.814 39.2176 70.731L40.8276 69.5445C41.6161 70.6144 42.4109 71.6655 43.2122 72.6981L41.6322 73.9243ZM36.8819 67.4819C36.1229 66.3997 35.3698 65.2999 34.6223 64.1825L36.2847 63.0705C37.0241 64.176 37.7689 65.2636 38.5193 66.3334L36.8819 67.4819ZM32.4315 60.8312C31.7216 59.7203 31.0167 58.5927 30.3166 57.4484L32.0226 56.4046C32.716 57.538 33.414 58.6545 34.1168 59.7542L32.4315 60.8312ZM28.2542 54.0053C27.5896 52.8725 26.9293 51.7239 26.273 50.5596L28.0153 49.5776C28.666 50.7321 29.3206 51.8706 29.9793 52.9934L28.2542 54.0053ZM24.3224 47.0306C23.6995 45.8818 23.0802 44.7183 22.4643 43.54L24.2367 42.6134C24.8481 43.783 25.4626 44.9376 26.0806 46.0773L24.3224 47.0306ZM20.6264 39.9605C20.036 38.7899 19.4485 37.6054 18.8639 36.4068L20.6615 35.5301C21.2423 36.7209 21.8258 37.8974 22.4121 39.0597L20.6264 39.9605ZM17.1352 32.8036C16.5701 31.6066 16.0076 30.396 15.4474 29.1719L17.2661 28.3397C17.823 29.5568 18.3822 30.7601 18.9438 31.9498L17.1352 32.8036ZM13.8184 25.5578C13.2775 24.3401 12.7388 23.1094 12.2021 21.8656L14.0385 21.0733C14.5724 22.3107 15.1083 23.5349 15.6462 24.746L13.8184 25.5578ZM10.654 18.2283C10.143 17.0115 9.63377 15.7824 9.12612 14.5412L10.9773 13.7841C11.4826 15.0197 11.9895 16.243 12.498 17.454L10.654 18.2283ZM7.62233 10.817C7.13858 9.60374 6.65618 8.37914 6.17504 7.14316L8.0388 6.41763C8.51801 7.64865 8.99842 8.86818 9.48011 10.0763L7.62233 10.817ZM4.73529 3.401C4.49594 2.77163 4.25688 2.13939 4.01808 1.50428L5.89014 0.800422C6.12805 1.4332 6.36623 2.06308 6.60467 2.69007L4.73529 3.401Z" fill="#666666"/>
</svg>
