<svg width="26" height="26" viewBox="0 0 26 26" fill="none" xmlns="http://www.w3.org/2000/svg">
<path d="M24.0723 6.55859C23.7407 6.55859 23.4228 6.72321 23.1884 7.01624C22.954 7.30927 22.8223 7.70669 22.8223 8.12109V20.6211C22.8223 21.0355 22.6906 21.4329 22.4562 21.7259C22.2217 22.019 21.9038 22.1836 21.5723 22.1836H4.07227C3.74075 22.1836 3.4228 22.019 3.18838 21.7259C2.95396 21.4329 2.82227 21.0355 2.82227 20.6211V5.63672L10.1723 14.8242C10.8754 15.702 11.8285 16.1951 12.8223 16.1951C13.816 16.1951 14.7691 15.702 15.4723 14.8242L19.9598 9.23047C20.1951 8.93624 20.3274 8.53719 20.3274 8.12109C20.3274 7.705 20.1951 7.30594 19.9598 7.01172C19.7244 6.71749 19.4051 6.5522 19.0723 6.5522C18.7394 6.5522 18.4201 6.71749 18.1848 7.01172L13.7098 12.6211C13.5936 12.7675 13.4553 12.8838 13.303 12.9631C13.1507 13.0424 12.9873 13.0833 12.8223 13.0833C12.6573 13.0833 12.4939 13.0424 12.3415 12.9631C12.1892 12.8838 12.051 12.7675 11.9348 12.6211L4.58477 3.43359H14.0723C14.4038 3.43359 14.7217 3.26897 14.9561 2.97595C15.1906 2.68292 15.3223 2.28549 15.3223 1.87109C15.3223 1.45669 15.1906 1.05927 14.9561 0.76624C14.7217 0.473214 14.4038 0.308594 14.0723 0.308594H4.07227C3.0777 0.308594 2.12388 0.802454 1.42062 1.68153C0.717354 2.56061 0.322266 3.75289 0.322266 4.99609V20.6211C0.322266 21.8643 0.717354 23.0566 1.42062 23.9357C2.12388 24.8147 3.0777 25.3086 4.07227 25.3086H21.5723C22.5668 25.3086 23.5207 24.8147 24.2239 23.9357C24.9272 23.0566 25.3223 21.8643 25.3223 20.6211V8.12109C25.3223 7.70669 25.1906 7.30927 24.9562 7.01624C24.7217 6.72321 24.4038 6.55859 24.0723 6.55859ZM19.0723 3.43359H24.0723C24.4038 3.43359 24.7217 3.26897 24.9562 2.97595C25.1906 2.68292 25.3223 2.28549 25.3223 1.87109C25.3223 1.45669 25.1906 1.05927 24.9562 0.76624C24.7217 0.473214 24.4038 0.308594 24.0723 0.308594H19.0723C18.7407 0.308594 18.4228 0.473214 18.1884 0.76624C17.954 1.05927 17.8223 1.45669 17.8223 1.87109C17.8223 2.28549 17.954 2.68292 18.1884 2.97595C18.4228 3.26897 18.7407 3.43359 19.0723 3.43359Z" fill="#FFFDFD"/>
</svg>
