<svg width="26" height="26" viewBox="0 0 26 26" fill="none" xmlns="http://www.w3.org/2000/svg">
<path id="Instagram" d="M19.2317 4.77115C18.9352 4.77115 18.6454 4.85924 18.399 5.02428C18.1525 5.18932 17.9604 5.4239 17.8469 5.69835C17.7335 5.9728 17.7038 6.2748 17.7616 6.56616C17.8195 6.85751 17.9622 7.12514 18.1718 7.3352C18.3814 7.54525 18.6485 7.6883 18.9393 7.74626C19.23 7.80421 19.5314 7.77447 19.8053 7.66079C20.0791 7.5471 20.3132 7.35459 20.4779 7.10759C20.6426 6.86059 20.7305 6.5702 20.7305 6.27313C20.7305 5.87478 20.5726 5.49275 20.2915 5.21107C20.0104 4.92939 19.6292 4.77115 19.2317 4.77115ZM24.9773 7.80015C24.953 6.76165 24.7589 5.73418 24.4027 4.75863C24.0851 3.92395 23.5908 3.16813 22.9538 2.54321C22.3353 1.90164 21.5793 1.40943 20.743 1.10381C19.7721 0.736021 18.7456 0.53707 17.7078 0.515529C16.3839 0.44043 15.9592 0.44043 12.5618 0.44043C9.16436 0.44043 8.73968 0.44043 7.41569 0.515529C6.37792 0.53707 5.35144 0.736021 4.3805 1.10381C3.54574 1.41252 2.79038 1.90431 2.16969 2.54321C1.52946 3.163 1.03827 3.92058 0.733284 4.75863C0.366265 5.7316 0.167728 6.76022 0.146232 7.80015C0.071289 9.1269 0.0712891 9.55247 0.0712891 12.957C0.0712891 16.3615 0.071289 16.787 0.146232 18.1138C0.167728 19.1537 0.366265 20.1823 0.733284 21.1553C1.03827 21.9933 1.52946 22.7509 2.16969 23.3707C2.79038 24.0096 3.54574 24.5014 4.3805 24.8101C5.35144 25.1779 6.37792 25.3769 7.41569 25.3984C8.73968 25.4735 9.16436 25.4735 12.5618 25.4735C15.9592 25.4735 16.3839 25.4735 17.7078 25.3984C18.7456 25.3769 19.7721 25.1779 20.743 24.8101C21.5793 24.5045 22.3353 24.0123 22.9538 23.3707C23.5937 22.7481 24.0884 21.9916 24.4027 21.1553C24.7589 20.1797 24.953 19.1523 24.9773 18.1138C24.9773 16.787 25.0522 16.3615 25.0522 12.957C25.0522 9.55247 25.0522 9.1269 24.9773 7.80015ZM22.729 17.9636C22.7199 18.7581 22.5763 19.5453 22.3043 20.2917C22.1049 20.8364 21.7846 21.3286 21.3675 21.7311C20.9624 22.1447 20.4723 22.4651 19.9311 22.6698C19.1863 22.9423 18.4008 23.0862 17.6079 23.0954C16.3589 23.1579 15.8967 23.1705 12.6117 23.1705C9.32673 23.1705 8.86458 23.1705 7.61554 23.0954C6.79228 23.1108 5.97253 22.9838 5.19238 22.7199C4.67501 22.5047 4.20733 22.1851 3.81843 21.7811C3.40386 21.379 3.08754 20.8864 2.89414 20.3417C2.58919 19.5847 2.42005 18.7796 2.39452 17.9636C2.39452 16.7119 2.31957 16.2488 2.31957 12.957C2.31957 9.66511 2.31957 9.202 2.39452 7.95035C2.40012 7.1381 2.54809 6.33314 2.83168 5.57221C3.05158 5.0439 3.38909 4.57296 3.81843 4.19539C4.19791 3.76503 4.66689 3.42324 5.19238 3.19407C5.95374 2.91876 6.75619 2.77486 7.56557 2.7685C8.81462 2.7685 9.27677 2.69341 12.5618 2.69341C15.8468 2.69341 16.3089 2.69341 17.558 2.7685C18.3508 2.77762 19.1364 2.92151 19.8812 3.19407C20.4488 3.40516 20.9582 3.74836 21.3675 4.19539C21.7769 4.57987 22.0967 5.04993 22.3043 5.57221C22.5819 6.33438 22.7256 7.139 22.729 7.95035C22.7915 9.202 22.804 9.66511 22.804 12.957C22.804 16.2488 22.7915 16.7119 22.729 17.9636ZM12.5618 6.53598C11.295 6.53846 10.0574 6.91714 9.0053 7.62419C7.95321 8.33124 7.13388 9.33492 6.65081 10.5084C6.16775 11.6819 6.04264 12.9726 6.29129 14.2173C6.53994 15.462 7.15119 16.6049 8.0478 17.5017C8.94442 18.3984 10.0862 19.0087 11.3288 19.2555C12.5714 19.5022 13.8591 19.3743 15.0292 18.888C16.1993 18.4016 17.1993 17.5786 17.9029 16.523C18.6064 15.4673 18.9819 14.2264 18.9819 12.957C18.9835 12.1122 18.8185 11.2755 18.4963 10.4949C18.1741 9.71431 17.701 9.00525 17.1044 8.40852C16.5077 7.81178 15.7992 7.33914 15.0196 7.01778C14.24 6.69642 13.4047 6.53268 12.5618 6.53598ZM12.5618 17.125C11.7391 17.125 10.935 16.8805 10.251 16.4225C9.56697 15.9645 9.03386 15.3136 8.71905 14.552C8.40424 13.7904 8.32187 12.9523 8.48236 12.1438C8.64285 11.3353 9.03898 10.5926 9.62068 10.0097C10.2024 9.42683 10.9435 9.02987 11.7503 8.86904C12.5572 8.70822 13.3935 8.79076 14.1535 9.10623C14.9135 9.42169 15.5631 9.95592 16.0201 10.6413C16.4772 11.3268 16.7211 12.1326 16.7211 12.957C16.7211 13.5043 16.6135 14.0463 16.4045 14.552C16.1955 15.0577 15.8891 15.5172 15.5029 15.9042C15.1166 16.2912 14.6581 16.5982 14.1535 16.8077C13.6488 17.0172 13.108 17.125 12.5618 17.125Z" fill="white"/>
</svg>
