<svg width="25" height="26" viewBox="0 0 25 26" fill="none" xmlns="http://www.w3.org/2000/svg">
<path id="Linked In" d="M23.1533 0.928886H1.86671C1.62743 0.925576 1.38984 0.969248 1.16751 1.05741C0.945171 1.14557 0.74245 1.27649 0.570919 1.4427C0.399387 1.6089 0.262406 1.80714 0.167798 2.02608C0.0731905 2.24502 0.0228089 2.48039 0.0195312 2.71873V24.1718C0.0228089 24.4101 0.0731905 24.6455 0.167798 24.8644C0.262406 25.0833 0.399387 25.2816 0.570919 25.4478C0.74245 25.614 0.945171 25.7449 1.16751 25.8331C1.38984 25.9212 1.62743 25.9649 1.86671 25.9616H23.1533C23.3926 25.9649 23.6302 25.9212 23.8525 25.8331C24.0748 25.7449 24.2776 25.614 24.4491 25.4478C24.6206 25.2816 24.7576 25.0833 24.8522 24.8644C24.9468 24.6455 24.9972 24.4101 25.0005 24.1718V2.71873C24.9972 2.48039 24.9468 2.24502 24.8522 2.02608C24.7576 1.80714 24.6206 1.6089 24.4491 1.4427C24.2776 1.27649 24.0748 1.14557 23.8525 1.05741C23.6302 0.969248 23.3926 0.925576 23.1533 0.928886ZM7.59675 21.8813H3.82699V10.6165H7.59675V21.8813ZM5.71187 9.03948C5.19197 9.03948 4.69337 8.83377 4.32575 8.4676C3.95812 8.10142 3.7516 7.60478 3.7516 7.08693C3.7516 6.56909 3.95812 6.07245 4.32575 5.70627C4.69337 5.3401 5.19197 5.13438 5.71187 5.13438C5.98794 5.1032 6.2675 5.13044 6.53227 5.21434C6.79703 5.29824 7.04101 5.43689 7.24825 5.62122C7.45548 5.80555 7.62129 6.0314 7.73481 6.28399C7.84834 6.53657 7.90703 6.81019 7.90703 7.08693C7.90703 7.36368 7.84834 7.6373 7.73481 7.88988C7.62129 8.14247 7.45548 8.36832 7.24825 8.55265C7.04101 8.73698 6.79703 8.87563 6.53227 8.95953C6.2675 9.04342 5.98794 9.07067 5.71187 9.03948ZM21.193 21.8813H17.4233V15.8359C17.4233 14.3214 16.8829 13.3326 15.5133 13.3326C15.0894 13.3357 14.6766 13.4681 14.3306 13.7121C13.9846 13.956 13.722 14.2997 13.5781 14.6969C13.4798 14.9911 13.4372 15.3009 13.4524 15.6106V21.8688H9.68269C9.68269 21.8688 9.68269 11.6304 9.68269 10.604H13.4524V12.1936C13.7949 11.6017 14.293 11.1141 14.8931 10.7833C15.4931 10.4524 16.1724 10.2909 16.8578 10.3162C19.371 10.3162 21.193 11.9308 21.193 15.3978V21.8813Z" fill="white"/>
</svg>
