<svg width="26" height="26" viewBox="0 0 26 26" fill="none" xmlns="http://www.w3.org/2000/svg">
<path d="M22.0953 14.1087C21.8201 14.1087 21.5324 14.0208 21.2573 13.9581C20.7005 13.8332 20.153 13.6698 19.6188 13.4688C19.0385 13.2571 18.4007 13.2681 17.8281 13.4997C17.2554 13.7313 16.7884 14.1672 16.5169 14.7234L16.2417 15.3005C15.027 14.6095 13.9048 13.7664 12.9021 12.7914C11.9301 11.7857 11.0895 10.6601 10.4006 9.44173L10.976 9.17827C11.5305 8.90593 11.965 8.4375 12.196 7.86312C12.4269 7.28873 12.4378 6.64899 12.2267 6.06699C12.0281 5.52631 11.8651 4.97311 11.7389 4.41098C11.6764 4.13498 11.6264 3.84643 11.5888 3.57043C11.437 2.68675 10.9755 1.8865 10.2876 1.31379C9.59964 0.741084 8.73046 0.433558 7.83654 0.446594H4.07173C3.54296 0.4459 3.02002 0.557306 2.53718 0.77351C2.05435 0.989714 1.62252 1.30583 1.27001 1.70115C0.910189 2.10719 0.642269 2.58655 0.484657 3.10629C0.327046 3.62603 0.283479 4.17384 0.35695 4.71207C1.03685 9.93369 3.41534 14.7844 7.1236 18.5121C10.8401 22.2316 15.6762 24.6173 20.882 25.2993C21.0444 25.3117 21.2075 25.3117 21.3698 25.2993C22.2922 25.3006 23.1827 24.9612 23.8714 24.3458C24.2655 23.9922 24.5807 23.5591 24.7962 23.0748C25.0118 22.5905 25.1228 22.066 25.1221 21.5356V17.772C25.1154 16.9051 24.8105 16.0672 24.259 15.3997C23.7075 14.7323 22.9432 14.2762 22.0953 14.1087ZM22.7082 21.636C22.7077 21.811 22.6708 21.9841 22.5997 22.144C22.5286 22.3039 22.425 22.447 22.2954 22.5643C22.1583 22.6896 21.9952 22.7827 21.8178 22.837C21.6404 22.8912 21.4532 22.9052 21.2698 22.878C16.6023 22.2665 12.2646 20.133 8.92471 16.8059C5.582 13.4531 3.43638 9.08715 2.82096 4.38589C2.79379 4.20189 2.80775 4.01413 2.86183 3.83621C2.91591 3.65829 3.00876 3.49465 3.13365 3.35715C3.252 3.22562 3.39679 3.12072 3.55848 3.04936C3.72016 2.978 3.89509 2.9418 4.07173 2.94315H7.82403C8.11316 2.93606 8.39581 3.0297 8.62385 3.20811C8.8519 3.38653 9.01126 3.6387 9.0748 3.9217C9.0748 4.26043 9.18737 4.61171 9.26241 4.95044C9.40697 5.60765 9.59927 6.25338 9.83777 6.88244L8.08669 7.71045C7.78571 7.84903 7.55181 8.10168 7.43629 8.413C7.31119 8.71843 7.31119 9.06102 7.43629 9.36646C9.2364 13.2339 12.3359 16.3428 16.1917 18.1483C16.4962 18.2738 16.8377 18.2738 17.1422 18.1483C17.4526 18.0324 17.7045 17.7978 17.8427 17.496L18.6307 15.7396C19.2759 15.9756 19.9361 16.1684 20.6069 16.3167C20.9321 16.3919 21.2823 16.4547 21.62 16.5049C21.9021 16.5686 22.1536 16.7284 22.3314 16.9572C22.5093 17.1859 22.6027 17.4694 22.5956 17.7594L22.7082 21.636ZM15.3286 0.308594C15.041 0.308594 14.7408 0.308594 14.4531 0.308594C14.1214 0.336876 13.8144 0.496175 13.5998 0.751447C13.3852 1.00672 13.2804 1.33705 13.3086 1.66978C13.3368 2.00251 13.4957 2.31038 13.7502 2.52565C14.0047 2.74093 14.334 2.84598 14.6657 2.8177H15.3286C17.319 2.8177 19.2278 3.61075 20.6352 5.0224C22.0426 6.43404 22.8332 8.34864 22.8332 10.345C22.8332 10.5708 22.8332 10.7841 22.8332 11.0099C22.8055 11.3409 22.9098 11.6694 23.1231 11.9234C23.3365 12.1773 23.6416 12.3361 23.9714 12.3648H24.0715C24.3846 12.3661 24.6868 12.2495 24.9184 12.0382C25.15 11.8268 25.2941 11.536 25.3223 11.2232C25.3223 10.9346 25.3223 10.6336 25.3223 10.345C25.3223 7.68536 24.2698 5.13446 22.396 3.25262C20.5221 1.37079 17.9803 0.311918 15.3286 0.308594ZM17.8302 10.345C17.8302 10.6777 17.9619 10.9968 18.1965 11.2321C18.4311 11.4674 18.7492 11.5996 19.0809 11.5996C19.4127 11.5996 19.7308 11.4674 19.9654 11.2321C20.1999 10.9968 20.3317 10.6777 20.3317 10.345C20.3317 9.0141 19.8046 7.7377 18.8663 6.7966C17.9281 5.8555 16.6555 5.3268 15.3286 5.3268C14.9969 5.3268 14.6788 5.45898 14.4442 5.69425C14.2096 5.92952 14.0779 6.24862 14.0779 6.58135C14.0779 6.91408 14.2096 7.23318 14.4442 7.46845C14.6788 7.70373 14.9969 7.8359 15.3286 7.8359C15.9921 7.8359 16.6284 8.10026 17.0975 8.5708C17.5666 9.04135 17.8302 9.67955 17.8302 10.345Z" fill="white"/>
</svg>
