<svg width="20" height="20" viewBox="0 0 20 20" fill="none" xmlns="http://www.w3.org/2000/svg">
<path fill-rule="evenodd" clip-rule="evenodd" d="M8.28632 2.70801H11.7137C13.2452 2.70799 14.4582 2.70798 15.4075 2.83562C16.3845 2.96698 17.1753 3.24374 17.799 3.86738C18.4226 4.49101 18.6994 5.2818 18.8307 6.25882C18.9584 7.20817 18.9584 8.4212 18.9583 9.95267V10.0467C18.9584 11.5782 18.9584 12.7912 18.8307 13.7405C18.6994 14.7175 18.4226 15.5083 17.799 16.132C17.1753 16.7556 16.3845 17.0324 15.4075 17.1637C14.4582 17.2914 13.2452 17.2914 11.7137 17.2913H8.28633C6.75486 17.2914 5.54183 17.2914 4.59249 17.1637C3.61547 17.0324 2.82468 16.7556 2.20104 16.132C1.57741 15.5083 1.30064 14.7175 1.16928 13.7405C1.04165 12.7912 1.04166 11.5782 1.04167 10.0467V9.95266C1.04166 8.42119 1.04165 7.20817 1.16928 6.25882C1.30064 5.2818 1.57741 4.49101 2.20104 3.86738C2.82468 3.24374 3.61547 2.96698 4.59249 2.83562C5.54183 2.70798 6.75486 2.70799 8.28632 2.70801ZM4.75905 4.07447C3.92064 4.18719 3.4376 4.39859 3.08492 4.75126C2.73225 5.10394 2.52086 5.58697 2.40814 6.42538C2.293 7.28177 2.29167 8.41066 2.29167 9.99968C2.29167 11.5887 2.293 12.7176 2.40814 13.574C2.52086 14.4124 2.73225 14.8954 3.08492 15.2481C3.4376 15.6008 3.92064 15.8122 4.75905 15.9249C5.61543 16.04 6.74432 16.0413 8.33334 16.0413H11.6667C13.2557 16.0413 14.3846 16.04 15.241 15.9249C16.0794 15.8122 16.5624 15.6008 16.9151 15.2481C17.2678 14.8954 17.4792 14.4124 17.5919 13.574C17.707 12.7176 17.7083 11.5887 17.7083 9.99968C17.7083 8.41066 17.707 7.28177 17.5919 6.42538C17.4792 5.58697 17.2678 5.10394 16.9151 4.75126C16.5624 4.39859 16.0794 4.18719 15.241 4.07447C14.3846 3.95934 13.2557 3.95801 11.6667 3.95801H8.33334C6.74432 3.95801 5.61543 3.95934 4.75905 4.07447ZM4.51987 6.26623C4.74084 6.00105 5.13495 5.96523 5.40012 6.1862L7.1992 7.68544C7.97667 8.33332 8.51645 8.78169 8.97216 9.07478C9.41329 9.3585 9.71245 9.45374 10 9.45374C10.2876 9.45374 10.5867 9.3585 11.0279 9.07478C11.4836 8.78169 12.0233 8.33332 12.8008 7.68544L14.5999 6.1862C14.8651 5.96523 15.2592 6.00105 15.4801 6.26623C15.7011 6.5314 15.6653 6.9255 15.4001 7.14648L13.5697 8.67182C12.8311 9.28737 12.2324 9.78628 11.704 10.1261C11.1536 10.4801 10.6176 10.7037 10 10.7037C9.38244 10.7037 8.8464 10.4801 8.29599 10.1261C7.7676 9.78628 7.16893 9.28737 6.43031 8.67183L4.59989 7.14648C4.33472 6.9255 4.29889 6.5314 4.51987 6.26623Z" fill="#FBE6C2"/>
</svg>
