<svg width="30" height="40" viewBox="0 0 30 40" fill="none" xmlns="http://www.w3.org/2000/svg">
<path d="M13.7158 0.55957C14.7911 0.472105 15.6441 0.471468 16.4434 0.620117C17.1503 0.751633 17.8352 1.00381 18.6035 1.44141L18.9375 1.64062C21.2962 3.1011 23.6183 5.76331 25.4775 8.74414C27.2187 11.5358 28.5214 14.5537 29.0664 17.0283L29.165 17.5156C30.135 22.7728 29.0019 28.789 25.7178 33.2461L25.3936 33.6729C23.0621 36.6383 19.9015 38.7051 16.002 39.4111V35.9453C16.4356 35.4778 17.1125 34.7711 17.9111 33.9326C18.7912 33.0085 19.8109 31.9294 20.7881 30.8525C21.7641 29.777 22.7048 28.6966 23.4229 27.7695C23.7815 27.3065 24.0902 26.8736 24.3223 26.4941C24.5456 26.1289 24.7294 25.7622 24.7861 25.4434L24.8389 25.1484L24.6035 24.9629C24.4993 24.8811 24.433 24.8221 24.3623 24.7617C24.2992 24.7079 24.2079 24.6302 24.0889 24.5732C23.8478 24.458 23.5758 24.4703 23.2871 24.4795L23.1074 24.4854L22.9727 24.6035C21.5141 25.8883 20.1774 27.3823 18.8984 28.8965C17.9097 30.067 16.9639 31.2378 16.0098 32.3555L16 25.2842C16.7436 24.4851 18.3036 22.7599 19.7842 21.0596C20.5738 20.1528 21.3439 19.2499 21.958 18.4971C22.5579 17.7618 23.0458 17.1254 23.2334 16.7734L23.2324 16.7725C23.2898 16.6651 23.3493 16.5579 23.3916 16.4648C23.4369 16.365 23.4806 16.2462 23.4932 16.1055C23.5169 15.8388 23.4121 15.5884 23.3252 15.3691L23.2188 15.1016L22.9336 15.0586L22.3467 14.9717L22.2266 14.9541L22.1123 14.9932C21.8541 15.0809 21.5825 15.2739 21.3291 15.4863C21.0637 15.7089 20.7696 15.9946 20.4609 16.3184C19.8425 16.9671 19.1382 17.7977 18.4473 18.6484C17.7552 19.5006 17.0702 20.3812 16.4893 21.1328C16.3146 21.3589 16.1495 21.5721 15.9971 21.7695C15.9345 19.3617 15.9697 16.9446 15.9541 14.5127C15.9608 14.1819 15.9999 13.7292 15.9707 13.3379C15.9389 12.9113 15.8268 12.4605 15.4971 12.04L15.3652 11.873L15.1533 11.8516L14.8115 11.8184C14.7104 11.8115 14.5964 11.8091 14.4736 11.833C14.2336 11.8798 14.0362 12.0173 13.8389 12.1484L13.6543 12.2705L13.6211 12.4893C13.2151 15.1446 13.3978 18.1008 13.4854 20.8027C12.8785 20.0291 12.1235 19.087 11.3418 18.1904C10.7076 17.463 10.0497 16.7563 9.43555 16.1885C8.91145 15.7039 8.37894 15.2819 7.89648 15.0537L7.69336 14.9688C7.5959 14.9333 7.49595 14.8967 7.41113 14.875C7.31003 14.8491 7.18927 14.8326 7.0498 14.8623C6.93925 14.8859 6.84051 14.9363 6.7959 14.958C6.73675 14.9867 6.66995 15.0188 6.57031 15.0596L6.2627 15.1865L6.25977 15.5186C6.25722 15.8379 6.41401 16.1883 6.58594 16.4961C6.77117 16.8277 7.03068 17.2054 7.33398 17.6074C7.942 18.4132 8.76067 19.3599 9.61035 20.2979C10.4617 21.2376 11.3534 22.1781 12.1084 22.9736C12.7781 23.6793 13.3304 24.263 13.6641 24.6367L13.5322 31.9229C12.9941 31.2442 11.7869 29.7659 10.5732 28.3408C9.95109 27.6103 9.32515 26.8902 8.78516 26.2979C8.38689 25.8609 8.02068 25.4775 7.7334 25.21L7.47461 24.9844C7.23424 24.793 7.0149 24.6801 6.77246 24.6094C6.55555 24.5461 6.31819 24.5187 6.09961 24.4863L5.8916 24.4551L5.72461 24.582L5.38477 24.8389L5.18262 24.9912L5.18652 25.2441C5.19099 25.5929 5.3605 25.9802 5.5625 26.3389C5.77622 26.7183 6.07513 27.148 6.4248 27.6045C7.12531 28.519 8.06545 29.5827 9.04102 30.6299C10.8599 32.5823 12.8773 34.5607 13.6904 35.3936L13.5918 39.2725C12.6227 39.0276 11.6833 38.7604 10.7861 38.3906H10.7871C6.5818 36.6568 3.64801 32.8385 2.04785 28.9258L1.89746 28.5469L1.89551 28.543L1.70605 28.0449L1.5293 27.543C1.47285 27.3753 1.41909 27.2069 1.36719 27.0381L1.21777 26.5293C1.17055 26.3592 1.12568 26.1886 1.08301 26.0176L0.961914 25.5029C0.923922 25.3307 0.887851 25.1582 0.854492 24.9854L0.761719 24.4658C0.733004 24.2922 0.706624 24.1184 0.682617 23.9443L0.618164 23.4219C0.598863 23.2473 0.581977 23.0723 0.567383 22.8975L0.530273 22.3721C0.520553 22.197 0.512835 22.0219 0.507812 21.8467L0.5 21.3203C0.499685 21.1451 0.501485 20.97 0.505859 20.7949L0.526367 20.2686C0.535627 20.0933 0.547633 19.9182 0.561523 19.7432L0.609375 19.2188C0.646692 18.8697 0.69387 18.5218 0.75 18.1748C0.778107 18.0011 0.808076 17.8273 0.84082 17.6543L0.946289 17.1367C0.983595 16.9647 1.02342 16.7932 1.06543 16.6221L1.19824 16.1094C1.24479 15.9393 1.29355 15.7695 1.34473 15.6006L1.50586 15.0947C1.56173 14.9267 1.62024 14.7595 1.68066 14.5928L1.86816 14.0947C1.93298 13.9294 2.00003 13.7644 2.06934 13.6006L2.28418 13.1113C2.43172 12.7866 2.58812 12.465 2.75293 12.1475L2.75195 12.1465C3.8163 10.1457 5.40012 7.60317 7.31348 5.37598C9.22403 3.15205 11.4208 1.29645 13.7158 0.55957Z" stroke="#2E8B57"/>
</svg>
