<svg width="20" height="20" viewBox="0 0 20 20" fill="none" xmlns="http://www.w3.org/2000/svg">
<path fill-rule="evenodd" clip-rule="evenodd" d="M11.0508 11.4587C10.7813 11.0377 10.625 10.5373 10.625 10.0003C10.625 8.50455 11.8376 7.29199 13.3333 7.29199C14.8291 7.29199 16.0417 8.50455 16.0417 10.0003C16.0417 11.4961 14.8291 12.7087 13.3333 12.7087H6.66667C5.1709 12.7087 3.95834 11.4961 3.95834 10.0003C3.95834 8.50455 5.1709 7.29199 6.66667 7.29199C8.16244 7.29199 9.37501 8.50455 9.37501 10.0003C9.37501 10.5373 9.21876 11.0377 8.94925 11.4587H11.0508ZM11.875 10.0003C11.875 9.19491 12.5279 8.54199 13.3333 8.54199C14.1388 8.54199 14.7917 9.19491 14.7917 10.0003C14.7917 10.8057 14.1388 11.4587 13.3333 11.4587C12.5279 11.4587 11.875 10.8057 11.875 10.0003ZM6.66667 11.4587C7.47209 11.4587 8.12501 10.8057 8.12501 10.0003C8.12501 9.19491 7.47209 8.54199 6.66667 8.54199C5.86126 8.54199 5.20834 9.19491 5.20834 10.0003C5.20834 10.8057 5.86126 11.4587 6.66667 11.4587Z" fill="#FBE6C2"/>
<path fill-rule="evenodd" clip-rule="evenodd" d="M10 1.04199C5.05245 1.04199 1.04167 5.05277 1.04167 10.0003C1.04167 14.9479 5.05245 18.9587 10 18.9587C14.9476 18.9587 18.9583 14.9479 18.9583 10.0003C18.9583 5.05277 14.9476 1.04199 10 1.04199ZM2.29167 10.0003C2.29167 5.74313 5.74281 2.29199 10 2.29199C14.2572 2.29199 17.7083 5.74313 17.7083 10.0003C17.7083 14.2575 14.2572 17.7087 10 17.7087C5.74281 17.7087 2.29167 14.2575 2.29167 10.0003Z" fill="#FBE6C2"/>
</svg>
