<svg width="42" height="42" viewBox="0 0 42 42" fill="none" xmlns="http://www.w3.org/2000/svg">
<circle cx="21" cy="21" r="20" stroke="#FBE6C2"/>
<path d="M25.6992 28.2934H16.3009C15.0022 28.2934 13.9412 27.2324 13.9412 25.9337V16.5355C13.9412 15.2368 15.0022 14.1758 16.3009 14.1758H25.6992C26.9979 14.1758 28.0589 15.2368 28.0589 16.5355V25.9337C28.0589 27.2382 27.0037 28.2934 25.6992 28.2934Z" stroke="#FBE6C2"/>
<path d="M18.4406 23.8005C19.1247 24.4847 20.035 24.8615 21.0032 24.8615C21.9714 24.8615 22.8759 24.4847 23.5658 23.8005C24.25 23.1164 24.6268 22.2061 24.6268 21.2379C24.6268 20.2697 24.25 19.3594 23.5658 18.6753C22.8817 17.9911 21.9714 17.6143 21.0032 17.6143C20.035 17.6143 19.1247 17.9911 18.4406 18.6753C17.7564 19.3594 17.3796 20.2697 17.3796 21.2379C17.3796 22.2061 17.7564 23.1164 18.4406 23.8005Z" stroke="#FBE6C2"/>
<path d="M25.3327 17.495C25.717 17.495 26.0285 17.1835 26.0285 16.7993C26.0285 16.415 25.717 16.1035 25.3327 16.1035C24.9485 16.1035 24.637 16.415 24.637 16.7993C24.637 17.1835 24.9485 17.495 25.3327 17.495Z" stroke="#FBE6C2"/>
</svg>
