<svg width="20" height="20" viewBox="0 0 20 20" fill="none" xmlns="http://www.w3.org/2000/svg">
<path fill-rule="evenodd" clip-rule="evenodd" d="M2.70833 8.45307C2.70833 4.37055 5.9625 1.04199 9.99999 1.04199C14.0375 1.04199 17.2917 4.37055 17.2917 8.45307C17.2917 10.424 16.73 12.5403 15.737 14.3685C14.7453 16.1946 13.2964 17.7813 11.4838 18.6286C10.5421 19.0687 9.45786 19.0687 8.51624 18.6286C6.70364 17.7813 5.25468 16.1946 4.26296 14.3685C3.27002 12.5403 2.70833 10.424 2.70833 8.45307ZM9.99999 2.29199C6.67369 2.29199 3.95833 5.03989 3.95833 8.45307C3.95833 10.2006 4.46052 12.1132 5.36141 13.772C6.26353 15.433 7.53835 16.7917 9.04553 17.4962C9.6517 17.7795 10.3483 17.7795 10.9545 17.4962C12.4616 16.7917 13.7365 15.433 14.6386 13.772C15.5395 12.1132 16.0417 10.2006 16.0417 8.45307C16.0417 5.03989 13.3263 2.29199 9.99999 2.29199ZM9.99999 6.45866C8.96446 6.45866 8.12499 7.29813 8.12499 8.33366C8.12499 9.36919 8.96446 10.2087 9.99999 10.2087C11.0355 10.2087 11.875 9.36919 11.875 8.33366C11.875 7.29813 11.0355 6.45866 9.99999 6.45866ZM6.87499 8.33366C6.87499 6.60777 8.2741 5.20866 9.99999 5.20866C11.7259 5.20866 13.125 6.60777 13.125 8.33366C13.125 10.0595 11.7259 11.4587 9.99999 11.4587C8.2741 11.4587 6.87499 10.0595 6.87499 8.33366Z" fill="#FBE6C2"/>
</svg>
