<svg width="20" height="20" viewBox="0 0 20 20" fill="none" xmlns="http://www.w3.org/2000/svg">
<path fill-rule="evenodd" clip-rule="evenodd" d="M5.00623 2.83881C6.40629 1.43875 8.76891 1.54518 9.74375 3.29195L10.2846 4.26106C10.9212 5.40174 10.6499 6.84097 9.71799 7.78428C9.70558 7.80129 9.6398 7.89706 9.63161 8.06441C9.62115 8.27801 9.69701 8.77199 10.4624 9.53735C11.2275 10.3025 11.7214 10.3785 11.9351 10.3681C12.1026 10.36 12.1984 10.2941 12.2154 10.2817C13.1588 9.3498 14.598 9.07853 15.7387 9.71512L16.7078 10.256C18.4545 11.2308 18.561 13.5934 17.1609 14.9935C16.412 15.7424 15.4163 16.4078 14.2461 16.4521C12.512 16.5179 9.63263 16.0701 6.78114 13.2186C3.92966 10.3671 3.48183 7.48773 3.54757 5.75362C3.59193 4.58345 4.25735 3.58769 5.00623 2.83881ZM8.65223 3.90111C8.15305 3.00666 6.81164 2.80116 5.89011 3.72269C5.24399 4.36881 4.82393 5.08199 4.79668 5.80097C4.74185 7.24709 5.09889 9.76855 7.66503 12.3347C10.2312 14.9008 12.7526 15.2579 14.1987 15.203C14.9177 15.1758 15.6309 14.7557 16.277 14.1096C17.1986 13.1881 16.9931 11.8467 16.0986 11.3475L15.1295 10.8066C14.5267 10.4702 13.6799 10.585 13.0855 11.1794L13.0853 11.1796C13.0269 11.2379 12.6554 11.5845 11.9958 11.6166C11.3206 11.6495 10.5034 11.3461 9.57849 10.4212C8.65331 9.49606 8.35004 8.67856 8.38311 8.00328C8.4154 7.34368 8.76225 6.97235 8.82029 6.9143L8.82032 6.91428C9.41475 6.31985 9.52951 5.47306 9.19307 4.87022L8.65223 3.90111Z" fill="#FBE6C2"/>
</svg>
