<svg width="40" height="40" viewBox="0 0 40 40" fill="none" xmlns="http://www.w3.org/2000/svg">
<path d="M13.883 26.6643C19.2582 26.6643 22.2186 23.5067 22.2186 17.773C22.2186 12.4049 14.62 3.86993 14.2965 3.50987C14.1883 3.39726 14.039 3.3335 13.883 3.3335C13.727 3.3335 13.5775 3.39726 13.4695 3.50987C13.1461 3.86993 5.54749 12.4049 5.54749 17.773C5.54749 23.5067 8.50779 26.6643 13.883 26.6643ZM13.883 4.72845C15.4739 6.59553 21.1071 13.5057 21.1071 17.773C21.1071 21.3222 19.8536 25.5529 13.883 25.5529C7.91248 25.5529 6.65889 21.3222 6.65889 17.773C6.65889 13.5057 12.2919 6.59553 13.883 4.72845Z" fill="#2E8B57"/>
<path d="M29.4427 27.7756C32.6211 27.7756 34.444 25.6545 34.444 21.9551C34.444 18.4814 30.0366 13.7064 29.8494 13.5045C29.742 13.396 29.5954 13.335 29.4427 13.335C29.2899 13.335 29.1434 13.396 29.0359 13.5045C28.8487 13.7064 24.4413 18.4814 24.4413 21.9551C24.4413 25.6545 26.2639 27.7756 29.4427 27.7756ZM29.4427 14.722C30.5145 15.9691 33.3326 19.4835 33.3326 21.9551C33.3326 25.0799 32.0239 26.6642 29.4427 26.6642C26.8614 26.6642 25.5528 25.0799 25.5528 21.9551C25.5528 19.4835 28.3706 15.9691 29.4427 14.722Z" fill="#2E8B57"/>
<path d="M21.2459 25.7404C21.1043 25.901 17.7728 29.706 17.7728 32.221C17.7728 35.0462 19.1908 36.6666 21.6627 36.6666C24.1343 36.6666 25.5526 35.0462 25.5526 32.221C25.5526 29.706 22.2211 25.901 22.0795 25.7404C21.971 25.6259 21.8204 25.561 21.6627 25.561C21.5051 25.561 21.3542 25.6259 21.2459 25.7404ZM21.6627 35.5552C19.8195 35.5552 18.8842 34.4332 18.8842 32.221C18.8842 30.7105 20.623 28.2516 21.6627 26.9706C22.703 28.2489 24.4412 30.7083 24.4412 32.221C24.4412 34.4332 23.5059 35.5552 21.6627 35.5552Z" fill="#2E8B57"/>
<path d="M12.7158 24.4386C12.7342 24.4405 12.7527 24.4413 12.7714 24.4413C13.0674 24.4413 13.3116 24.209 13.3266 23.9133C13.3412 23.6175 13.1217 23.3622 12.827 23.3326C11.6662 23.2743 10.5858 22.7227 9.85778 21.8167C8.37981 19.8896 8.8693 16.7831 8.87364 16.7521C8.91407 16.4545 8.71057 16.1785 8.41427 16.1291C8.11797 16.08 7.83605 16.2751 7.77798 16.5698C7.75329 16.7166 7.2022 20.174 8.97214 22.4879C9.88275 23.6447 11.2459 24.355 12.7158 24.4386Z" fill="#2E8B57"/>
<path d="M28.887 25.5528C29.9124 25.5381 30.89 25.117 31.605 24.3819C32.2239 23.5858 32.4478 22.5518 32.2134 21.5711C32.1564 21.2748 31.8736 21.0781 31.576 21.1278C31.2783 21.1777 31.0748 21.4558 31.1177 21.7546C31.2878 22.4107 31.157 23.1088 30.7609 23.6588C30.2581 24.1478 29.5881 24.4275 28.887 24.4414C28.5801 24.4414 28.3313 24.6902 28.3313 24.9971C28.3313 25.3039 28.5801 25.5528 28.887 25.5528Z" fill="#2E8B57"/>
<path d="M21.3552 33.3909C21.1818 33.3209 21.0481 33.1784 20.9889 33.001C20.9301 32.8238 20.9518 32.6293 21.0486 32.4694C21.1856 32.1948 21.0744 31.8608 20.7995 31.7238C20.5249 31.5865 20.1912 31.698 20.0539 31.9726C19.8254 32.397 19.7823 32.8971 19.9345 33.3543C20.087 33.8115 20.4213 34.1857 20.8584 34.3883C21.1333 34.5256 21.467 34.4141 21.6043 34.1393C21.7413 33.8647 21.6301 33.5309 21.3552 33.3936V33.3909Z" fill="#2E8B57"/>
</svg>
