<svg width="40" height="40" viewBox="0 0 40 40" fill="none" xmlns="http://www.w3.org/2000/svg">
<path d="M29.8554 24.669C28.3441 22.0415 26.8526 19.4535 25.3314 16.8359C27.6132 15.5221 29.8751 14.2084 32.1668 12.8848C32.552 13.5466 32.9274 14.1985 33.3028 14.8406C34.1819 16.3618 35.0709 17.8829 35.9402 19.414C36.8588 21.0241 36.9576 22.644 35.9402 24.2541C35.5648 24.8468 35.229 25.4592 34.8734 26.0618C33.9844 27.583 33.1052 29.1041 32.2063 30.6154C31.4359 31.9193 30.2802 32.5811 28.7689 32.6108C28.028 32.6305 27.2773 32.6108 26.5365 32.6108C26.4377 32.6108 26.3291 32.6108 26.1908 32.6108C26.1908 33.8257 26.1908 35.0012 26.1908 36.1865C26.171 36.1964 26.1512 36.1964 26.1314 36.2063C25.8351 35.6926 25.529 35.1691 25.2327 34.6555C24.1362 32.7589 23.0397 30.8525 21.9334 28.956C21.805 28.7387 21.7951 28.5806 21.9235 28.3534C23.2965 26.0025 24.6498 23.6318 26.0129 21.271C26.0524 21.2019 26.1019 21.1327 26.1908 21.0043C26.1908 22.2687 26.1908 23.454 26.1908 24.6591C27.4057 24.669 28.6009 24.669 29.8554 24.669ZM27.0205 17.2606C27.0304 17.3199 27.0304 17.3397 27.0403 17.3594C28.4133 19.7498 29.7961 22.1304 31.179 24.511C31.2284 24.5999 31.3865 24.6789 31.505 24.6888C31.9199 24.7085 32.3348 24.7085 32.7497 24.6986C34.2017 24.669 35.2981 23.7306 35.4759 22.3477C35.5846 21.4982 35.298 20.7376 34.8832 20.0166C33.8756 18.2682 32.8682 16.5297 31.8606 14.7912C31.8112 14.7122 31.7618 14.643 31.7026 14.5541C30.1221 15.4629 28.5713 16.3716 27.0205 17.2606ZM33.6781 25.8543C30.8728 25.8543 28.0972 25.8543 25.2919 25.8543C25.2919 25.4098 25.2919 24.9851 25.2919 24.4714C24.4819 25.8741 23.7213 27.1977 22.9607 28.5214C22.9113 28.6004 22.941 28.7683 23.0003 28.8572C23.7115 30.1018 24.4325 31.3365 25.1437 32.5713C25.1832 32.6305 25.2326 32.6898 25.3314 32.8281C25.3314 32.3046 25.3314 31.8699 25.3314 31.4155C25.4796 31.4155 25.5882 31.4155 25.7068 31.4155C26.7341 31.4155 27.7614 31.4254 28.7985 31.4155C29.8653 31.3958 30.6951 30.9513 31.2482 30.0228C31.4556 29.677 31.6532 29.3313 31.8606 28.9757C32.4632 27.9386 33.0657 26.8915 33.6781 25.8543Z" fill="#2E8B57"/>
<path d="M22.5061 12.0056C21.8937 10.9487 21.3009 9.91151 20.6786 8.83483C19.1575 11.4623 17.656 14.0503 16.1349 16.6877C13.8531 15.3739 11.5911 14.0701 9.29949 12.7464C9.6057 12.213 9.90196 11.6895 10.2082 11.1759C11.1663 9.52628 12.1146 7.86681 13.0728 6.21721C13.7741 5.00224 14.7322 4.10336 16.1546 3.87617C16.856 3.76752 17.5969 3.79715 18.3179 3.79715C20.4022 3.79715 22.4764 3.8169 24.5607 3.82678C25.8349 3.83666 26.9117 4.28116 27.7118 5.27882C28.0575 5.71344 28.3142 6.22709 28.6007 6.70123C28.8575 7.13585 29.1143 7.58035 29.3712 8.03472C30.4281 7.43218 31.4455 6.83951 32.5419 6.21721C32.4826 6.34562 32.453 6.42465 32.4135 6.48392C31.0405 8.86447 29.6577 11.2351 28.2945 13.6157C28.1957 13.7836 28.0969 13.8626 27.8994 13.8626C25.1632 13.8528 22.4172 13.8626 19.6811 13.8626C19.6119 13.8626 19.5329 13.8528 19.4341 13.7836C20.4516 13.191 21.4591 12.6082 22.5061 12.0056ZM15.6706 15.0085C15.72 14.9689 15.7397 14.9591 15.7496 14.9393C17.1325 12.5489 18.5155 10.1486 19.8984 7.74827C19.9379 7.67913 19.928 7.54083 19.8885 7.46181C19.6712 7.04694 19.4439 6.64195 19.197 6.24684C18.2783 4.7948 16.4608 4.48859 15.157 5.5949C14.7717 5.92087 14.426 6.34561 14.1692 6.78024C13.1221 8.53849 12.1146 10.3165 11.0972 12.0945C11.0676 12.1538 11.038 12.2229 10.9984 12.3019C12.569 13.2107 14.1198 14.1096 15.6706 15.0085ZM28.7785 9.41763C28.1858 8.39034 27.6129 7.38279 27.0202 6.38513C26.5066 5.52576 25.7559 5.00224 24.7484 4.97261C23.1482 4.9331 21.538 4.95285 19.9378 4.95285C19.8884 4.95285 19.8292 4.97261 19.8489 4.97261C21.2318 7.36304 22.6246 9.75347 24.0173 12.1637C23.6123 12.4007 23.237 12.618 22.8222 12.865C22.9209 12.8847 22.9605 12.9045 23 12.9045C24.4718 12.9045 25.9535 12.9144 27.4253 12.8946C27.5339 12.8946 27.682 12.7761 27.7512 12.6674C28.3241 11.6895 28.8871 10.7017 29.46 9.72384C29.6378 9.41763 29.8157 9.11141 29.9836 8.80519C29.9638 8.79532 29.954 8.77557 29.9343 8.76569C29.5589 8.97312 29.1835 9.18056 28.7785 9.41763Z" fill="#2E8B57"/>
<path d="M20.5997 32.5712C20.4417 32.5712 20.3231 32.5712 20.1947 32.5712C17.7944 32.5712 15.3942 32.5811 12.9939 32.5712C11.1961 32.5613 9.82309 31.8304 8.92421 30.2203C7.729 28.0571 6.46455 25.9333 5.25946 23.78C4.49887 22.4366 4.49888 21.0734 5.26935 19.7202C5.67434 18.9991 6.0991 18.2879 6.52385 17.5471C5.4768 16.9445 4.44953 16.3519 3.33333 15.7098C3.50126 15.6999 3.59012 15.69 3.66915 15.69C6.4053 15.69 9.1514 15.69 11.8876 15.6802C12.1049 15.6802 12.2234 15.7493 12.332 15.937C13.6951 18.3175 15.0781 20.6981 16.4511 23.0688C16.4906 23.128 16.5202 23.1972 16.6091 23.3552C15.4929 22.7132 14.4557 22.1205 13.3988 21.5081C12.7962 22.5551 12.1937 23.5923 11.5615 24.6789C14.6138 24.6789 17.5969 24.6789 20.6096 24.6789C20.5997 27.336 20.5997 29.9338 20.5997 32.5712ZM19.3947 25.9235C19.3255 25.9136 19.2662 25.9037 19.2168 25.9037C16.5004 25.9037 13.7741 25.9037 11.0577 25.9136C10.9491 25.9136 10.801 26.0124 10.7417 26.1111C10.5046 26.4766 10.2972 26.852 10.0798 27.2372C9.50693 28.2744 9.63541 29.5585 10.396 30.3882C11.0183 31.0599 11.8282 31.3464 12.7074 31.3563C14.8706 31.3859 17.0437 31.3661 19.2069 31.376C19.2563 31.376 19.3058 31.3661 19.3749 31.3563C19.3947 29.5387 19.3947 27.7509 19.3947 25.9235ZM8.63772 27.3854C9.95147 24.906 11.4133 22.5551 12.7765 20.1252C13.1815 20.3524 13.5569 20.5697 13.9322 20.7771C13.9223 20.6388 13.8828 20.5499 13.8335 20.461C13.142 19.2658 12.4506 18.0805 11.769 16.8754C11.6604 16.6778 11.5319 16.6186 11.3146 16.6186C9.92179 16.6284 8.52904 16.6185 7.13627 16.6284C7.04737 16.6284 6.95848 16.6383 6.78068 16.6482C7.23506 16.9149 7.61041 17.1421 8.00552 17.3693C7.93638 17.4977 7.88706 17.6063 7.82779 17.7051C7.31414 18.5941 6.79056 19.4831 6.28679 20.382C5.74351 21.35 5.73364 22.3082 6.29668 23.2861C6.96837 24.4418 7.62032 25.6074 8.28213 26.7631C8.40066 26.9903 8.52906 27.1977 8.63772 27.3854Z" fill="#2E8B57"/>
</svg>
