<svg width="436" height="77" viewBox="0 0 436 77" fill="none" xmlns="http://www.w3.org/2000/svg">
<path d="M215.324 3.13334L215.178 4.62629L215.324 3.13334ZM435.457 71.6452C435.653 72.4502 435.16 73.2615 434.355 73.4575L421.238 76.6503C420.433 76.8463 419.621 76.3526 419.426 75.5477C419.23 74.7428 419.723 73.9314 420.528 73.7355L432.188 70.8973L429.35 59.2378C429.154 58.4329 429.647 57.6215 430.452 57.4256C431.257 57.2296 432.069 57.7233 432.265 58.5282L435.457 71.6452ZM1 63.9932C0.0465522 62.8352 0.0466374 62.8351 0.0467325 62.835C0.0467774 62.835 0.0468826 62.8349 0.0469724 62.8348C0.0471522 62.8347 0.0473719 62.8345 0.0476312 62.8343C0.04815 62.8339 0.0488277 62.8333 0.0496645 62.8326C0.0513379 62.8312 0.0536471 62.8293 0.0565909 62.8269C0.0624787 62.8221 0.0709052 62.8152 0.0818628 62.8063C0.103778 62.7884 0.135816 62.7623 0.177915 62.7282C0.262113 62.6601 0.386553 62.56 0.550725 62.4294C0.879066 62.1684 1.36635 61.7856 2.0085 61.2936C3.29277 60.3097 5.19664 58.8887 7.68745 57.1304L9.41754 59.5813C6.96038 61.3158 5.08799 62.7135 3.83301 63.675C3.20554 64.1558 2.73244 64.5274 2.41781 64.7776C2.2605 64.9027 2.1428 64.9974 2.06524 65.0602C2.02646 65.0916 1.99771 65.115 1.97905 65.1302C1.96973 65.1378 1.96292 65.1434 1.95865 65.1469C1.95652 65.1486 1.95502 65.1499 1.95415 65.1506C1.95371 65.1509 1.95344 65.1512 1.95332 65.1513C1.95326 65.1513 1.95325 65.1513 1.95327 65.1513C1.95328 65.1513 1.95332 65.1513 1.95333 65.1513C1.95338 65.1512 1.95345 65.1512 1 63.9932ZM23.7087 46.6945C28.5721 43.7558 34.1342 40.5818 40.3462 37.3209L41.7406 39.9771C35.5852 43.2083 30.0756 46.3525 25.2602 49.2622L23.7087 46.6945ZM57.454 28.9594C62.9808 26.4514 68.8594 23.9655 75.0685 21.5669L76.1496 24.3653C69.9966 26.7423 64.1709 29.2058 58.6937 31.6913L57.454 28.9594ZM93.0412 15.2147C98.9202 13.3274 105.032 11.5502 111.362 9.92505L112.108 12.8308C105.837 14.4406 99.783 16.2013 93.9582 18.0711L93.0412 15.2147ZM129.978 5.74289C136.094 4.56378 142.38 3.54323 148.826 2.71287L149.209 5.68828C142.827 6.51042 136.603 7.52095 130.546 8.68865L129.978 5.74289ZM167.799 0.876697C174.027 0.473427 180.382 0.258342 186.857 0.256368L186.858 3.25637C180.449 3.25833 174.158 3.47121 167.993 3.87042L167.799 0.876697ZM205.939 0.869095C209.091 1.07279 212.268 1.32903 215.469 1.64039L215.178 4.62629C212.01 4.3181 208.866 4.06447 205.745 3.86284L205.939 0.869095ZM215.469 1.64039C218.692 1.95396 221.894 2.29673 225.074 2.66697L224.727 5.64683C221.566 5.27875 218.383 4.938 215.178 4.62629L215.469 1.64039ZM244.203 5.25506C250.647 6.24775 256.985 7.34534 263.206 8.53228L262.644 11.4791C256.456 10.2987 250.154 9.20719 243.746 8.22008L244.203 5.25506ZM282.076 12.4733C288.474 13.9248 294.728 15.4605 300.826 17.0613L300.064 19.963C293.997 18.3704 287.776 16.8427 281.412 15.3989L282.076 12.4733ZM319.404 22.267C325.743 24.1554 331.879 26.0987 337.797 28.0713L336.849 30.9174C330.96 28.9545 324.855 27.021 318.548 25.1421L319.404 22.267ZM355.982 34.4569C362.306 36.7914 368.313 39.1291 373.979 41.4301L372.85 44.2096C367.212 41.9203 361.235 39.5942 354.943 37.2712L355.982 34.4569ZM391.719 48.9752C398.213 51.8654 404.053 54.6107 409.184 57.1164L407.867 59.8121C402.767 57.3211 396.959 54.5909 390.499 51.716L391.719 48.9752ZM426.402 65.9727C429.13 67.4572 431.22 68.6408 432.63 69.4547C433.335 69.8616 433.87 70.1762 434.23 70.3897C434.41 70.4964 434.546 70.578 434.638 70.6331C434.684 70.6607 434.719 70.6817 434.742 70.696C434.754 70.7031 434.763 70.7086 434.769 70.7124C434.773 70.7142 434.775 70.7157 434.777 70.7167C434.778 70.7173 434.778 70.7177 434.779 70.718C434.779 70.7181 434.779 70.7183 434.779 70.7184C434.779 70.7184 434.78 70.7185 434.78 70.7185C434.78 70.7185 434.78 70.7186 434 72C433.22 73.2814 433.22 73.2815 433.22 73.2815C433.22 73.2815 433.22 73.2815 433.22 73.2815C433.22 73.2815 433.22 73.2814 433.22 73.2814C433.22 73.2813 433.22 73.281 433.219 73.2807C433.218 73.28 433.216 73.2789 433.214 73.2774C433.209 73.2744 433.201 73.2696 433.19 73.2632C433.169 73.2503 433.136 73.2308 433.093 73.2047C433.006 73.1524 432.875 73.0738 432.7 72.97C432.35 72.7624 431.825 72.4538 431.13 72.0529C429.741 71.251 427.673 70.0797 424.968 68.6078L426.402 65.9727ZM215.324 3.13334L215.178 4.62629L215.324 3.13334ZM435.457 71.6452C435.653 72.4502 435.16 73.2615 434.355 73.4575L421.238 76.6503C420.433 76.8463 419.621 76.3526 419.426 75.5477C419.23 74.7428 419.723 73.9314 420.528 73.7355L432.188 70.8973L429.35 59.2378C429.154 58.4329 429.647 57.6215 430.452 57.4256C431.257 57.2296 432.069 57.7233 432.265 58.5282L435.457 71.6452ZM1 63.9932C0.0465522 62.8352 0.0466374 62.8351 0.0467325 62.835C0.0467774 62.835 0.0468826 62.8349 0.0469724 62.8348C0.0471522 62.8347 0.0473719 62.8345 0.0476312 62.8343C0.04815 62.8339 0.0488277 62.8333 0.0496645 62.8326C0.0513379 62.8312 0.0536471 62.8293 0.0565909 62.8269C0.0624787 62.8221 0.0709052 62.8152 0.0818628 62.8063C0.103778 62.7884 0.135816 62.7623 0.177915 62.7282C0.262113 62.6601 0.386553 62.56 0.550725 62.4294C0.879066 62.1684 1.36635 61.7856 2.0085 61.2936C3.29277 60.3097 5.19664 58.8887 7.68745 57.1304L9.41754 59.5813C6.96038 61.3158 5.08799 62.7135 3.83301 63.675C3.20554 64.1558 2.73244 64.5274 2.41781 64.7776C2.2605 64.9027 2.1428 64.9974 2.06524 65.0602C2.02646 65.0916 1.99771 65.115 1.97905 65.1302C1.96973 65.1378 1.96292 65.1434 1.95865 65.1469C1.95652 65.1486 1.95502 65.1499 1.95415 65.1506C1.95371 65.1509 1.95344 65.1512 1.95332 65.1513C1.95326 65.1513 1.95325 65.1513 1.95327 65.1513C1.95328 65.1513 1.95332 65.1513 1.95333 65.1513C1.95338 65.1512 1.95345 65.1512 1 63.9932ZM23.7087 46.6945C28.5721 43.7558 34.1342 40.5818 40.3462 37.3209L41.7406 39.9771C35.5852 43.2083 30.0756 46.3525 25.2602 49.2622L23.7087 46.6945ZM57.454 28.9594C62.9808 26.4514 68.8594 23.9655 75.0685 21.5669L76.1496 24.3653C69.9966 26.7423 64.1709 29.2058 58.6937 31.6913L57.454 28.9594ZM93.0412 15.2147C98.9202 13.3274 105.032 11.5502 111.362 9.92505L112.108 12.8308C105.837 14.4406 99.783 16.2013 93.9582 18.0711L93.0412 15.2147ZM129.978 5.74289C136.094 4.56378 142.38 3.54323 148.826 2.71287L149.209 5.68828C142.827 6.51042 136.603 7.52095 130.546 8.68865L129.978 5.74289ZM167.799 0.876697C174.027 0.473427 180.382 0.258342 186.857 0.256368L186.858 3.25637C180.449 3.25833 174.158 3.47121 167.993 3.87042L167.799 0.876697ZM205.939 0.869095C209.091 1.07279 212.268 1.32903 215.469 1.64039L215.178 4.62629C212.01 4.3181 208.866 4.06447 205.745 3.86284L205.939 0.869095ZM215.469 1.64039C218.692 1.95396 221.894 2.29673 225.074 2.66697L224.727 5.64683C221.566 5.27875 218.383 4.938 215.178 4.62629L215.469 1.64039ZM244.203 5.25506C250.647 6.24775 256.985 7.34534 263.206 8.53228L262.644 11.4791C256.456 10.2987 250.154 9.20719 243.746 8.22008L244.203 5.25506ZM282.076 12.4733C288.474 13.9248 294.728 15.4605 300.826 17.0613L300.064 19.963C293.997 18.3704 287.776 16.8427 281.412 15.3989L282.076 12.4733ZM319.404 22.267C325.743 24.1554 331.879 26.0987 337.797 28.0713L336.849 30.9174C330.96 28.9545 324.855 27.021 318.548 25.1421L319.404 22.267ZM355.982 34.4569C362.306 36.7914 368.313 39.1291 373.979 41.4301L372.85 44.2096C367.212 41.9203 361.235 39.5942 354.943 37.2712L355.982 34.4569ZM391.719 48.9752C398.213 51.8654 404.053 54.6107 409.184 57.1164L407.867 59.8121C402.767 57.3211 396.959 54.5909 390.499 51.716L391.719 48.9752ZM426.402 65.9727C429.13 67.4572 431.22 68.6408 432.63 69.4547C433.335 69.8616 433.87 70.1762 434.23 70.3897C434.41 70.4964 434.546 70.578 434.638 70.6331C434.684 70.6607 434.719 70.6817 434.742 70.696C434.754 70.7031 434.763 70.7086 434.769 70.7124C434.773 70.7142 434.775 70.7157 434.777 70.7167C434.778 70.7173 434.778 70.7177 434.779 70.718C434.779 70.7181 434.779 70.7183 434.779 70.7184C434.779 70.7184 434.78 70.7185 434.78 70.7185C434.78 70.7185 434.78 70.7186 434 72C433.22 73.2814 433.22 73.2815 433.22 73.2815C433.22 73.2815 433.22 73.2815 433.22 73.2815C433.22 73.2815 433.22 73.2814 433.22 73.2814C433.22 73.2813 433.22 73.281 433.219 73.2807C433.218 73.28 433.216 73.2789 433.214 73.2774C433.209 73.2744 433.201 73.2696 433.19 73.2632C433.169 73.2503 433.136 73.2308 433.093 73.2047C433.006 73.1524 432.875 73.0738 432.7 72.97C432.35 72.7624 431.825 72.4538 431.13 72.0529C429.741 71.251 427.673 70.0797 424.968 68.6078L426.402 65.9727Z" fill="#C9C9C9"/>
</svg>
