<svg width="42" height="44" viewBox="0 0 42 44" fill="none" xmlns="http://www.w3.org/2000/svg">
<path fill-rule="evenodd" clip-rule="evenodd" d="M16.5225 6.83833C17.158 5.04051 18.8726 3.75615 20.8833 3.75615C22.894 3.75615 24.6087 5.04051 25.2441 6.83833C25.5278 7.64084 26.4083 8.06146 27.2108 7.77781C28.0133 7.49417 28.4339 6.61367 28.1502 5.81116C27.0931 2.82033 24.2409 0.673828 20.8833 0.673828C17.5258 0.673828 14.6735 2.82033 13.6164 5.81116C13.3327 6.61367 13.7534 7.49417 14.5559 7.77781C15.3584 8.06146 16.2389 7.64084 16.5225 6.83833ZM1.87014 14.7312C1.76054 14.66 1.64526 14.6045 1.52695 14.5641C1.84165 13.9114 2.23941 13.3447 2.74216 12.8419C5.1496 10.4345 9.02431 10.4345 16.7737 10.4345H24.9933C32.7427 10.4345 36.6174 10.4345 39.0249 12.8419C39.5277 13.3447 39.9255 13.9116 40.2402 14.5643C40.1221 14.6046 40.007 14.6601 39.8976 14.7312C35.5814 17.5367 32.8698 19.2914 30.6166 20.417C30.4802 19.7054 29.8544 19.1677 29.103 19.1677C28.2519 19.1677 27.5619 19.8577 27.5619 20.7089V21.6502C23.2067 22.9643 18.5603 22.9643 14.2051 21.65V20.7089C14.2051 19.8577 13.5151 19.1677 12.664 19.1677C11.9127 19.1677 11.287 19.7053 11.1505 20.4167C8.89743 19.2911 6.18585 17.5364 1.87014 14.7312ZM0.334717 26.8735C0.334717 22.8656 0.334717 19.8941 0.667773 17.6259C5.34608 20.6668 8.34459 22.6062 11.1228 23.8006V24.8187C11.1228 25.6698 11.8128 26.3598 12.664 26.3598C13.5039 26.3598 14.1868 25.688 14.2048 24.8524C18.5822 26.0065 23.1848 26.0066 27.5622 24.8526C27.5803 25.6881 28.2632 26.3598 29.103 26.3598C29.9542 26.3598 30.6442 25.6698 30.6442 24.8187V23.8009C33.4225 22.6066 36.421 20.6673 41.0993 17.6263C41.4323 19.8944 41.4323 22.8658 41.4323 26.8735C41.4323 34.623 41.4323 38.4977 39.0249 40.9051C36.6174 43.3126 32.7427 43.3126 24.9933 43.3126H16.7737C9.02431 43.3126 5.1496 43.3126 2.74216 40.9051C0.334717 38.4977 0.334717 34.623 0.334717 26.8735Z" fill="#9A98A5"/>
</svg>
