<svg width="44" height="44" viewBox="0 0 44 44" fill="none" xmlns="http://www.w3.org/2000/svg">
<path fill-rule="evenodd" clip-rule="evenodd" d="M21.8948 2.2915H22.1052C26.3373 2.29148 29.6538 2.29146 32.2416 2.63937C34.8902 2.99548 36.9803 3.7386 38.6208 5.37909C40.2613 7.01957 41.0044 9.10962 41.3605 11.7583C41.7084 14.346 41.7084 17.6626 41.7084 21.8947V22.105C41.7084 26.3371 41.7084 29.6537 41.3605 32.2414C41.0044 34.8901 40.2613 36.9801 38.6208 38.6206C36.9803 40.2611 34.8902 41.0042 32.2416 41.3603C29.6538 41.7082 26.3373 41.7082 22.1052 41.7082H21.8948C17.6628 41.7082 14.3462 41.7082 11.7585 41.3603C9.1098 41.0042 7.01976 40.2611 5.37927 38.6206C3.73879 36.9801 2.99566 34.8901 2.63956 32.2414C2.29165 29.6537 2.29166 26.3371 2.29169 22.105V21.8946C2.29166 17.6626 2.29165 14.346 2.63956 11.7583C2.99566 9.10962 3.73879 7.01957 5.37927 5.37909C7.01976 3.7386 9.1098 2.99548 11.7585 2.63937C14.3462 2.29146 17.6628 2.29148 21.8948 2.2915ZM12.1249 5.36485C9.78117 5.67996 8.36818 6.27926 7.32381 7.32363C6.27944 8.368 5.68014 9.78099 5.36503 12.1247C5.04461 14.508 5.04169 17.6398 5.04169 21.9998C5.04169 26.3599 5.04461 29.4917 5.36503 31.8749C5.68014 34.2187 6.27944 35.6317 7.32381 36.676C8.36818 37.7204 9.78117 38.3197 12.1249 38.6348C14.5082 38.9552 17.6399 38.9582 22 38.9582C26.3601 38.9582 29.4918 38.9552 31.8751 38.6348C34.2189 38.3197 35.6319 37.7204 36.6762 36.676C37.7206 35.6317 38.3199 34.2187 38.635 31.8749C38.9554 29.4917 38.9584 26.3599 38.9584 21.9998C38.9584 17.6398 38.9554 14.508 38.635 12.1247C38.3199 9.78099 37.7206 8.368 36.6762 7.32363C35.6319 6.27926 34.2189 5.67996 31.8751 5.36485C29.4918 5.04443 26.3601 5.0415 22 5.0415C17.6399 5.0415 14.5082 5.04443 12.1249 5.36485ZM19.2816 11.8375C19.8315 12.3612 19.8528 13.2315 19.329 13.7814L14.0909 19.2814C13.8314 19.5539 13.4716 19.7082 13.0953 19.7082C12.719 19.7082 12.3591 19.5539 12.0996 19.2814L10.0043 17.0814C9.48061 16.5315 9.50184 15.6612 10.0517 15.1375C10.6016 14.6138 11.472 14.635 11.9957 15.1849L13.0953 16.3394L17.3377 11.8849C17.8614 11.335 18.7317 11.3138 19.2816 11.8375ZM22.4584 16.4998C22.4584 15.7404 23.074 15.1248 23.8334 15.1248H33C33.7594 15.1248 34.375 15.7404 34.375 16.4998C34.375 17.2592 33.7594 17.8748 33 17.8748H23.8334C23.074 17.8748 22.4584 17.2592 22.4584 16.4998ZM19.2816 24.6708C19.8315 25.1945 19.8528 26.0649 19.329 26.6148L14.0909 32.1148C13.8314 32.3873 13.4716 32.5415 13.0953 32.5415C12.719 32.5415 12.3591 32.3873 12.0996 32.1148L10.0043 29.9148C9.48061 29.3649 9.50184 28.4945 10.0517 27.9708C10.6016 27.4471 11.472 27.4683 11.9957 28.0182L13.0953 29.1728L17.3377 24.7182C17.8614 24.1683 18.7317 24.1471 19.2816 24.6708ZM22.4584 29.3332C22.4584 28.5738 23.074 27.9582 23.8334 27.9582H33C33.7594 27.9582 34.375 28.5738 34.375 29.3332C34.375 30.0926 33.7594 30.7082 33 30.7082H23.8334C23.074 30.7082 22.4584 30.0926 22.4584 29.3332Z" fill="#6E56CF"/>
</svg>
