<svg width="44" height="44" viewBox="0 0 44 44" fill="none" xmlns="http://www.w3.org/2000/svg">
<path fill-rule="evenodd" clip-rule="evenodd" d="M22 15.1252C18.203 15.1252 15.125 18.2032 15.125 22.0002C15.125 25.7971 18.203 28.8752 22 28.8752C25.7969 28.8752 28.875 25.7971 28.875 22.0002C28.875 18.2032 25.7969 15.1252 22 15.1252ZM17.875 22.0002C17.875 19.722 19.7218 17.8752 22 17.8752C24.2781 17.8752 26.125 19.722 26.125 22.0002C26.125 24.2783 24.2781 26.1252 22 26.1252C19.7218 26.1252 17.875 24.2783 17.875 22.0002Z" fill="#0D9488"/>
<path fill-rule="evenodd" clip-rule="evenodd" d="M22 5.9585C13.7241 5.9585 8.14966 10.9162 4.91433 15.1194L4.85599 15.1952C4.1243 16.1455 3.4504 17.0207 2.99322 18.0556C2.50364 19.1638 2.29163 20.3716 2.29163 22.0002C2.29163 23.6287 2.50364 24.8366 2.99322 25.9448C3.45041 26.9796 4.1243 27.8549 4.856 28.8051L4.91433 28.8809C8.14966 33.0841 13.7241 38.0418 22 38.0418C30.2759 38.0418 35.8503 33.0841 39.0856 28.8809L39.1439 28.8052C39.8756 27.8549 40.5495 26.9797 41.0067 25.9448C41.4963 24.8366 41.7083 23.6287 41.7083 22.0002C41.7083 20.3716 41.4963 19.1638 41.0067 18.0556C40.5495 17.0207 39.8756 16.1454 39.1439 15.1952L39.0856 15.1194C35.8503 10.9162 30.2759 5.9585 22 5.9585ZM7.09353 16.7968C10.0808 12.9158 14.9423 8.7085 22 8.7085C29.0576 8.7085 33.9191 12.9158 36.9064 16.7968C37.7105 17.8414 38.1814 18.4656 38.4912 19.1668C38.7808 19.8222 38.9583 20.6232 38.9583 22.0002C38.9583 23.3771 38.7808 24.1781 38.4912 24.8335C38.1814 25.5347 37.7105 26.1589 36.9064 27.2035C33.9191 31.0845 29.0576 35.2918 22 35.2918C14.9423 35.2918 10.0808 31.0845 7.09353 27.2035C6.28946 26.1589 5.81847 25.5347 5.50868 24.8335C5.21916 24.1781 5.04163 23.3771 5.04163 22.0002C5.04163 20.6232 5.21916 19.8222 5.50868 19.1668C5.81847 18.4656 6.28946 17.8414 7.09353 16.7968Z" fill="#0D9488"/>
</svg>
