<svg width="44" height="44" viewBox="0 0 44 44" fill="none" xmlns="http://www.w3.org/2000/svg">
<path fill-rule="evenodd" clip-rule="evenodd" d="M20.625 3.6665C20.625 2.90711 21.2406 2.2915 22 2.2915C32.8846 2.2915 41.7083 11.1152 41.7083 21.9998C41.7083 32.8844 32.8846 41.7082 22 41.7082C11.1153 41.7082 2.29163 32.8844 2.29163 21.9998C2.29163 21.2404 2.90723 20.6248 3.66663 20.6248C4.42602 20.6248 5.04163 21.2404 5.04163 21.9998C5.04163 31.3657 12.6341 38.9582 22 38.9582C31.3658 38.9582 38.9583 31.3657 38.9583 21.9998C38.9583 12.634 31.3658 5.0415 22 5.0415C21.2406 5.0415 20.625 4.4259 20.625 3.6665ZM22 15.1248C22.7593 15.1248 23.375 15.7404 23.375 16.4998V22.4582H29.3333C30.0927 22.4582 30.7083 23.0738 30.7083 23.8332C30.7083 24.5926 30.0927 25.2082 29.3333 25.2082H22C21.2406 25.2082 20.625 24.5926 20.625 23.8332V16.4998C20.625 15.7404 21.2406 15.1248 22 15.1248Z" fill="#2E66E3"/>
<path fill-rule="evenodd" clip-rule="evenodd" d="M16.6825 4.39533C16.956 5.10377 16.6034 5.89977 15.8949 6.17324C15.6356 6.27333 15.3794 6.37962 15.1264 6.49194C14.4324 6.80006 13.6199 6.48719 13.3118 5.79312C13.0037 5.09905 13.3165 4.28661 14.0106 3.97848C14.3049 3.84785 14.6029 3.7242 14.9046 3.60775C15.613 3.33428 16.409 3.68689 16.6825 4.39533ZM10.3541 7.77366C10.8778 8.32356 10.8566 9.19391 10.3067 9.71762C10.1056 9.9091 9.90922 10.1055 9.71774 10.3065C9.19403 10.8564 8.32368 10.8777 7.77378 10.354C7.22387 9.83025 7.20263 8.9599 7.72635 8.41C7.94867 8.17655 8.17667 7.94855 8.41012 7.72623C8.96002 7.20251 9.83037 7.22375 10.3541 7.77366ZM5.79324 13.3117C6.48731 13.6198 6.80018 14.4322 6.49206 15.1263C6.37975 15.3793 6.27345 15.6355 6.17336 15.8948C5.89989 16.6033 5.10389 16.9559 4.39545 16.6824C3.68701 16.4089 3.3344 15.6129 3.60787 14.9045C3.72432 14.6028 3.84797 14.3047 3.97861 14.0105C4.28673 13.3164 5.09917 13.0035 5.79324 13.3117Z" fill="#2E66E3"/>
</svg>
