<svg width="44" height="44" viewBox="0 0 44 44" fill="none" xmlns="http://www.w3.org/2000/svg">
<path fill-rule="evenodd" clip-rule="evenodd" d="M31.1667 5.9585C31.5994 5.9585 32.007 6.16226 32.2667 6.5085L37.7666 13.8418C38.2223 14.4493 38.0992 15.3112 37.4916 15.7668C36.8841 16.2225 36.0223 16.0993 35.5666 15.4918L32.5417 11.4585V32.5418L35.5666 28.5085C36.0223 27.901 36.8841 27.7779 37.4916 28.2335C38.0992 28.6891 38.2223 29.551 37.7666 30.1585L32.2667 37.4918C32.007 37.8381 31.5994 38.0418 31.1667 38.0418C30.7339 38.0418 30.3263 37.8381 30.0667 37.4918L24.5666 30.1585C24.111 29.551 24.2341 28.6891 24.8416 28.2335C25.4492 27.7779 26.311 27.901 26.7666 28.5085L29.7917 32.5418V11.4585L26.7666 15.4918C26.311 16.0993 25.4492 16.2225 24.8416 15.7668C24.2341 15.3112 24.111 14.4493 24.5666 13.8418L30.0667 6.5085C30.3263 6.16226 30.7339 5.9585 31.1667 5.9585ZM5.95831 12.8335C5.95831 12.0741 6.57392 11.4585 7.33331 11.4585H20.1666C20.926 11.4585 21.5416 12.0741 21.5416 12.8335C21.5416 13.5929 20.926 14.2085 20.1666 14.2085H7.33331C6.57392 14.2085 5.95831 13.5929 5.95831 12.8335ZM5.95831 22.0002C5.95831 21.2408 6.57392 20.6252 7.33331 20.6252H20.1666C20.926 20.6252 21.5416 21.2408 21.5416 22.0002C21.5416 22.7596 20.926 23.3752 20.1666 23.3752H7.33331C6.57392 23.3752 5.95831 22.7596 5.95831 22.0002ZM5.95831 31.1668C5.95831 30.4074 6.57392 29.7918 7.33331 29.7918H20.1666C20.926 29.7918 21.5416 30.4074 21.5416 31.1668C21.5416 31.9262 20.926 32.5418 20.1666 32.5418H7.33331C6.57392 32.5418 5.95831 31.9262 5.95831 31.1668Z" fill="#0D9488"/>
</svg>
