<svg width="62" height="62" viewBox="0 0 62 62" fill="none" xmlns="http://www.w3.org/2000/svg">
<g clip-path="url(#clip0_219_1869)">
<path fill-rule="evenodd" clip-rule="evenodd" d="M6.27142 30.094C6.46268 28.3695 7.64613 26.6906 9.66809 26.1121L41.5309 16.9963C45.2296 15.9382 48.3003 19.5977 46.6159 23.0564L32.1057 52.8522C31.1849 54.743 29.326 55.617 27.5945 55.5058C25.8483 55.3938 24.1323 54.258 23.69 52.1594L21.1595 40.1536L22.505 39.8701L21.1595 40.1536C21.0573 39.6688 20.7327 39.2819 20.273 39.0971L8.88901 34.5203C6.89911 33.7203 6.07855 31.8331 6.27142 30.094ZM9.00467 30.3972C8.92807 31.0879 9.22875 31.693 9.91481 31.9688L9.40191 33.2446L9.91481 31.9688L21.2988 36.5456C22.6098 37.0727 23.559 38.2038 23.8504 39.5865L26.3808 51.5922C26.5333 52.3158 27.0771 52.717 27.7706 52.7615C28.4787 52.8069 29.2394 52.457 29.6333 51.6482L44.1435 21.8524C44.786 20.5331 43.6982 19.2366 42.2873 19.6403L10.4245 28.756C9.55961 29.0035 9.08288 29.6919 9.00467 30.3972Z" fill="#0D9488"/>
</g>
<defs>
<clipPath id="clip0_219_1869">
<rect width="44" height="44" fill="white" transform="translate(0 28.2886) rotate(-40)"/>
</clipPath>
</defs>
</svg>
