<svg width="44" height="44" viewBox="0 0 44 44" fill="none" xmlns="http://www.w3.org/2000/svg">
<path fill-rule="evenodd" clip-rule="evenodd" d="M11.4584 14.6667C11.4584 8.84467 16.178 4.125 22 4.125C27.822 4.125 32.5417 8.84467 32.5417 14.6667V20.1667C32.5417 25.9887 27.822 30.7083 22 30.7083C16.178 30.7083 11.4584 25.9887 11.4584 20.1667V14.6667ZM22 6.875C17.6968 6.875 14.2084 10.3634 14.2084 14.6667V20.1667C14.2084 24.4699 17.6968 27.9583 22 27.9583C26.3033 27.9583 29.7917 24.4699 29.7917 20.1667V14.6667C29.7917 10.3634 26.3033 6.875 22 6.875ZM18.7917 14.6667C18.7917 13.9073 19.4073 13.2917 20.1667 13.2917H23.8334C24.5928 13.2917 25.2084 13.9073 25.2084 14.6667C25.2084 15.4261 24.5928 16.0417 23.8334 16.0417H20.1667C19.4073 16.0417 18.7917 15.4261 18.7917 14.6667ZM7.33337 16.9583C8.09277 16.9583 8.70837 17.5739 8.70837 18.3333V20.1667C8.70837 27.5075 14.6593 33.4583 22 33.4583C29.3408 33.4583 35.2917 27.5075 35.2917 20.1667V18.3333C35.2917 17.5739 35.9073 16.9583 36.6667 16.9583C37.4261 16.9583 38.0417 17.5739 38.0417 18.3333V20.1667C38.0417 28.5631 31.5909 35.4528 23.375 36.1502V40.3333C23.375 41.0927 22.7594 41.7083 22 41.7083C21.2407 41.7083 20.625 41.0927 20.625 40.3333V36.1502C12.4091 35.4528 5.95837 28.5631 5.95837 20.1667V18.3333C5.95837 17.5739 6.57398 16.9583 7.33337 16.9583ZM16.9584 20.1667C16.9584 19.4073 17.574 18.7917 18.3334 18.7917H25.6667C26.4261 18.7917 27.0417 19.4073 27.0417 20.1667C27.0417 20.9261 26.4261 21.5417 25.6667 21.5417H18.3334C17.574 21.5417 16.9584 20.9261 16.9584 20.1667Z" fill="#6E56CF"/>
</svg>
