<svg width="40" height="44" viewBox="0 0 40 44" fill="none" xmlns="http://www.w3.org/2000/svg">
<path fill-rule="evenodd" clip-rule="evenodd" d="M29.0098 2.2911C29.0871 2.29114 29.1654 2.29118 29.2447 2.29118L30.2789 2.29118C31.7314 2.29113 32.9459 2.29108 33.9108 2.43334C34.9302 2.58366 35.8561 2.91502 36.6013 3.73224C37.347 4.55002 37.6498 5.5672 37.7871 6.68715C37.9169 7.74612 37.9169 9.07877 37.9168 10.6712V11.8061C37.9168 11.8935 37.9169 11.9797 37.9169 12.0649C37.9178 13.9899 37.9184 15.341 37.4516 16.5771C36.9849 17.8128 36.1139 18.7671 34.872 20.1277C34.8171 20.1878 34.7614 20.2488 34.7051 20.3106L30.2555 25.1904L30.4106 25.454C31.0667 26.5686 31.5982 27.4715 31.9819 28.2501C32.3794 29.0566 32.6617 29.813 32.7749 30.65C32.9567 31.9952 32.7923 33.3782 32.3102 34.6486C32.1314 35.1198 31.8221 35.6134 31.5048 36.0636C31.1724 36.5351 30.766 37.0488 30.3295 37.5719C29.4608 38.6132 28.4179 39.757 27.4922 40.7722L27.3404 40.9387C26.1406 42.2546 24.0606 41.8279 23.4208 40.0622C23.0414 39.0153 22.8878 38.5979 22.6956 38.2125C22.5175 37.8552 22.313 37.5143 22.0843 37.1933C21.8408 36.8516 21.5563 36.5354 20.8508 35.7615L20.0094 34.9501C19.9977 34.9387 19.9861 34.9271 19.9747 34.9153C19.819 34.9376 19.6608 34.9489 19.4999 34.9489C18.4475 34.9489 17.5792 34.4657 16.7607 33.7808C15.9865 33.133 15.1275 32.1908 14.1005 31.0645L11.6895 28.4203C10.6626 27.2942 9.80354 26.3521 9.21274 25.5029C8.58831 24.6054 8.14617 23.6512 8.14617 22.4931C8.14617 22.2829 8.16083 22.0773 8.18931 21.8757L6.80527 20.3578C6.72457 20.2693 6.69226 20.2339 6.66037 20.1999C6.0376 19.5352 5.30486 19.0065 4.50127 18.6423C4.46011 18.6236 4.41765 18.6051 4.3116 18.5589L3.68053 18.2838C1.99128 17.5475 1.53656 15.1494 2.82621 13.735L2.83797 13.7221C3.76369 12.7069 4.80659 11.5632 5.75598 10.6105C6.23302 10.1318 6.70136 9.68619 7.13123 9.32173C7.54175 8.97368 7.99141 8.63489 8.42015 8.43921C9.57718 7.91113 10.8362 7.73121 12.0607 7.93026C12.8222 8.05405 13.5109 8.36311 14.246 8.79888C14.9558 9.21959 15.779 9.80238 16.7955 10.522L17.0416 10.6963L21.4954 5.8118C21.5515 5.75025 21.6069 5.68949 21.6615 5.62951C22.9028 4.26677 23.7726 3.31199 24.8982 2.80064C26.0235 2.28946 27.2533 2.29013 29.0098 2.2911ZM15.2294 12.6837C14.2961 12.0235 13.6242 11.5542 13.0601 11.2198C12.4617 10.8651 12.0608 10.7102 11.6952 10.6507C10.9316 10.5266 10.1294 10.6364 9.37824 10.9792C9.26604 11.0305 9.02981 11.1841 8.65742 11.4998C8.30438 11.7991 7.89281 12.1886 7.44086 12.6422C6.53629 13.5499 5.52973 14.6534 4.59129 15.6825C4.58599 15.6883 4.5843 15.6915 4.58415 15.6918C4.58399 15.6921 4.58415 15.6918 4.58415 15.6918C4.58399 15.6925 4.5828 15.6979 4.58437 15.7062C4.58593 15.7145 4.58877 15.7191 4.58954 15.7201C4.59001 15.7205 4.59406 15.724 4.60148 15.7272L5.24101 16.006C5.33608 16.0474 5.39495 16.0731 5.45362 16.0996C6.55019 16.5966 7.55062 17.3183 8.40128 18.2262C8.44681 18.2748 8.49163 18.324 8.564 18.4033L9.36025 19.2766C9.46924 19.1277 9.58305 18.9798 9.70055 18.8323C10.2368 18.159 10.9259 17.4034 11.7235 16.5287L15.2294 12.6837ZM22.4244 33.6219L22.5592 33.7518L22.6451 33.8461C23.2962 34.56 23.6997 35.0025 24.052 35.497C24.3645 35.9357 24.644 36.4015 24.8876 36.89C25.1537 37.4237 25.3598 37.9865 25.6817 38.8745L25.7153 38.8376C26.6538 37.8084 27.66 36.7045 28.4876 35.7125C28.9012 35.2169 29.2563 34.7655 29.5291 34.3784C29.8171 33.97 29.9568 33.7114 30.0031 33.5893C30.3151 32.7671 30.4149 31.8895 30.3021 31.0544C30.2481 30.6552 30.1074 30.2168 29.7841 29.5607C29.4787 28.9409 29.0496 28.2025 28.4455 27.1754L24.9312 31.0296C24.1147 31.9251 23.4114 32.6964 22.7849 33.2915C22.6653 33.4052 22.5453 33.5156 22.4244 33.6219ZM29.2447 5.04118C27.1582 5.04118 26.4623 5.0654 25.8525 5.34242C25.2431 5.61926 24.7359 6.14118 23.2605 7.75926L13.5157 18.4463C12.685 19.3574 12.0553 20.049 11.5808 20.6446C11.1042 21.243 10.8608 21.6526 10.7425 21.9762C10.6735 22.1649 10.6462 22.3278 10.6462 22.4931C10.6462 22.8056 10.7435 23.1783 11.1981 23.8317C11.6746 24.5166 12.4117 25.3291 13.5157 26.5399L13.7776 26.8271L16.3285 24.0297C16.8174 23.4935 17.6088 23.4948 18.0962 24.0326C18.5837 24.5704 18.5825 25.441 18.0936 25.9771L15.5481 28.7688L15.8047 29.0502C16.9087 30.2609 17.6496 31.0693 18.2743 31.5921C18.87 32.0905 19.2116 32.1989 19.4999 32.1989C19.6413 32.1989 19.7788 32.1728 19.9328 32.1104C20.2251 31.9919 20.5978 31.7357 21.1509 31.2103C21.7018 30.6869 22.343 29.9848 23.1952 29.0502L32.94 18.3631C34.4158 16.7445 34.891 16.1889 35.1429 15.522C35.3946 14.8556 35.4168 14.0951 35.4168 11.8061V10.7663C35.4168 9.05378 35.4142 7.90814 35.3095 7.05466C35.2098 6.24116 35.0386 5.9017 34.8362 5.6797C34.6332 5.45713 34.3222 5.2686 33.5786 5.15897C32.7995 5.04409 31.754 5.04118 30.1928 5.04118H29.2447ZM27.7731 13.4258C26.9968 12.5745 25.7366 12.5745 24.9603 13.4258C24.1861 14.2749 24.1861 15.6498 24.9603 16.4989C25.7366 17.3502 26.9968 17.3502 27.7731 16.4989C28.5473 15.6498 28.5473 14.2749 27.7731 13.4258ZM23.1952 11.4784C24.9472 9.55696 27.7862 9.55696 29.5382 11.4784C31.2922 13.402 31.2922 16.5227 29.5382 18.4463C27.7862 20.3677 24.9472 20.3677 23.1952 18.4463C21.4412 16.5227 21.4412 13.402 23.1952 11.4784Z" fill="#2E66E3"/>
</svg>
