<svg width="44" height="44" viewBox="0 0 44 44" fill="none" xmlns="http://www.w3.org/2000/svg">
<path fill-rule="evenodd" clip-rule="evenodd" d="M15.125 9.1665C15.125 5.36955 18.2031 2.2915 22 2.2915C25.797 2.2915 28.875 5.36955 28.875 9.1665V20.8039C28.875 20.9365 28.9477 21.1332 29.1644 21.3071C31.7798 23.4048 33.4584 26.6318 33.4584 30.2498C33.4584 36.5781 28.3283 41.7082 22 41.7082C15.6718 41.7082 10.5417 36.5781 10.5417 30.2498C10.5417 26.6318 12.2202 23.4048 14.8356 21.3071C15.0524 21.1332 15.125 20.9365 15.125 20.8039V9.1665ZM22 5.0415C19.7218 5.0415 17.875 6.88833 17.875 9.1665V20.8039C17.875 21.9106 17.3062 22.8508 16.5562 23.4523C14.5636 25.0505 13.2917 27.5012 13.2917 30.2498C13.2917 35.0593 17.1905 38.9582 22 38.9582C26.8095 38.9582 30.7084 35.0593 30.7084 30.2498C30.7084 27.5012 29.4365 25.0505 27.4438 23.4523C26.6938 22.8508 26.125 21.9106 26.125 20.8039V9.1665C26.125 6.88833 24.2782 5.0415 22 5.0415ZM22.0001 7.7915C22.7594 7.79152 23.375 8.40715 23.375 9.16654L23.3746 24.4507C26.0024 25.0715 27.9579 27.4322 27.9579 30.2496C27.9579 33.5403 25.2903 36.208 21.9996 36.208C18.7089 36.208 16.0413 33.5403 16.0413 30.2496C16.0413 27.4322 17.9968 25.0714 20.6246 24.4507L20.625 9.16647C20.625 8.40708 21.2407 7.79148 22.0001 7.7915ZM21.9996 27.0413C20.2277 27.0413 18.7913 28.4777 18.7913 30.2496C18.7913 32.0215 20.2277 33.458 21.9996 33.458C23.7715 33.458 25.2079 32.0215 25.2079 30.2496C25.2079 28.4777 23.7715 27.0413 21.9996 27.0413Z" fill="#2E66E3"/>
</svg>
