<svg width="44" height="44" viewBox="0 0 44 44" fill="none" xmlns="http://www.w3.org/2000/svg">
<path d="M29.542 40.208C25.9408 41.6996 21.9781 42.0899 18.1551 41.3295C14.332 40.569 10.8203 38.692 8.06407 35.9357C5.30781 33.1795 3.43078 29.6678 2.67032 25.8447C1.90987 22.0217 2.30017 18.059 3.79184 14.4578C5.28352 10.8566 7.80959 7.77854 11.0506 5.61296C14.2916 3.44738 18.102 2.2915 22 2.2915C22.7594 2.2915 23.375 2.90711 23.375 3.6665C23.375 4.42589 22.7594 5.0415 22 5.0415C18.6459 5.0415 15.3672 6.03609 12.5784 7.8995C9.78964 9.7629 7.61605 12.4114 6.33251 15.5102C5.04898 18.6089 4.71314 22.0187 5.36748 25.3082C6.02183 28.5978 7.63695 31.6195 10.0086 33.9912C12.3803 36.3629 15.402 37.978 18.6916 38.6323C21.9812 39.2867 25.3909 38.9508 28.4896 37.6673C31.5884 36.3838 34.2369 34.2102 36.1003 31.4214C37.9637 28.6326 38.9583 25.3539 38.9583 21.9998C38.9583 21.2404 39.5739 20.6248 40.3333 20.6248C41.0927 20.6248 41.7083 21.2404 41.7083 21.9998C41.7083 25.8978 40.5524 29.7082 38.3868 32.9492C36.2213 36.1902 33.1432 38.7163 29.542 40.208Z" fill="#6E56CF"/>
<path d="M26.926 2.91229C26.1906 2.72301 25.441 3.16574 25.2517 3.90116C25.0624 4.63659 25.5051 5.38621 26.2406 5.57549C32.1978 7.10877 36.8908 11.8018 38.4241 17.759C38.6134 18.4945 39.363 18.9372 40.0984 18.7479C40.8339 18.5586 41.2766 17.809 41.0873 17.0736C39.3043 10.1461 33.8535 4.69531 26.926 2.91229Z" fill="#6E56CF"/>
</svg>
