<svg width="44" height="44" viewBox="0 0 44 44" fill="none" xmlns="http://www.w3.org/2000/svg">
<path fill-rule="evenodd" clip-rule="evenodd" d="M11.6722 13.9316C12.6268 9.37797 16.6654 5.9585 21.5027 5.9585H22.4973C27.3346 5.9585 31.3732 9.37797 32.3279 13.9316C34.8176 14.6061 36.9824 15.5344 38.5995 16.6794C40.3699 17.9329 41.7084 19.6203 41.7084 21.6816C41.7084 23.2162 40.9573 24.5543 39.8584 25.6387C38.7644 26.7182 37.2517 27.6271 35.4932 28.361C35.4746 28.3688 35.4559 28.3766 35.4372 28.3843L36.9798 31.4684C37.3195 32.1476 37.0443 32.9735 36.3651 33.3132C35.6859 33.653 34.86 33.3778 34.5203 32.6986L32.8176 29.2944C30.0686 30.0901 26.8363 30.5838 23.375 30.6877V34.8335C23.375 35.5929 22.7594 36.2085 22 36.2085C21.2406 36.2085 20.625 35.5929 20.625 34.8335V30.6877C17.1637 30.5838 13.9315 30.0901 11.1825 29.2944L9.47977 32.6986C9.14006 33.3778 8.31409 33.653 7.63492 33.3132C6.95575 32.9735 6.68056 32.1476 7.02027 31.4684L8.56286 28.3843C8.54414 28.3766 8.52545 28.3688 8.5068 28.361C6.74836 27.6271 5.23567 26.7182 4.14164 25.6387C3.0427 24.5543 2.29169 23.2162 2.29169 21.6816C2.29169 19.6203 3.63013 17.9329 5.40052 16.6794C7.01764 15.5344 9.1824 14.6061 11.6722 13.9316ZM11.5822 16.8188C9.67131 17.4028 8.11253 18.1287 6.98963 18.9238C5.54666 19.9455 5.04169 20.9106 5.04169 21.6816C5.04169 22.2599 5.31669 22.9347 6.07318 23.6812C6.83458 24.4325 8.00675 25.1724 9.566 25.8232C12.6785 27.1223 17.0738 27.9582 22 27.9582C26.9262 27.9582 31.3215 27.1223 34.434 25.8232C35.9933 25.1724 37.1655 24.4325 37.9269 23.6812C38.6833 22.9347 38.9584 22.2599 38.9584 21.6816C38.9584 20.9106 38.4534 19.9455 37.0104 18.9238C35.8875 18.1287 34.3287 17.4028 32.4178 16.8188C32.2888 17.2244 32.04 17.6437 31.5857 17.9597C30.4835 18.7263 27.9502 19.7085 22 19.7085C16.0498 19.7085 13.5165 18.7263 12.4144 17.9597C11.9601 17.6437 11.7112 17.2245 11.5822 16.8188ZM14.2102 15.8377C14.9198 16.2163 16.9661 16.9585 22 16.9585C27.0339 16.9585 29.0802 16.2163 29.7899 15.8377C29.7021 11.8854 26.4707 8.7085 22.4973 8.7085H21.5027C17.5294 8.7085 14.298 11.8854 14.2102 15.8377ZM29.7911 16.0158C29.7911 16.0158 29.7912 16.015 29.7914 16.0134L29.7911 16.0158Z" fill="#0D9488"/>
<path d="M23.8334 23.8335C23.8334 24.846 23.0125 25.6668 22 25.6668C20.9875 25.6668 20.1667 24.846 20.1667 23.8335C20.1667 22.821 20.9875 22.0002 22 22.0002C23.0125 22.0002 23.8334 22.821 23.8334 23.8335Z" fill="#0D9488"/>
<path d="M14.6667 22.0002C14.6667 23.0127 13.8459 23.8335 12.8334 23.8335C11.8208 23.8335 11 23.0127 11 22.0002C11 20.9876 11.8208 20.1668 12.8334 20.1668C13.8459 20.1668 14.6667 20.9876 14.6667 22.0002Z" fill="#0D9488"/>
<path d="M33 22.0002C33 23.0127 32.1792 23.8335 31.1667 23.8335C30.1542 23.8335 29.3334 23.0127 29.3334 22.0002C29.3334 20.9876 30.1542 20.1668 31.1667 20.1668C32.1792 20.1668 33 20.9876 33 22.0002Z" fill="#0D9488"/>
</svg>
