<svg width="44" height="44" viewBox="0 0 44 44" fill="none" xmlns="http://www.w3.org/2000/svg">
<path fill-rule="evenodd" clip-rule="evenodd" d="M16.5 2.2915C11.6905 2.2915 7.79169 6.19036 7.79169 10.9998C7.79169 15.8093 11.6905 19.7082 16.5 19.7082C21.3095 19.7082 25.2084 15.8093 25.2084 10.9998C25.2084 6.19036 21.3095 2.2915 16.5 2.2915ZM10.5417 10.9998C10.5417 7.70914 13.2093 5.0415 16.5 5.0415C19.7907 5.0415 22.4584 7.70914 22.4584 10.9998C22.4584 14.2905 19.7907 16.9582 16.5 16.9582C13.2093 16.9582 10.5417 14.2905 10.5417 10.9998Z" fill="#2E66E3"/>
<path d="M27.5 4.12484C26.7406 4.12484 26.125 4.74045 26.125 5.49984C26.125 6.25923 26.7406 6.87484 27.5 6.87484C29.7782 6.87484 31.625 8.72166 31.625 10.9998C31.625 13.278 29.7782 15.1248 27.5 15.1248C26.7406 15.1248 26.125 15.7404 26.125 16.4998C26.125 17.2592 26.7406 17.8748 27.5 17.8748C31.297 17.8748 34.375 14.7968 34.375 10.9998C34.375 7.20288 31.297 4.12484 27.5 4.12484Z" fill="#2E66E3"/>
<path fill-rule="evenodd" clip-rule="evenodd" d="M6.74329 24.7872C9.3088 23.3212 12.7612 22.4582 16.5 22.4582C20.2388 22.4582 23.6912 23.3212 26.2567 24.7872C28.7834 26.231 30.7084 28.4351 30.7084 31.1665C30.7084 33.8979 28.7834 36.102 26.2567 37.5458C23.6912 39.0118 20.2388 39.8748 16.5 39.8748C12.7612 39.8748 9.3088 39.0118 6.74329 37.5458C4.21668 36.102 2.29169 33.8979 2.29169 31.1665C2.29169 28.4351 4.21668 26.231 6.74329 24.7872ZM8.10767 27.1749C5.98953 28.3853 5.04169 29.8478 5.04169 31.1665C5.04169 32.4852 5.98953 33.9478 8.10767 35.1581C10.1869 36.3463 13.1511 37.1248 16.5 37.1248C19.8489 37.1248 22.8131 36.3463 24.8924 35.1581C27.0105 33.9478 27.9584 32.4852 27.9584 31.1665C27.9584 29.8478 27.0105 28.3853 24.8924 27.1749C22.8131 25.9867 19.8489 25.2082 16.5 25.2082C13.1511 25.2082 10.1869 25.9867 8.10767 27.1749Z" fill="#2E66E3"/>
<path d="M33.2945 24.3234C32.5528 24.1608 31.8196 24.6302 31.6569 25.372C31.4943 26.1137 31.9637 26.8469 32.7055 27.0096C34.1582 27.3281 35.3191 27.8753 36.0853 28.5023C36.8525 29.1301 37.125 29.7433 37.125 30.2498C37.125 30.7095 36.9039 31.2491 36.2943 31.8153C35.6804 32.3857 34.737 32.9126 33.5202 33.279C32.7931 33.498 32.3811 34.2649 32.6001 34.9921C32.819 35.7192 33.586 36.1312 34.3131 35.9122C35.8212 35.4582 37.1695 34.7558 38.166 33.8301C39.1669 32.9004 39.875 31.6773 39.875 30.2498C39.875 28.6644 39.0056 27.3386 37.8268 26.374C36.6471 25.4086 35.058 24.7101 33.2945 24.3234Z" fill="#2E66E3"/>
</svg>
