<svg width="44" height="44" viewBox="0 0 44 44" fill="none" xmlns="http://www.w3.org/2000/svg">
<path fill-rule="evenodd" clip-rule="evenodd" d="M11.8213 3.2085H12.012C13.6592 3.20845 15.0328 3.2084 16.1232 3.35501C17.2742 3.50975 18.3133 3.85014 19.1483 4.68517C19.9833 5.5202 20.3237 6.55933 20.4785 7.71029C20.6251 8.80071 20.625 10.1743 20.625 11.8215V32.1788C20.625 33.826 20.6251 35.1996 20.4785 36.2901C20.3237 37.441 19.9833 38.4801 19.1483 39.3152C18.3133 40.1502 17.2742 40.4906 16.1232 40.6453C15.0328 40.7919 13.6592 40.7919 12.012 40.7918H11.8213C10.1741 40.7919 8.80054 40.7919 7.71011 40.6453C6.55915 40.4906 5.52002 40.1502 4.68499 39.3152C3.84996 38.4801 3.50956 37.441 3.35482 36.2901C3.20822 35.1996 3.20826 33.8261 3.20831 32.1789V11.8215C3.20826 10.1743 3.20822 8.80071 3.35482 7.71029C3.50956 6.55933 3.84996 5.5202 4.68499 4.68517C5.52002 3.85014 6.55915 3.50975 7.71011 3.35501C8.80053 3.2084 10.1741 3.20845 11.8213 3.2085ZM8.07654 6.08048C7.23053 6.19423 6.86845 6.3908 6.62953 6.62972C6.39062 6.86863 6.19404 7.23071 6.0803 8.07672C5.96124 8.96229 5.95832 10.1495 5.95832 11.9168V32.0835C5.95832 33.8509 5.96124 35.038 6.0803 35.9236C6.19404 36.7696 6.39062 37.1317 6.62953 37.3706C6.86845 37.6095 7.23053 37.8061 8.07654 37.9199C8.9621 38.0389 10.1493 38.0418 11.9167 38.0418C13.684 38.0418 14.8712 38.0389 15.7568 37.9199C16.6028 37.8061 16.9649 37.6095 17.2038 37.3706C17.4427 37.1317 17.6393 36.7696 17.753 35.9236C17.8721 35.0381 17.875 33.8509 17.875 32.0835V11.9168C17.875 10.1495 17.8721 8.96229 17.753 8.07672C17.6393 7.23071 17.4427 6.86863 17.2038 6.62972C16.9649 6.3908 16.6028 6.19423 15.7568 6.08048C14.8712 5.96142 13.684 5.9585 11.9167 5.9585C10.1493 5.9585 8.9621 5.96142 8.07654 6.08048Z" fill="#6E56CF"/>
<path fill-rule="evenodd" clip-rule="evenodd" d="M31.988 19.7085H32.1787C33.8259 19.7084 35.1994 19.7084 36.2899 19.855C37.4408 20.0097 38.48 20.3501 39.315 21.1852C40.15 22.0202 40.4904 23.0593 40.6451 24.2103C40.7918 25.3007 40.7917 26.6742 40.7917 28.3214V32.1788C40.7917 33.826 40.7918 35.1996 40.6451 36.2901C40.4904 37.441 40.15 38.4801 39.315 39.3152C38.48 40.1502 37.4408 40.4906 36.2899 40.6453C35.1995 40.7919 33.8259 40.7919 32.1788 40.7918H31.988C30.3408 40.7919 28.9672 40.7919 27.8768 40.6453C26.7258 40.4906 25.6867 40.1502 24.8517 39.3152C24.0166 38.4801 23.6762 37.441 23.5215 36.2901C23.3749 35.1996 23.3749 33.826 23.375 32.1788V28.3215C23.3749 26.6743 23.3749 25.3007 23.5215 24.2103C23.6762 23.0593 24.0166 22.0202 24.8517 21.1852C25.6867 20.3501 26.7258 20.0097 27.8768 19.855C28.9672 19.7084 30.3408 19.7084 31.988 19.7085ZM28.2432 22.5805C27.3972 22.6942 27.0351 22.8908 26.7962 23.1297C26.5573 23.3686 26.3607 23.7307 26.247 24.5767C26.1279 25.4623 26.125 26.6495 26.125 28.4168V32.0835C26.125 33.8509 26.1279 35.038 26.247 35.9236C26.3607 36.7696 26.5573 37.1317 26.7962 37.3706C27.0351 37.6095 27.3972 37.8061 28.2432 37.9199C29.1288 38.0389 30.316 38.0418 32.0833 38.0418C33.8507 38.0418 35.0379 38.0389 35.9234 37.9199C36.7695 37.8061 37.1315 37.6095 37.3704 37.3706C37.6094 37.1317 37.8059 36.7696 37.9197 35.9236C38.0387 35.038 38.0417 33.8509 38.0417 32.0835V28.4168C38.0417 26.6495 38.0387 25.4623 37.9197 24.5767C37.8059 23.7307 37.6094 23.3686 37.3704 23.1297C37.1315 22.8908 36.7695 22.6942 35.9234 22.5805C35.0379 22.4614 33.8507 22.4585 32.0833 22.4585C30.316 22.4585 29.1288 22.4614 28.2432 22.5805Z" fill="#6E56CF"/>
<path fill-rule="evenodd" clip-rule="evenodd" d="M30.2037 3.2085C29.3889 3.20849 28.7086 3.20848 28.1502 3.24658C27.5688 3.28624 27.0197 3.37176 26.4873 3.59228C25.2519 4.10397 24.2705 5.08546 23.7588 6.32081C23.5382 6.85319 23.4527 7.40232 23.4131 7.98367C23.375 8.54212 23.375 9.22236 23.375 10.0372V10.1298C23.375 10.9446 23.375 11.6249 23.4131 12.1833C23.4527 12.7647 23.5382 13.3138 23.7588 13.8462C24.2705 15.0815 25.2519 16.063 26.4873 16.5747C27.0197 16.7952 27.5688 16.8808 28.1502 16.9204C28.7086 16.9585 29.3888 16.9585 30.2037 16.9585H33.963C34.7778 16.9585 35.458 16.9585 36.0165 16.9204C36.5978 16.8808 37.147 16.7952 37.6794 16.5747C38.9147 16.063 39.8962 15.0815 40.4079 13.8462C40.6284 13.3138 40.7139 12.7647 40.7536 12.1833C40.7917 11.6249 40.7917 10.9446 40.7917 10.1298V10.0372C40.7917 9.22236 40.7917 8.54212 40.7536 7.98367C40.7139 7.40232 40.6284 6.85319 40.4079 6.32081C39.8962 5.08546 38.9147 4.10397 37.6794 3.59228C37.147 3.37176 36.5978 3.28624 36.0165 3.24658C35.4581 3.20848 34.7779 3.20849 33.9631 3.2085H30.2037ZM27.5397 6.13294C27.6811 6.07436 27.896 6.02031 28.3373 5.9902C28.791 5.95925 29.3769 5.9585 30.25 5.9585H33.9167C34.7897 5.9585 35.3756 5.95925 35.8293 5.9902C36.2706 6.02031 36.4855 6.07436 36.627 6.13294C37.1885 6.36554 37.6346 6.81166 37.8672 7.37319C37.9258 7.51463 37.9798 7.72953 38.01 8.17086C38.0409 8.62455 38.0417 9.21046 38.0417 10.0835C38.0417 10.9565 38.0409 11.5425 38.01 11.9961C37.9798 12.4375 37.9258 12.6524 37.8672 12.7938C37.6346 13.3553 37.1885 13.8015 36.627 14.0341C36.4855 14.0926 36.2706 14.1467 35.8293 14.1768C35.3756 14.2078 34.7897 14.2085 33.9167 14.2085H30.25C29.3769 14.2085 28.791 14.2078 28.3373 14.1768C27.896 14.1467 27.6811 14.0926 27.5397 14.0341C26.9781 13.8015 26.532 13.3553 26.2994 12.7938C26.2408 12.6524 26.1868 12.4375 26.1567 11.9961C26.1257 11.5425 26.125 10.9565 26.125 10.0835C26.125 9.21046 26.1257 8.62455 26.1567 8.17086C26.1868 7.72953 26.2408 7.51463 26.2994 7.37319C26.532 6.81166 26.9781 6.36554 27.5397 6.13294Z" fill="#6E56CF"/>
</svg>
