<svg width="24" height="24" viewBox="0 0 24 24" fill="none" xmlns="http://www.w3.org/2000/svg">
<path fill-rule="evenodd" clip-rule="evenodd" d="M9.94507 1.25H14.0548C15.4224 1.24998 16.5247 1.24996 17.3917 1.36652C18.2918 1.48754 19.0497 1.74643 19.6516 2.34835C20.2535 2.95027 20.5124 3.70814 20.6334 4.60825C20.75 5.47522 20.75 6.57754 20.7499 7.94513V16.0549C20.75 17.4225 20.75 18.5248 20.6334 19.3918C20.5124 20.2919 20.2535 21.0497 19.6516 21.6517C19.0497 22.2536 18.2918 22.5125 17.3917 22.6335C16.5247 22.75 15.4224 22.75 14.0548 22.75H9.94507C8.57748 22.75 7.47516 22.75 6.60819 22.6335C5.70808 22.5125 4.95021 22.2536 4.34829 21.6517C3.74638 21.0497 3.48748 20.2919 3.36646 19.3918C3.32777 19.1039 3.30192 18.7902 3.28466 18.4494C3.24558 18.326 3.23797 18.1912 3.2687 18.0568C3.24992 17.4649 3.24993 16.7991 3.24994 16.0549V7.94513C3.24992 6.57754 3.2499 5.47522 3.36646 4.60825C3.48748 3.70814 3.74638 2.95027 4.34829 2.34835C4.95021 1.74643 5.70808 1.48754 6.60819 1.36652C7.47516 1.24996 8.57748 1.24998 9.94507 1.25ZM4.7767 18.2491C4.7919 18.6029 4.81573 18.914 4.85309 19.1919C4.95174 19.9257 5.13219 20.3142 5.40895 20.591C5.68571 20.8678 6.07429 21.0482 6.80806 21.1469C7.56341 21.2484 8.56453 21.25 9.99994 21.25H13.9999C15.4354 21.25 16.4365 21.2484 17.1918 21.1469C17.9256 21.0482 18.3142 20.8678 18.5909 20.591C18.8677 20.3142 19.0481 19.9257 19.1468 19.1919C19.2296 18.5756 19.246 17.7958 19.2492 16.75H7.89772C6.91946 16.75 6.57746 16.7564 6.31538 16.8267C5.59606 17.0194 5.02262 17.5541 4.7767 18.2491ZM19.2499 15.25V8C19.2499 6.56458 19.2483 5.56347 19.1468 4.80812C19.0481 4.07435 18.8677 3.68577 18.5909 3.40901C18.3142 3.13225 17.9256 2.9518 17.1918 2.85315C16.4365 2.75159 15.4354 2.75 13.9999 2.75H9.99994C9.09213 2.75 8.35803 2.75064 7.74994 2.7768V15.25C7.76056 15.25 7.77122 15.25 7.78192 15.25C7.81995 15.25 7.85855 15.25 7.89772 15.25H19.2499ZM6.24994 15.3114C6.13743 15.3284 6.03044 15.3501 5.92715 15.3778C5.49917 15.4925 5.10218 15.6798 4.74994 15.9259V8C4.74994 6.56458 4.75153 5.56347 4.85309 4.80812C4.95174 4.07435 5.13219 3.68577 5.40895 3.40901C5.60526 3.2127 5.85783 3.06485 6.24994 2.96027V15.3114Z" fill="#1A365D"/>
</svg>
