<svg width="42" height="42" viewBox="0 0 42 42" fill="none" xmlns="http://www.w3.org/2000/svg">
<circle cx="21" cy="21" r="20" stroke="#D4AF37" stroke-width="1.03529"/>
<path d="M25.6992 28.2939H16.301C15.0023 28.2939 13.9413 27.2329 13.9413 25.9342V16.536C13.9413 15.2373 15.0023 14.1763 16.301 14.1763H25.6992C26.9979 14.1763 28.0589 15.2373 28.0589 16.536V25.9342C28.0589 27.2387 27.0037 28.2939 25.6992 28.2939Z" stroke="#D4AF37" stroke-width="1.03529"/>
<path d="M18.4406 23.801C19.1248 24.4851 20.035 24.862 21.0033 24.862C21.9715 24.862 22.876 24.4851 23.5659 23.801C24.25 23.1169 24.6269 22.2066 24.6269 21.2384C24.6269 20.2701 24.25 19.3599 23.5659 18.6757C22.8818 17.9916 21.9715 17.6147 21.0033 17.6147C20.035 17.6147 19.1248 17.9916 18.4406 18.6757C17.7565 19.3599 17.3796 20.2701 17.3796 21.2384C17.3796 22.2066 17.7565 23.1169 18.4406 23.801Z" stroke="#D4AF37" stroke-width="1.03529"/>
<path d="M25.3328 17.496C25.7171 17.496 26.0286 17.1845 26.0286 16.8002C26.0286 16.416 25.7171 16.1045 25.3328 16.1045C24.9486 16.1045 24.6371 16.416 24.6371 16.8002C24.6371 17.1845 24.9486 17.496 25.3328 17.496Z" stroke="#D4AF37" stroke-width="1.03529"/>
</svg>
