<svg width="24" height="24" viewBox="0 0 24 24" fill="none" xmlns="http://www.w3.org/2000/svg">
<path fill-rule="evenodd" clip-rule="evenodd" d="M11.9999 1.25C9.37658 1.25 7.24993 3.37665 7.24993 6C7.24993 8.62335 9.37658 10.75 11.9999 10.75C14.6233 10.75 16.7499 8.62335 16.7499 6C16.7499 3.37665 14.6233 1.25 11.9999 1.25ZM8.74993 6C8.74993 4.20507 10.205 2.75 11.9999 2.75C13.7949 2.75 15.2499 4.20507 15.2499 6C15.2499 7.79493 13.7949 9.25 11.9999 9.25C10.205 9.25 8.74993 7.79493 8.74993 6Z" fill="#1A365D"/>
<path fill-rule="evenodd" clip-rule="evenodd" d="M2.72754 5.8181C2.62708 5.41625 2.21988 5.17193 1.81803 5.27239C1.41619 5.37285 1.17186 5.78006 1.27233 6.1819L1.65429 7.70977C2.35905 10.5288 4.49579 12.7496 7.24993 13.5787L7.24993 18.052C7.2499 18.9505 7.24988 19.6997 7.32984 20.2945C7.41425 20.9223 7.59992 21.4891 8.05539 21.9445C8.51086 22.4 9.07766 22.5857 9.70545 22.6701C10.3002 22.7501 11.0495 22.75 11.9479 22.75H12.0519C12.9504 22.75 13.6996 22.7501 14.2944 22.6701C14.9222 22.5857 15.489 22.4 15.9445 21.9445C16.3999 21.4891 16.5856 20.9223 16.67 20.2945C16.75 19.6997 16.75 18.9505 16.7499 18.052L16.7499 13.859C17.7311 14.1515 18.4805 15.0039 18.6056 16.0671L19.2551 21.5876C19.3035 21.999 19.6762 22.2933 20.0876 22.2449C20.4989 22.1965 20.7932 21.8237 20.7448 21.4124L20.0953 15.8918C19.851 13.8151 18.091 12.25 15.9999 12.25H8.08446C5.64101 11.6764 3.71932 9.78523 3.10951 7.34596L2.72754 5.8181ZM8.74993 18V13.75H15.2499V18C15.2499 18.964 15.2483 19.6116 15.1834 20.0946C15.1214 20.5561 15.0141 20.7536 14.8838 20.8839C14.7535 21.0142 14.556 21.1214 14.0945 21.1835C13.6115 21.2484 12.9639 21.25 11.9999 21.25C11.0359 21.25 10.3884 21.2484 9.90532 21.1835C9.44386 21.1214 9.24637 21.0142 9.11605 20.8839C8.98573 20.7536 8.87851 20.5561 8.81647 20.0946C8.75153 19.6116 8.74993 18.964 8.74993 18Z" fill="#1A365D"/>
</svg>
