<svg width="42" height="42" viewBox="0 0 42 42" fill="none" xmlns="http://www.w3.org/2000/svg">
<circle cx="21" cy="21" r="20" stroke="#D4AF37" stroke-width="1.03529"/>
<path d="M16.4841 18.4165H13.0425V29.3916H16.4841V18.4165Z" stroke="#D4AF37" stroke-width="1.03529"/>
<path d="M25.7939 18.1782C25.667 18.1624 25.5322 18.1544 25.3974 18.1465C23.4704 18.0672 22.384 19.2091 22.0034 19.7008C21.9003 19.8356 21.8527 19.9149 21.8527 19.9149V18.4478H18.5618V29.423H21.8527H22.0034C22.0034 28.3048 22.0034 27.1946 22.0034 26.0765C22.0034 25.4738 22.0034 24.8711 22.0034 24.2685C22.0034 23.523 21.9479 22.73 22.3206 22.0481C22.6378 21.4771 23.2087 21.1916 23.8511 21.1916C25.7543 21.1916 25.7939 22.9124 25.7939 23.071C25.7939 23.079 25.7939 23.0869 25.7939 23.0869V29.4705H29.2355V22.3098C29.2355 19.8594 27.9905 18.4161 25.7939 18.1782Z" stroke="#D4AF37" stroke-width="1.03529"/>
<path d="M14.7629 16.9967C15.8665 16.9967 16.7612 16.102 16.7612 14.9984C16.7612 13.8947 15.8665 13 14.7629 13C13.6592 13 12.7645 13.8947 12.7645 14.9984C12.7645 16.102 13.6592 16.9967 14.7629 16.9967Z" stroke="#D4AF37" stroke-width="1.03529"/>
</svg>
