<svg width="60" height="60" viewBox="0 0 60 60" fill="none" xmlns="http://www.w3.org/2000/svg">
<path d="M10.681 31.4286C10.9322 30.4239 11.9502 30.4298 12.9548 30.681L22.9548 33.181C23.9594 33.4321 24.5702 33.9954 24.3191 35C24.0679 36.0046 23.1475 35.9654 22.1429 35.7143L12.1429 33.2143C11.1383 32.9631 10.4299 32.4332 10.681 31.4286Z" fill="#273656"/>
<path fill-rule="evenodd" clip-rule="evenodd" d="M55.7143 12.1428C55.7143 8.48458 53.8221 7.00972 50 7.14285C47.1542 7.24198 44.2903 7.35758 41.4286 8.21428C38.941 8.959 36.1098 10.1662 33.9286 11.4286C31.8834 12.6122 28.5007 12.5242 26.4286 11.4286C23.9399 10.1126 20.6979 8.9639 17.8572 8.21428C15.4552 7.58043 12.4669 6.93731 10.0001 6.78569C6.10445 6.54627 4.28577 8.74663 4.28577 12.4945V40.359C4.28577 44.1995 6.15539 45.8409 9.84104 46.0714C12.2379 46.2213 15.971 46.8987 17.9785 47.4284C20.4599 48.0832 23.2368 49.3936 25.7143 50.7143C28.7976 52.3578 32.0406 52.3578 35.1238 50.7143C37.6014 49.3936 40.0187 48.0832 42.5001 47.4284C44.5075 46.8987 47.449 46.2213 49.8459 46.0714C53.5315 45.8409 55.7143 44.1995 55.7143 40.359V12.1428ZM50.7143 9.28571C52.9957 9.20624 53.5715 9.99999 53.5715 12.5V40.359C53.5715 42.0733 51.7043 43.5695 49.8459 43.6857C47.3957 43.839 44.3977 44.1435 42.0217 44.7705C39.0958 45.5425 35.7069 47.1753 33.187 48.5185C32.7664 48.7427 31.8799 48.9193 31.4286 49.0483V14.9374C32.5594 14.7111 34.1053 14.2192 35.1238 13.6297C37.25 12.3992 39.7372 11.1287 41.7878 10.5148C44.1607 9.80447 47.9172 9.38314 50.7143 9.28571ZM28.5715 14.9374C27.434 14.7606 25.8725 14.3979 24.8292 13.8462C22.3872 12.5549 19.4269 11.1663 17.0217 10.5316C14.9911 9.99574 12.0579 9.07699 9.64291 8.92856C7.50005 8.92856 6.42862 9.28571 6.42862 12.4945V40.359C6.42862 42.0733 8.29582 43.5695 10.1542 43.6857C12.6045 43.839 15.6024 44.1435 17.9785 44.7705C20.9043 45.5425 24.2932 47.1753 26.8131 48.5185C27.2337 48.7427 28.1202 48.9193 28.5715 49.0483V14.9374Z" fill="#273656"/>
<path d="M10.681 21.8833C10.9322 20.8787 11.9502 20.8846 12.9548 21.1357L22.9548 23.6357C23.9594 23.8869 24.5702 24.4501 24.3191 25.4548C24.0679 26.4594 23.1475 26.4202 22.1429 26.169L12.1429 23.669C11.1383 23.4179 10.4299 22.8879 10.681 21.8833Z" fill="#273656"/>
<path d="M49.3191 22.1761C49.0679 21.1715 48.0499 21.1774 47.0453 21.4286L37.0453 23.9286C36.0407 24.1797 35.4299 24.743 35.681 25.7476C35.9322 26.7522 36.8526 26.713 37.8572 26.4619L47.8572 23.9619C48.8618 23.7107 49.5702 23.1808 49.3191 22.1761Z" fill="#273656"/>
<path d="M49.2858 30.681C49.0346 29.6764 48.0166 29.6822 47.012 29.9334L37.012 32.4334C36.0074 32.6846 35.3966 33.2478 35.6477 34.2524C35.8989 35.257 36.8193 35.2179 37.8239 34.9667L47.8239 32.4667C48.8285 32.2155 49.5369 31.6856 49.2858 30.681Z" fill="#273656"/>
</svg>
