<svg width="26" height="26" viewBox="0 0 26 26" fill="none" xmlns="http://www.w3.org/2000/svg">
<path id="Telegram" d="M12.5315 0.44043C10.0611 0.44043 7.64621 1.17451 5.59216 2.54985C3.53811 3.92518 1.93718 5.87999 0.991802 8.16709C0.0464275 10.4542 -0.200925 12.9708 0.281022 15.3988C0.76297 17.8268 1.95257 20.057 3.6994 21.8075C5.44622 23.558 7.67181 24.75 10.0947 25.233C12.5176 25.7159 15.0291 25.4681 17.3114 24.5207C19.5937 23.5734 21.5445 21.9691 22.9169 19.9108C24.2894 17.8524 25.022 15.4325 25.022 12.957C25.0221 11.3132 24.6991 9.68557 24.0715 8.16693C23.4438 6.64829 22.5238 5.26843 21.3639 4.10613C20.204 2.94384 18.827 2.02188 17.3116 1.39292C15.7961 0.76395 14.1718 0.440293 12.5315 0.44043ZM16.5029 19.4061C16.4561 19.5229 16.385 19.6283 16.2942 19.7153C16.2035 19.8024 16.0952 19.8689 15.9767 19.9106C15.8582 19.9523 15.7321 19.9681 15.607 19.9569C15.4819 19.9458 15.3606 19.908 15.2513 19.846L11.8606 17.2058L9.68432 19.2177C9.63382 19.2551 9.57475 19.2792 9.51254 19.2877C9.45034 19.2962 9.38699 19.2889 9.32834 19.2665L9.74552 15.526L9.75887 15.5366L9.7674 15.4627C9.7674 15.4627 15.869 9.89598 16.1176 9.6588C16.3692 9.42224 16.2862 9.37092 16.2862 9.37092C16.3005 9.08238 15.8346 9.37092 15.8346 9.37092L7.75014 14.5829L4.38335 13.4338C4.38335 13.4338 3.86624 13.248 3.81753 12.8393C3.76632 12.4338 4.4002 12.2135 4.4002 12.2135L17.7862 6.88455C17.7862 6.88455 18.8866 6.39325 18.8866 7.20687L16.5029 19.4061Z" fill="white"/>
</svg>
